<?xml version="1.0" encoding="iso-8859-1"?>
<!-- Uploaded to: SVG Repo, www.svgrepo.com, Generator: SVG Repo Mixer Tools -->
<!DOCTYPE svg PUBLIC "-//W3C//DTD SVG 1.1//EN" "http://www.w3.org/Graphics/SVG/1.1/DTD/svg11.dtd">
<svg fill="#000000" version="1.1" id="Capa_1" xmlns="http://www.w3.org/2000/svg" xmlns:xlink="http://www.w3.org/1999/xlink" 
	 width="800px" height="800px" viewBox="0 0 49.402 49.402"
	 xml:space="preserve">
<g>
	<path d="M40.383,13.687c-1.025-2.251-3.691-3.248-5.942-2.223c-0.162,0.074-0.313,0.158-0.463,0.247
		c0.157-0.868,0.062-1.79-0.33-2.651C32.7,6.982,30.356,5.977,28.23,6.641c0.379-0.652,0.6-1.407,0.6-2.214
		C28.83,1.986,26.845,0,24.404,0s-4.427,1.986-4.427,4.427c0,0.729,0.18,1.413,0.492,2.021c-1.773-0.168-3.555,0.734-4.417,2.414
		c-0.432,0.843-0.569,1.76-0.452,2.634c-0.144-0.096-0.292-0.187-0.451-0.268c-2.201-1.129-4.91-0.256-6.039,1.944
		c-1.128,2.201-0.256,4.91,1.945,6.039c1.606,0.824,3.481,0.578,4.816-0.469c-0.071,1.695,0.823,3.361,2.43,4.185
		c1.649,0.846,3.583,0.568,4.925-0.551v2.921h-1.9v1.759h1.9v0.928h-1.9v1.76h1.9v0.888h-1.9v1.759h1.9v0.928h-1.9v1.76h1.9v0.484
		v2.307v3.216v1.188H13.127v7.131h2.723v-4.408h7.375v4.408l0,0h2.723l0,0v-4.408h7.375v4.408h2.724V42.27H25.948v-4.403l0,0v-2.308
		v-0.483h1.901v-1.759h-1.901v-0.928h1.901v-1.76h-1.901v-0.888h1.901v-1.759h-1.901v-0.928h1.901v-1.76h-1.901v-3
		c1.287,1.118,3.152,1.46,4.802,0.709c1.643-0.749,2.612-2.372,2.621-4.068c1.286,1.107,3.146,1.44,4.79,0.691
		C40.41,18.603,41.407,15.937,40.383,13.687z M32.644,9.518c0.772,1.696,0.021,3.706-1.676,4.479
		c-1.697,0.773-3.706,0.021-4.479-1.675c-0.772-1.697-0.021-3.707,1.675-4.48C29.86,7.069,31.869,7.821,32.644,9.518z
		 M31.819,15.511c0,0.007,0,0.014,0,0.021c-0.005-0.004-0.01-0.009-0.016-0.014L31.819,15.511z M24.404,1.104
		c1.832,0,3.322,1.491,3.322,3.323s-1.49,3.323-3.322,3.323c-1.832,0-3.322-1.491-3.322-3.323S22.573,1.104,24.404,1.104z
		 M16.111,16.761c-0.851,1.659-2.893,2.317-4.553,1.466c-1.659-0.851-2.316-2.893-1.465-4.552c0.851-1.66,2.893-2.317,4.552-1.466
		C16.304,13.06,16.962,15.102,16.111,16.761z M17.034,9.365c0.851-1.659,2.893-2.316,4.552-1.466
		c1.659,0.851,2.316,2.893,1.465,4.553c-0.102,0.199-0.224,0.383-0.358,0.553l-0.079,0.088c-0.994,1.169-2.692,1.555-4.116,0.825
		C16.841,13.067,16.184,11.024,17.034,9.365z M17.595,15.398c-0.005,0.004-0.011,0.008-0.017,0.013c0-0.007,0-0.014,0-0.021
		L17.595,15.398z M18.804,21.943c-1.66-0.851-2.317-2.893-1.466-4.552c0.851-1.659,2.893-2.316,4.552-1.466
		c1.66,0.851,2.317,2.893,1.466,4.552c-0.022,0.043-0.054,0.078-0.078,0.12h-0.052v0.083C22.314,22.181,20.39,22.756,18.804,21.943z
		 M30.291,22c-1.696,0.773-3.705,0.021-4.479-1.675c-0.773-1.697-0.022-3.706,1.675-4.479s3.706-0.021,4.479,1.674
		C32.74,19.217,31.988,21.227,30.291,22z M37.701,18.624c-1.696,0.773-3.706,0.021-4.479-1.675
		c-0.773-1.697-0.022-3.706,1.675-4.479c1.697-0.772,3.706-0.021,4.479,1.675S39.398,17.851,37.701,18.624z"/>
</g>
</svg>