<?xml version="1.0" encoding="iso-8859-1"?>
<!-- Uploaded to: SVG Repo, www.svgrepo.com, Generator: SVG Repo Mixer Tools -->
<!DOCTYPE svg PUBLIC "-//W3C//DTD SVG 1.1//EN" "http://www.w3.org/Graphics/SVG/1.1/DTD/svg11.dtd">
<svg fill="#000000" version="1.1" id="Capa_1" xmlns="http://www.w3.org/2000/svg" xmlns:xlink="http://www.w3.org/1999/xlink" 
	 width="800px" height="800px" viewBox="0 0 49.811 49.811"
	 xml:space="preserve">
<g>
	<g>
		<path d="M34.33,15.187c0.075,0.126,0.131,0.255,0.164,0.394c0.137-0.03,0.281-0.041,0.435-0.04
			c-0.072-0.131-0.126-0.26-0.164-0.394C34.625,15.184,34.479,15.194,34.33,15.187z"/>
		<path d="M24.517,18.628l-0.098-0.065c-0.174,0.023-0.524,0.014-0.848-0.021c-0.323-0.035-0.629-0.042-0.74,0.075
			c0.216,0.146,0.639,0.585,0.894,0.653C24.151,19.358,24.164,18.842,24.517,18.628z"/>
		<path d="M25.416,20.398c0.393-0.069,0.289,0.65-0.066,0.718c-0.017,0.002-0.028,0.003-0.041,0.005
			c-0.431,0.045-0.522-0.542-0.438-0.876l0.007-0.026l-0.007-0.026c-0.087-0.327-0.003-0.921,0.37-0.908
			c0.012,0.001,0.021,0.001,0.036,0.002c0.31,0.042,0.513,0.75,0.121,0.71c0.206,0.241,0.485-0.019,0.554-0.396
			c0.069-0.378-0.049-0.799-0.537-0.951c-0.066-0.02-0.132-0.023-0.198-0.017c-0.542,0.068-1.114,0.894-0.988,1.572
			c-0.204,0.645,0.387,1.591,1.105,1.57c0.081,0,0.165-0.009,0.245-0.034c0.59-0.178,0.615-0.677,0.473-1.013
			C25.903,20.392,25.6,20.139,25.416,20.398z"/>
		<path d="M27.539,18.784c-0.299-0.272-0.639-0.397-0.932-0.248c-0.449,0.213-0.48,0.683-0.337,1.027
			c0.142,0.345,0.47,0.564,0.623,0.294c-0.379,0.097-0.317-0.623-0.024-0.722c0.381-0.149,0.594,0.441,0.575,0.792l-0.002,0.027
			l0.013,0.024c0.154,0.317,0.182,0.944-0.291,0.964c-0.362,0-0.61-0.7-0.209-0.689c-0.231-0.225-0.482,0.062-0.558,0.432
			c-0.071,0.37,0.047,0.821,0.667,0.911c0.404,0.047,0.771-0.244,0.966-0.606c0.2-0.361,0.226-0.836,0.048-1.168
			C28.076,19.437,27.836,19.059,27.539,18.784z"/>
		<path d="M26.123,19.8c-0.061,0.138-0.133,0.265-0.227,0.376c0.109,0.088,0.206,0.194,0.296,0.314
			c0.063-0.139,0.138-0.265,0.228-0.376C26.306,20.027,26.209,19.92,26.123,19.8z"/>
		<path d="M16.87,17.198c-0.139,0.053-0.279,0.088-0.423,0.097c0.01,0.14-0.001,0.283-0.026,0.432
			c0.143-0.049,0.283-0.083,0.422-0.097C16.829,17.486,16.839,17.343,16.87,17.198z"/>
		<path d="M15.143,8.835c-0.075-0.125-0.132-0.254-0.163-0.393c-0.137,0.031-0.283,0.042-0.435,0.04
			c0.072,0.132,0.126,0.26,0.164,0.394C14.847,8.838,14.994,8.829,15.143,8.835z"/>
		<path d="M24.957,5.395l0.097,0.065c0.174-0.023,0.524-0.014,0.848,0.021c0.324,0.035,0.63,0.042,0.741-0.075
			c-0.216-0.146-0.639-0.584-0.895-0.653C25.321,4.665,25.309,5.18,24.957,5.395z"/>
		<path d="M25.246,3.818c0.204-0.645-0.387-1.591-1.105-1.57c-0.082,0-0.164,0.009-0.244,0.035c-0.59,0.177-0.616,0.676-0.473,1.012
			c0.145,0.335,0.45,0.588,0.634,0.329c-0.394,0.069-0.289-0.65,0.066-0.718c0.017-0.002,0.027-0.003,0.042-0.005
			c0.43-0.045,0.522,0.542,0.438,0.876l-0.007,0.026l0.007,0.026c0.087,0.327,0.003,0.921-0.369,0.908
			c-0.012-0.001-0.021-0.001-0.036-0.002c-0.309-0.042-0.514-0.75-0.122-0.71c-0.205-0.241-0.485,0.018-0.553,0.396
			c-0.07,0.378,0.048,0.8,0.536,0.951c0.067,0.02,0.133,0.023,0.199,0.017C24.799,5.322,25.371,4.496,25.246,3.818z"/>
		<path d="M22.58,4.165c0.379-0.096,0.317,0.624,0.024,0.722c-0.379,0.149-0.594-0.441-0.575-0.792l0.002-0.027l-0.013-0.024
			C21.863,3.727,21.836,3.1,22.31,3.08c0.362,0,0.609,0.7,0.207,0.689C22.75,3.994,23,3.707,23.075,3.337
			c0.072-0.369-0.047-0.821-0.667-0.91c-0.404-0.047-0.771,0.244-0.967,0.606C21.24,3.394,21.215,3.868,21.394,4.2
			c0.001,0.386,0.242,0.764,0.538,1.039c0.299,0.273,0.64,0.398,0.933,0.249c0.45-0.213,0.479-0.684,0.337-1.027
			C23.062,4.115,22.733,3.896,22.58,4.165z"/>
		<path d="M23.28,3.532c-0.064,0.139-0.137,0.265-0.228,0.376c0.114,0.088,0.21,0.194,0.296,0.315
			c0.06-0.138,0.134-0.264,0.228-0.377C23.466,3.758,23.371,3.652,23.28,3.532z"/>
		<path d="M36.994,7.356c-0.305-0.247-0.83-0.494-1.205-0.417c0.127-0.421,0.037-1.408-0.623-1.444
			c0.037,0.207,0.129,0.381,0.209,0.56c0.071,0.19,0.129,0.388,0.1,0.616c-0.061,0.471-0.336,0.878-0.753,1.116
			c0.003-0.002,0.069,0.093,0.067,0.094c0.355-0.049,0.586-0.282,0.932-0.352c0.417-0.079,0.601,0.143,1,0.198
			C37.307,7.847,37.301,7.603,36.994,7.356z"/>
		<path d="M32.603,6.825c0.14-0.053,0.278-0.088,0.423-0.098c-0.01-0.139,0.002-0.283,0.027-0.431
			c-0.145,0.049-0.284,0.084-0.424,0.096C32.644,6.536,32.631,6.679,32.603,6.825z"/>
		<path d="M32.992,3.762c-0.209-0.12-0.504-0.159-0.758-0.207c-0.005-0.623-0.421-0.991-1.068-1.074
			c0.49,0.854,0.418,1.464-0.01,2.291l-0.008,0.136c0.258-0.009,0.479-0.504,0.839-0.624c0.183-0.06,0.401-0.063,0.625-0.04
			c0.216,0.037,0.437,0.101,0.632,0.155C33.324,4.085,33.199,3.892,32.992,3.762z"/>
		<path d="M39.457,11.813C39.457,5.299,32.93,0,24.905,0c-8.024,0-14.552,5.299-14.552,11.813c0,5.898,5.359,10.786,12.328,11.66
			c-0.015,0.105-0.032,0.211-0.032,0.321c0,0.847,0.442,1.587,1.106,2.013c0,0,0,1.156,0,1.688s-0.797,0.491-0.797,0.975
			c0,0.484,0.797,0.554,0.797,0.976c0,0.423,0,0.619,0,1.005c0,0.384-0.797,0.491-0.797,0.975c0,0.484,0.797,0.46,0.797,0.976
			c0,0.289,0,5.466,0,9.953h-0.381h-2.736v-1.012l-4.123,0.018v-0.785h-1.111v1.32h4.383v1.572h-4.383v1.33h1.111V44l4.124-0.018
			v-0.738h2.735h0.381c0,1.557,0,2.973,0,4.008h-0.541h-2.576v-0.896l-4.123,0.018v-0.786h-1.111v1.32h4.383v1.573h-4.383v1.33
			h1.111v-0.797l4.124-0.017v-0.854h2.576h0.541c0,0.508,0,0.808,0,0.808h1.365h0.067h1.365c0,0,0-0.3,0-0.808h2.506v0.854
			l4.124,0.017v0.797h1.111v-1.33h-4.383v-1.573h4.383v-1.32h-1.111v0.786l-4.123-0.018v0.896h-2.506c0-1.035,0-2.451,0-4.008h2.666
			v0.738L33.342,44v0.796h1.111v-1.33H30.07v-1.573h4.383v-1.319h-1.111v0.786l-4.122-0.019v1.013h-2.666c0-4.488,0-9.666,0-9.955
			c0-0.515,0.797-0.49,0.797-0.975s-0.797-0.591-0.797-0.975c0-0.385,0-0.583,0-1.004c0-0.422,0.797-0.491,0.797-0.977
			c0-0.484-0.797-0.443-0.797-0.975c0-0.532,0-1.688,0-1.688c0.663-0.427,1.106-1.167,1.106-2.014c0-0.115-0.019-0.226-0.035-0.337
			h-0.367C34.164,22.539,39.457,17.674,39.457,11.813z M14.809,4.799c-0.096,0.294-0.138,0.638-0.041,0.888
			c-0.225-0.027-0.565,0.004-0.857,0.129c-0.069,0.033-0.134,0.073-0.193,0.119C14.049,5.537,14.415,5.158,14.809,4.799z
			 M12.001,14.716c-0.261-0.735-0.428-1.501-0.485-2.291c0.008,0.092,0.018,0.185,0.045,0.275c0.118,0.431,0.364,0.638,0.605,0.708
			c0.24,0.07,0.485,0.007,0.688-0.105c0.206-0.113,0.359-0.271,0.438-0.427c0.085-0.156,0.077-0.307-0.085-0.425
			c0.101,0.502-0.788,0.419-0.889-0.083c-0.029-0.143-0.011-0.262,0.036-0.357c0.201-0.334,0.736-0.354,1.056-0.253
			c0.208,0.064,0.342,0.153,0.436,0.253c0.292,0.259,0.271,0.639,0.556,0.905c0.065,0.059,0.15,0.112,0.244,0.154
			c-0.34,0.003-0.72-0.128-0.928-0.385c-0.148,0.306-0.303,0.545-0.556,0.782c0.315,0.119,0.568,0.271,0.823,0.496
			c0.095-0.332,0.389-0.602,0.727-0.733c-0.084,0.084-0.152,0.178-0.195,0.27c-0.092,0.242-0.046,0.488-0.07,0.73
			c-0.029,0.246-0.062,0.47-0.373,0.729c-0.321,0.282-1.091,0.513-1.249-0.127c-0.099-0.5,0.687-0.932,0.785-0.428
			c0.217-0.343-0.22-0.582-0.664-0.639C12.524,13.715,11.966,13.925,12.001,14.716z M13.642,17.595
			c-0.147-0.18-0.288-0.365-0.421-0.553c0.163,0.044,0.323,0.07,0.462,0.042C13.644,17.214,13.628,17.401,13.642,17.595z
			 M16.985,20.419c0.085,0.016,0.171,0.034,0.251,0.049c0,0.034,0.007,0.065,0.009,0.099C17.16,20.518,17.073,20.469,16.985,20.419z
			 M21.766,21.521c-0.441-0.155-0.435-1.052,0.048-0.889c-0.185-0.348-0.611-0.113-0.863,0.266c-0.206,0.312-0.282,0.79,0.112,1.138
			c-0.415-0.099-0.82-0.213-1.217-0.342c0.514-0.105,0.687-0.542,0.672-0.917c-0.021-0.461-0.272-0.862-0.606-0.667
			c0.495,0.112,0.044,0.884-0.417,0.786c-0.134-0.028-0.228-0.089-0.293-0.169c-0.227-0.276-0.065-0.789,0.141-1.056
			c0.135-0.176,0.269-0.276,0.405-0.333c0.355-0.16,0.712,0.022,1.101-0.122c0.086-0.03,0.176-0.081,0.261-0.143
			c-0.159,0.31-0.447,0.562-0.778,0.665c0.231,0.242,0.369,0.514,0.462,0.838c0.248-0.233,0.501-0.38,0.829-0.484
			c-0.244-0.251-0.354-0.646-0.323-1c0.042,0.114,0.1,0.219,0.167,0.299c0.371,0.411,0.976,0.369,1.061,1.159
			C22.58,20.976,22.344,21.731,21.766,21.521z M23.683,22.439c0.115-0.099,0.212-0.211,0.27-0.331
			c0.075,0.117,0.201,0.249,0.348,0.365C24.092,22.466,23.888,22.454,23.683,22.439z M28.217,22.155
			c0.158-0.075,0.316-0.179,0.46-0.277c0.051,0.052,0.106,0.098,0.161,0.138C28.633,22.066,28.427,22.113,28.217,22.155z
			 M29.746,21.763c-0.621-0.302-0.922-0.796-1.129-1.522l-0.088-0.102c-0.179,0.191,0,0.702-0.174,1.044
			c-0.179,0.334-0.619,0.578-0.963,0.783c0.1,0.172,0.225,0.249,0.355,0.275c-0.832,0.144-1.694,0.225-2.579,0.238
			c-0.286-0.121-0.593-0.152-0.836-0.438c-0.304-0.351-0.448-0.825-0.375-1.298l-0.116-0.004c-0.181,0.321-0.139,0.643-0.289,0.965
			c-0.18,0.377-0.439,0.388-0.694,0.657c-0.208-0.025-0.415-0.056-0.621-0.088c0.241-0.087,0.468-0.228,0.648-0.412
			c0.401-0.408,0.58-0.99,0.394-1.471c0.214,0.353,0.63-0.003,0.381-0.438c-0.199-0.378-0.766-0.278-1.013-0.484
			c0.25,0.029,0.223-0.011,0.338-0.208c-0.29-0.177-0.596-0.222-0.862-0.321c-0.265-0.096-0.48-0.268-0.522-0.759
			c-0.022,0.004-0.084-0.007-0.134-0.021c-0.049-0.014-0.108-0.037-0.125-0.052c-0.425,0.585-0.807,0.4-1.23,0.29
			c-0.159-0.033-0.32-0.068-0.499-0.067c-0.005,0.227-0.052,0.252,0.178,0.349c-0.318,0.056-0.739-0.33-1.106-0.111
			c-0.439,0.237-0.278,0.76,0.09,0.572c-0.332,0.254-0.5,0.69-0.478,1.146c0.016,0.331,0.135,0.695,0.346,0.964
			c-0.2-0.084-0.397-0.171-0.59-0.263c-0.187-0.59-0.071-1.099,0.259-1.734l0.007-0.137c-0.257,0.009-0.479,0.504-0.84,0.624
			c-0.182,0.06-0.4,0.062-0.624,0.04c-0.216-0.037-0.436-0.102-0.631-0.155c-0.032,0.125-0.024,0.229,0.002,0.319
			c-0.743-0.502-1.417-1.067-2.008-1.686c-0.039-0.098-0.084-0.192-0.127-0.288c-0.07-0.191-0.127-0.388-0.098-0.616
			c0.061-0.471,0.336-0.878,0.753-1.116c-0.002,0.002-0.069-0.093-0.067-0.094c-0.355,0.049-0.586,0.282-0.931,0.352
			c-0.417,0.079-0.601-0.142-1-0.198c-0.005,0-0.009,0-0.015-0.002c-0.14-0.239-0.269-0.482-0.386-0.729
			c0.021,0.021,0.039,0.044,0.061,0.063c0.225,0.206,0.498,0.347,0.782,0.403c0.591,0.1,1.165-0.119,1.435-0.546
			c-0.139,0.372,0.372,0.494,0.58,0.029c0.092-0.191,0.035-0.371-0.046-0.543c-0.07-0.177-0.142-0.356-0.117-0.505
			c0.097,0.206,0.12,0.167,0.329,0.146c0.134,0.211,0.285,0.414,0.452,0.604c0.017,0.024,0.035,0.045,0.056,0.061
			c0.112,0.125,0.23,0.245,0.355,0.36c-0.335,0.063-0.69,0.209-0.897,0.462c-0.313,0.137-0.563,0.446-0.662,0.815
			c-0.05,0.183-0.064,0.38-0.037,0.57c0.038,0.179,0.118,0.348,0.24,0.483c0.057,0.063,0.121,0.12,0.195,0.165
			c0.554,0.322,0.93-0.011,1.074-0.345c0.143-0.34,0.11-0.714-0.194-0.681c0.31,0.24-0.281,0.657-0.576,0.433
			c-0.012-0.011-0.021-0.018-0.031-0.028c-0.328-0.297,0.056-0.749,0.363-0.906l0.025-0.013l0.018-0.025
			c0.189-0.277,0.694-0.607,0.915-0.34c0.007,0.009,0.013,0.016,0.021,0.026c0.159,0.243-0.221,0.876-0.448,0.565
			c-0.051,0.319,0.341,0.329,0.657,0.117c0.188-0.125,0.338-0.309,0.393-0.524c0.132,0.076,0.269,0.147,0.408,0.215
			c-0.26,0.064-0.456,0.271-0.563,0.51c-0.157,0.342-0.088,0.732,0.222,0.633c-0.347-0.175,0.218-0.653,0.49-0.531
			c0.356,0.162,0.096,0.737-0.159,0.974l-0.02,0.018l-0.009,0.027c-0.112,0.338-0.527,0.804-0.875,0.473
			c-0.266-0.252,0.048-0.904,0.337-0.636c-0.018-0.306-0.388-0.283-0.704-0.083c-0.309,0.198-0.568,0.62-0.17,1.115
			c0.271,0.309,0.717,0.405,1.127,0.253c0.406-0.136,0.742-0.45,0.845-0.817c0.262-0.276,0.356-0.729,0.329-1.114
			c-0.02-0.187-0.057-0.368-0.128-0.514c0.01,0.003,0.021,0.006,0.03,0.01c0.113,0.063,0.232,0.122,0.35,0.182
			c-0.025,0.008-0.053,0.006-0.076,0.02c0.158,0.237,0.241,0.736,0.192,1.091c0.399-0.298,1.076-0.532,1.372-0.368l0.04-0.1
			c1.324,0.448,2.816,0.706,4.4,0.706c1.11,0,2.171-0.13,3.167-0.358c-0.216,0.081-0.391,0.18-0.439,0.326
			c0.295,0.086,0.694,0.35,0.905,0.646c0.041-0.237,0.158-0.51,0.296-0.741c0.135-0.24,0.295-0.425,0.467-0.457l-0.043-0.106
			c0.336-0.112,0.66-0.233,0.972-0.369c0.05,0.63-0.319,0.794-0.699,0.979c-0.144,0.072-0.286,0.157-0.413,0.292
			c0.15,0.167,0.133,0.212,0.367,0.125c-0.096,0.129-0.288,0.205-0.469,0.296c-0.186,0.077-0.358,0.174-0.42,0.377
			c-0.156,0.484,0.315,0.734,0.461,0.366c-0.071,0.405,0.105,0.839,0.435,1.165c0.323,0.329,0.786,0.501,1.238,0.472
			C30.291,21.587,30.021,21.678,29.746,21.763z M24.854,16.081c1.015,0.61,2.261,0.975,3.61,0.975c0.429,0,0.846-0.037,1.25-0.105
			c-1.438,0.602-3.147,0.956-4.984,0.956c-1.398,0-2.719-0.208-3.906-0.571C22.367,17.335,23.775,16.858,24.854,16.081z
			 M24.792,14.648c-0.818-0.696-1.322-1.62-1.322-2.637c0-0.886,0.383-1.701,1.022-2.357c0.817,0.695,1.321,1.62,1.321,2.637
			C25.813,13.177,25.43,13.993,24.792,14.648z M28.465,15.917c-1.002,0-1.936-0.234-2.719-0.633
			c0.756-0.838,1.207-1.872,1.207-2.992c0-1.287-0.594-2.459-1.562-3.351c0.85-0.521,1.915-0.833,3.074-0.833
			c2.756,0,4.996,1.751,4.996,3.905C33.461,14.165,31.221,15.917,28.465,15.917z M28.465,6.966c-1.545,0-2.955,0.477-4.036,1.256
			c-1.014-0.611-2.26-0.976-3.611-0.976c-0.829,0-1.619,0.138-2.341,0.384c1.643-0.988,3.837-1.598,6.253-1.598
			c1.995,0,3.839,0.417,5.349,1.117C29.562,7.034,29.023,6.966,28.465,6.966z M20.817,8.386c1.003,0,1.937,0.235,2.72,0.634
			c-0.755,0.838-1.207,1.871-1.207,2.992c0,1.287,0.594,2.459,1.562,3.351c-0.85,0.521-1.915,0.833-3.075,0.833
			c-2.754,0-4.995-1.752-4.995-3.905S18.062,8.386,20.817,8.386z M31.274,19.87c-0.336-0.331-0.799-0.464-0.901-0.075
			c0.43-0.275,0.631,0.605,0.23,0.864c-0.117,0.071-0.23,0.083-0.333,0.067c-0.36-0.06-0.588-0.543-0.619-0.879
			c-0.021-0.219,0.013-0.38,0.074-0.51c0.165-0.326,0.521-0.5,0.72-0.837c0.045-0.077,0.076-0.173,0.096-0.274
			c0.098,0.334,0.054,0.698-0.119,1.001c0.332,0.016,0.632,0.146,0.918,0.309c0.021-0.339,0.088-0.647,0.263-0.93
			c-0.36-0.033-0.694-0.216-0.917-0.5c0.107,0.052,0.219,0.085,0.318,0.096c0.563,0.064,0.94-0.403,1.561,0.1
			c0.346,0.271,0.7,0.956,0.141,1.238c-0.431,0.208-1.057-0.468-0.584-0.667c-0.377-0.126-0.533,0.318-0.449,0.782
			c0.086,0.459,0.436,0.918,1.233,0.685c0.103-0.039,0.189-0.101,0.275-0.163c-0.634,0.398-1.296,0.769-2.017,1.072
			C31.783,20.735,31.603,20.198,31.274,19.87z M34.703,19.091c0.065-0.26,0.084-0.542,0.002-0.755
			c0.225,0.027,0.565-0.004,0.857-0.129c0.061-0.03,0.118-0.066,0.172-0.106C35.414,18.447,35.07,18.778,34.703,19.091z
			 M34.926,17.993c-0.477,0.005-0.924-0.208-1.223-0.583l-0.08,0.083c0.112,0.353,0.377,0.545,0.502,0.87
			c0.146,0.394-0.039,0.601-0.022,0.994c0,0.08,0.006,0.146,0.013,0.204c-0.261,0.197-0.551,0.367-0.83,0.547
			c0.313-0.276,0.494-0.7,0.479-1.141c-0.006-0.584-0.311-1.114-0.781-1.313c0.395,0.08,0.439-0.44-0.059-0.574
			c-0.418-0.13-0.692,0.37-1.034,0.364c0.2-0.141,0.157-0.147,0.092-0.368c-0.333,0.055-0.567,0.242-0.813,0.36
			c-0.239,0.09-0.498,0.096-0.817-0.155c0.378-0.179,0.735-0.375,1.073-0.588c-0.002,0.008-0.008,0.018-0.008,0.025
			c0.266-0.015,0.824-0.028,1.051-0.149c0.258-0.169,0.113-0.417,0.045-0.688c0.1-0.087,0.205-0.173,0.298-0.265
			c0.013,0.124,0.036,0.253,0.071,0.382c0.104,0.333,0.307,0.679,0.601,0.852c0.181,0.288,0.526,0.488,0.909,0.536
			c0.388,0.06,0.77-0.083,1.012-0.361c0.055-0.066,0.104-0.137,0.139-0.217c0.215-0.622-0.152-0.923-0.516-1.015
			c-0.373-0.094-0.711,0.007-0.636,0.301c0.179-0.349,0.7,0.182,0.514,0.501c-0.009,0.014-0.016,0.023-0.024,0.035
			c-0.252,0.365-0.756,0.051-0.955-0.229l-0.016-0.022l-0.025-0.012c-0.303-0.148-0.702-0.597-0.469-0.845
			c0.008-0.008,0.014-0.015,0.022-0.024c0.222-0.184,0.888,0.084,0.628,0.359c0.327,0.004,0.25-0.397,0-0.661
			c-0.146-0.157-0.354-0.277-0.57-0.304c0.075-0.089,0.145-0.182,0.213-0.274c0.131,0.16,0.318,0.272,0.52,0.324
			c0.365,0.101,0.707-0.05,0.564-0.321c-0.111,0.359-0.684-0.105-0.617-0.37c0.097-0.344,0.668-0.229,0.974-0.03l0.022,0.016
			l0.026,0.002c0.335,0.028,0.931,0.347,0.651,0.756c-0.209,0.313-0.909,0.118-0.693-0.207c-0.312,0.065-0.189,0.434,0.057,0.708
			c0.248,0.268,0.707,0.461,1.121-0.051c0.293-0.325,0.242-0.825,0.022-1.189c-0.212-0.367-0.604-0.604-0.985-0.612
			c-0.306-0.164-0.715-0.155-1.067-0.085c0.048-0.121,0.086-0.245,0.124-0.37c0.137-0.049,0.279-0.092,0.416-0.11
			c-0.114-0.077-0.221-0.177-0.323-0.283c0.049-0.256,0.082-0.516,0.082-0.783c0-0.035-0.005-0.069-0.007-0.104
			c0.007,0.035,0.012,0.069,0.02,0.104c0.006,0.141,0.026,0.285,0.1,0.437c0.214-0.062,0.248-0.031,0.263-0.259
			c0.08,0.126,0.069,0.316,0.084,0.503c0.01,0.187,0.003,0.367,0.163,0.509c0.363,0.352,0.797,0.051,0.535-0.239
			c0.33,0.235,0.797,0.278,1.24,0.105c0.424-0.168,0.791-0.568,0.939-1.057c0.044-0.223,0.041-0.461-0.027-0.688
			c-0.119-0.431-0.365-0.639-0.605-0.708c-0.239-0.07-0.485-0.007-0.688,0.105c-0.207,0.113-0.359,0.272-0.438,0.427
			c-0.085,0.155-0.077,0.307,0.085,0.424c-0.102-0.502,0.788-0.418,0.888,0.083c0.029,0.143,0.013,0.262-0.036,0.357
			c-0.199,0.334-0.736,0.354-1.056,0.253c-0.208-0.064-0.343-0.153-0.437-0.253c-0.291-0.258-0.271-0.639-0.555-0.905
			c-0.064-0.059-0.15-0.111-0.244-0.153c0.34-0.003,0.721,0.128,0.928,0.386c0.147-0.307,0.303-0.546,0.557-0.782
			c-0.316-0.119-0.568-0.271-0.824-0.496c-0.095,0.332-0.389,0.603-0.727,0.733c0.084-0.084,0.152-0.178,0.195-0.27
			c0.092-0.242,0.045-0.488,0.069-0.73c0.029-0.245,0.062-0.47,0.373-0.728c0.321-0.283,1.091-0.514,1.249,0.126
			c0.1,0.5-0.688,0.932-0.785,0.429c-0.217,0.342,0.219,0.582,0.664,0.639c0.443,0.05,1.043-0.175,0.943-1.065
			c-0.025-0.317-0.176-0.6-0.408-0.8c-0.225-0.206-0.498-0.348-0.782-0.402c-0.592-0.1-1.165,0.118-1.435,0.545
			c0.139-0.372-0.372-0.494-0.581-0.028c-0.091,0.191-0.034,0.371,0.046,0.542c0.068,0.177,0.143,0.357,0.117,0.506
			c-0.1-0.209-0.119-0.167-0.34-0.144c-0.023,0.324,0.145,0.553,0.16,0.81c0.004,0.043,0.006,0.086,0.006,0.129
			c-0.143-0.334-0.326-0.65-0.545-0.948c0.002-0.009,0.004-0.018,0.006-0.027c0.015-0.191,0.016-0.388-0.026-0.499
			c-0.086-0.234-0.288-0.2-0.515-0.163c-0.088-0.102-0.178-0.203-0.275-0.302c0.096,0.002,0.195-0.003,0.3-0.02
			c0.345-0.058,0.72-0.208,0.935-0.47c0.313-0.137,0.562-0.446,0.662-0.815c0.051-0.183,0.063-0.381,0.037-0.57
			c-0.039-0.179-0.119-0.348-0.24-0.483c-0.057-0.063-0.121-0.12-0.196-0.165c-0.554-0.322-0.929,0.011-1.072,0.345
			c-0.144,0.339-0.11,0.714,0.193,0.681c-0.31-0.241,0.28-0.657,0.575-0.433c0.013,0.011,0.021,0.019,0.031,0.028
			c0.328,0.297-0.055,0.748-0.363,0.906l-0.022,0.012l-0.015,0.022c-0.189,0.277-0.693,0.607-0.914,0.34
			c-0.008-0.009-0.014-0.015-0.021-0.026c-0.16-0.242,0.221-0.875,0.447-0.564c0.053-0.32-0.341-0.329-0.656-0.117
			c-0.229,0.152-0.404,0.393-0.414,0.672c-0.152-0.119-0.309-0.234-0.473-0.346c0.303-0.035,0.527-0.263,0.648-0.527
			c0.156-0.342,0.088-0.733-0.224-0.633c0.347,0.175-0.217,0.653-0.489,0.531c-0.356-0.162-0.096-0.737,0.16-0.974l0.021-0.018
			l0.008-0.025c0.112-0.338,0.526-0.805,0.875-0.474c0.267,0.252-0.048,0.904-0.338,0.636c0.019,0.307,0.389,0.283,0.703,0.083
			c0.309-0.197,0.569-0.619,0.17-1.114c-0.271-0.309-0.718-0.405-1.126-0.254c-0.406,0.136-0.741,0.451-0.846,0.818
			c-0.262,0.276-0.355,0.729-0.33,1.114c0.019,0.152,0.052,0.296,0.1,0.425c-0.093-0.053-0.189-0.102-0.287-0.152
			c-0.148-0.246-0.227-0.72-0.18-1.064c-0.397,0.299-1.075,0.533-1.371,0.368L29.17,6.181c-0.328-0.112-0.668-0.211-1.017-0.298
			c0.413-0.538,0.787-0.363,1.202-0.255c0.159,0.034,0.32,0.068,0.499,0.066c0.005-0.226,0.052-0.251-0.178-0.349
			c0.317-0.056,0.739,0.33,1.106,0.111c0.438-0.237,0.276-0.76-0.091-0.572c0.332-0.254,0.5-0.689,0.478-1.145
			c-0.022-0.445-0.229-0.952-0.599-1.206c-0.168-0.122-0.364-0.205-0.577-0.228c-0.809-0.067-1.057,0.486-1.039,0.94
			c0.021,0.461,0.271,0.862,0.605,0.668c-0.496-0.112-0.044-0.884,0.417-0.786c0.133,0.028,0.229,0.089,0.293,0.169
			c0.228,0.275,0.065,0.789-0.142,1.055c-0.135,0.176-0.27,0.276-0.403,0.333c-0.354,0.16-0.712-0.022-1.103,0.122
			c-0.086,0.03-0.176,0.08-0.261,0.143c0.159-0.31,0.447-0.563,0.778-0.666c-0.23-0.242-0.369-0.514-0.462-0.838
			c-0.248,0.233-0.501,0.379-0.829,0.484c0.244,0.251,0.355,0.646,0.322,1.001c-0.041-0.114-0.1-0.219-0.166-0.299
			c-0.371-0.41-0.977-0.369-1.062-1.159c-0.052-0.428,0.183-1.183,0.761-0.973c0.441,0.156,0.435,1.052-0.047,0.889
			c0.184,0.347,0.61,0.112,0.862-0.266c0.248-0.375,0.317-0.995-0.409-1.336c-0.256-0.123-0.541-0.137-0.809-0.073
			c-0.27,0.082-0.522,0.242-0.721,0.445c-0.401,0.408-0.58,0.991-0.396,1.472c-0.213-0.352-0.629,0.003-0.38,0.438
			c0.2,0.378,0.766,0.278,1.013,0.485c-0.251-0.03-0.223,0.01-0.338,0.207c0.291,0.178,0.598,0.222,0.861,0.322
			c0.26,0.093,0.467,0.265,0.517,0.727c-0.983-0.223-2.034-0.35-3.131-0.35c-0.992,0-1.948,0.101-2.852,0.285
			c0.063-0.049,0.115-0.103,0.136-0.168c-0.295-0.085-0.694-0.349-0.904-0.645c-0.042,0.237-0.158,0.51-0.296,0.741
			c-0.135,0.241-0.295,0.425-0.467,0.457l0.011,0.028c-0.322,0.111-0.638,0.23-0.941,0.362c-0.009-0.558,0.341-0.715,0.702-0.892
			c0.143-0.072,0.286-0.157,0.412-0.292c-0.15-0.167-0.132-0.213-0.366-0.125c0.096-0.13,0.288-0.206,0.468-0.297
			c0.186-0.077,0.36-0.174,0.421-0.377c0.156-0.484-0.317-0.734-0.461-0.366c0.071-0.405-0.106-0.839-0.435-1.166
			c-0.327-0.333-0.799-0.506-1.255-0.471c-0.21,0.013-0.41,0.085-0.578,0.227c-0.639,0.517-0.456,1.061-0.125,1.393
			c0.336,0.331,0.798,0.463,0.902,0.075c-0.43,0.275-0.63-0.604-0.231-0.864c0.115-0.071,0.23-0.083,0.333-0.066
			c0.359,0.06,0.588,0.542,0.619,0.879c0.02,0.218-0.012,0.379-0.073,0.509c-0.165,0.326-0.522,0.5-0.72,0.837
			c-0.044,0.078-0.076,0.174-0.096,0.275C18.834,5.463,18.878,5.1,19.05,4.797c-0.332-0.016-0.632-0.146-0.918-0.309
			c-0.021,0.34-0.089,0.648-0.263,0.93c0.361,0.033,0.696,0.216,0.918,0.5c-0.107-0.051-0.218-0.085-0.32-0.095
			c-0.562-0.064-0.94,0.403-1.559-0.099c-0.345-0.272-0.7-0.957-0.141-1.239c0.43-0.207,1.056,0.469,0.583,0.667
			c0.377,0.126,0.533-0.318,0.449-0.782c-0.086-0.459-0.435-0.919-1.233-0.686c-0.546,0.206-0.88,0.776-0.858,1.372
			c0.006,0.585,0.309,1.114,0.781,1.313c-0.394-0.08-0.439,0.44,0.059,0.574c0.417,0.131,0.693-0.37,1.035-0.364
			c-0.2,0.141-0.157,0.146-0.093,0.368c0.334-0.055,0.567-0.242,0.813-0.36c0.221-0.083,0.458-0.091,0.745,0.103
			c-0.397,0.188-0.773,0.395-1.121,0.621c-0.288,0.014-0.726,0.038-0.923,0.142c-0.234,0.154-0.137,0.372-0.067,0.612
			c-0.096,0.085-0.196,0.167-0.286,0.255c-0.015-0.097-0.034-0.196-0.061-0.296c-0.103-0.333-0.306-0.679-0.6-0.852
			c-0.181-0.288-0.526-0.487-0.908-0.535c-0.389-0.059-0.771,0.083-1.012,0.361c-0.056,0.065-0.105,0.137-0.139,0.217
			c-0.217,0.622,0.151,0.923,0.514,1.014c0.373,0.093,0.712-0.008,0.636-0.301c-0.178,0.349-0.701-0.181-0.514-0.501
			c0.009-0.014,0.015-0.023,0.023-0.035c0.253-0.365,0.757-0.051,0.957,0.229l0.015,0.022l0.025,0.012
			c0.304,0.147,0.703,0.597,0.469,0.845c-0.008,0.008-0.014,0.015-0.024,0.025c-0.22,0.183-0.886-0.084-0.627-0.359
			c-0.326-0.005-0.25,0.397,0,0.661c0.143,0.152,0.344,0.271,0.555,0.302c-0.066,0.091-0.138,0.181-0.199,0.274
			c-0.129-0.158-0.317-0.27-0.517-0.322c-0.366-0.101-0.707,0.05-0.563,0.321c0.11-0.359,0.682,0.105,0.616,0.37
			c-0.097,0.344-0.668,0.228-0.975,0.03L14.3,9.786l-0.027-0.002c-0.336-0.028-0.929-0.346-0.651-0.756
			c0.21-0.313,0.908-0.118,0.693,0.206c0.313-0.064,0.19-0.434-0.057-0.708c-0.248-0.268-0.707-0.461-1.12,0.052
			c-0.293,0.324-0.244,0.824-0.023,1.188c0.212,0.367,0.605,0.604,0.985,0.613c0.286,0.152,0.662,0.154,0.999,0.097
			c-0.061,0.131-0.119,0.264-0.167,0.399c-0.102,0.031-0.205,0.057-0.303,0.07c0.078,0.053,0.15,0.121,0.222,0.189
			c-0.042,0.145-0.075,0.293-0.101,0.443c-0.206,0.058-0.24,0.032-0.256,0.256c-0.08-0.126-0.07-0.316-0.084-0.503
			c-0.01-0.187-0.003-0.367-0.163-0.509c-0.363-0.352-0.797-0.051-0.534,0.239c-0.331-0.235-0.798-0.277-1.241-0.105
			c-0.425,0.169-0.792,0.568-0.94,1.057c-0.02,0.097-0.025,0.197-0.025,0.297c-0.01-0.165-0.016-0.33-0.016-0.496
			c0-0.227,0.012-0.452,0.029-0.674c0.081-0.086,0.162-0.162,0.244-0.227c0.172-0.123,0.348-0.207,0.527-0.26
			c0.359-0.106,0.74-0.086,1.194,0.003l0.13-0.031c-0.086-0.246-0.631-0.329-0.837-0.658c-0.185-0.324-0.2-0.885-0.145-1.302
			c-0.68-0.029-0.644,0.722-0.625,1.26c-0.13,0.045-0.246,0.113-0.348,0.196c0.286-1.416,0.921-2.739,1.835-3.913
			C13.453,6.3,13.42,6.4,13.428,6.512c0.406-0.128,0.644-0.489,1.12-0.482c0.476-0.004,0.923,0.208,1.221,0.584L15.85,6.53
			c-0.113-0.353-0.379-0.544-0.502-0.869c-0.146-0.394,0.039-0.602,0.022-0.994c-0.002-0.144-0.016-0.246-0.037-0.319
			c1.144-0.929,2.5-1.692,4.005-2.241c0.897,0.271,1.271,0.811,1.517,1.674l0.088,0.103c0.179-0.192,0-0.703,0.174-1.045
			c0.18-0.334,0.619-0.578,0.963-0.783c-0.323-0.552-0.865-0.2-1.284,0.087c-0.182-0.181-0.392-0.286-0.613-0.318
			c1.47-0.442,3.062-0.686,4.723-0.686c0.528,0,1.048,0.027,1.56,0.075c-0.334,0.098-0.785,0.368-0.944,0.701
			c-0.24-0.375-0.971-0.928-1.41-0.472c0.332,0.222,0.729,0.186,1.027,0.538c0.304,0.35,0.448,0.825,0.375,1.298l0.116,0.004
			c0.18-0.321,0.139-0.643,0.289-0.965c0.183-0.385,0.449-0.387,0.707-0.672c0.188-0.196,0.244-0.321,0.224-0.394
			c6.478,0.751,11.47,5.2,11.47,10.56c0,0.436-0.037,0.864-0.102,1.286c0.013-0.152,0.002-0.315-0.04-0.488
			c-0.156,0.212-0.312,0.376-0.472,0.501c-0.172,0.123-0.347,0.207-0.525,0.26c-0.36,0.106-0.74,0.086-1.194-0.003l-0.131,0.031
			c0.086,0.246,0.632,0.329,0.838,0.657c0.185,0.325,0.2,0.886,0.146,1.302c0.68,0.029,0.644-0.721,0.623-1.26
			c0.386-0.136,0.656-0.45,0.734-0.865c-0.285,1.699-1.072,3.272-2.242,4.622c0.06-0.102,0.099-0.215,0.092-0.344
			C35.639,17.638,35.4,17.999,34.926,17.993z"/>
	</g>
</g>
</svg>