<?xml version="1.0" encoding="iso-8859-1"?>
<!-- Uploaded to: SVG Repo, www.svgrepo.com, Generator: SVG Repo Mixer Tools -->
<!DOCTYPE svg PUBLIC "-//W3C//DTD SVG 1.1//EN" "http://www.w3.org/Graphics/SVG/1.1/DTD/svg11.dtd">
<svg fill="#000000" version="1.1" id="Capa_1" xmlns="http://www.w3.org/2000/svg" xmlns:xlink="http://www.w3.org/1999/xlink" 
	 width="800px" height="800px" viewBox="0 0 49.822 49.822"
	 xml:space="preserve">
<g>
	<path d="M39.228,15.836V9.33h-7.564L31.661,0h-6.505v5.59h2.361v1.945H24.9h-2.616V5.59h2.361V0H18.14v9.329L10.595,9.33v6.506
		h5.591v-2.361h1.944v2.898h-7.535v6.542h5.591v-2.359h1.944v4.721h1.823V25.27h2.292v-0.855v-0.936v-2.966h1.273v5.411h-0.823v1.47
		h0.823v0.582h-0.823v1.469h0.823v3.502v2.361v4.504h-9.75v7.295h2.785v-4.51h6.965V43.7v1.667h-5.092v4.455h2.786v-1.67h2.307v1.67
		h2.785v-1.67h2.309v1.67h2.785v-4.455h-5.094V43.7v-1.104h6.965v4.51h2.785v-7.295h-9.75v-4.504v-2.361v-3.502h0.841v-1.469h-0.841
		v-0.582h0.841v-1.47h-0.841v-5.411h1.176v2.966h-0.006v1.792h2.396v0.008h1.822v-4.721h1.945v2.359h5.59v-6.542h-7.535v-2.898
		h1.945v2.361H39.228z M26.304,18.72v-5.081h-2.785v5.081h-1.274v-6.178h5.234v6.178H26.304z M29.868,11.652v6.543h7.537v2.897
		H35.46l0.001-2.359h-5.593v4.745h-0.566V10.75h-0.203h-1.619h-7.057v0.04v1.752v6.178v1.792v2.966h-0.47v-4.745h-5.591l0.001,2.359
		h-1.946v-2.897h7.536v-6.543h-5.59l-0.001,2.36h-1.945v-2.861h7.547V9.329h-0.002V1.823h2.861l-0.001,1.945h-2.359v5.59h4.438
		h4.439v-5.59h-2.361V1.823h2.862V9.37h0.018v1.782h7.547v2.861h-1.943l-0.001-2.36L29.868,11.652L29.868,11.652z"/>
</g>
</svg>