<?xml version="1.0" encoding="iso-8859-1"?>
<!-- Uploaded to: SVG Repo, www.svgrepo.com, Generator: SVG Repo Mixer Tools -->
<!DOCTYPE svg PUBLIC "-//W3C//DTD SVG 1.1//EN" "http://www.w3.org/Graphics/SVG/1.1/DTD/svg11.dtd">
<svg fill="#000000" version="1.1" id="Capa_1" xmlns="http://www.w3.org/2000/svg" xmlns:xlink="http://www.w3.org/1999/xlink" 
	 width="800px" height="800px" viewBox="0 0 49.771 49.771"
	 xml:space="preserve">
<g>
	<path d="M26.462,38.361h-0.029V27.004c0.302-0.221,0.49-0.509,0.49-0.828c0-0.134-0.041-0.26-0.102-0.382
		c0.37-0.276,0.602-0.636,0.602-1.031c0-0.329-0.154-0.634-0.416-0.887c0.825-0.401,1.369-1.038,1.369-1.763
		c0-0.361-0.146-0.643-0.383-0.872c6.098-1.106,10.659-5.378,10.659-10.477C38.653,4.829,32.476,0,24.887,0
		c-7.592,0-13.768,4.829-13.768,10.764c0,5.154,4.66,9.47,10.859,10.517c-0.211,0.223-0.338,0.493-0.338,0.832
		c0,0.725,0.543,1.361,1.37,1.763c-0.263,0.253-0.418,0.558-0.418,0.887c0,0.396,0.231,0.754,0.602,1.031
		c-0.06,0.122-0.101,0.248-0.101,0.382c0,0.338,0.206,0.643,0.538,0.866v11.319h-1.566v9.24h1.566v2.17h2.802v-2.17h0.028h10.396
		v-1.177h-5.104v-1.815h-1.96v-0.754h-1.568v-1.746h1.568v-0.754h1.96v-1.403h5.104v-1.55H26.462V38.361z M21.936,17.589
		l0.036-0.069l0.014,0.007l-0.033,0.067c-0.006,0.014-0.004,0.024-0.008,0.038c-0.012-0.003-0.023-0.005-0.034-0.008
		C21.918,17.612,21.928,17.602,21.936,17.589z M22.096,17.65c0.002,0.006,0.01,0.013,0.013,0.021
		c-0.005-0.001-0.009-0.002-0.014-0.003C22.094,17.663,22.097,17.654,22.096,17.65z M22.268,17.416
		c-0.012-0.124,0.004-0.228,0.031-0.319l0.065-0.129c0.022-0.04,0.04-0.087,0.066-0.12c-0.078,0.244,0.043,0.439,0.168,0.405
		c0.149-0.036,0.182-0.204,0.16-0.268c0.056,0.042,0.127-0.001,0.164-0.045c0.047-0.057,0.083-0.129-0.002-0.263
		c-0.169-0.221-0.131-0.324-0.133-0.413c0-0.091,0.08-0.096,0.068-0.021c0.008,0.257,0.112,0.299,0.184,0.308
		c0.074,0.008,0.164-0.079,0.158-0.163c0.106,0.073,0.2,0.079,0.296-0.021c0.112-0.131,0.041-0.239-0.128-0.31
		c0.132-0.029,0.146-0.18-0.015-0.239c-0.233-0.092-0.222-0.143-0.263-0.224c-0.011-0.02-0.004-0.031-0.005-0.048l0.019-0.038
		c0.006,0.004,0.012-0.007,0.018,0.007c0.071,0.16,0.223,0.198,0.291,0.133c0.071-0.064,0.082-0.13,0.029-0.222
		c0.123-0.002,0.192-0.155,0.025-0.202c-0.083-0.035-0.13-0.074-0.162-0.112l0.173-0.343c0.052-0.054,0.118-0.096,0.216-0.107
		c0.104-0.021,0.122-0.074,0.131-0.126c0.004-0.04-0.006-0.097-0.054-0.105c0.041-0.02,0.11-0.117,0.06-0.211
		c-0.01-0.021-0.033-0.03-0.057-0.034l1.076-2.127l-0.092-0.046l0.009,0.003l0.074,0.019c0.022-0.071,0.08-0.12,0.153-0.155
		c0.052,0.054,0.085,0.116,0.076,0.188l0.077,0.002l0.076-0.006c-0.015-0.073,0.015-0.136,0.063-0.192
		c0.076,0.032,0.138,0.078,0.166,0.147l0.071-0.022l0.007-0.002l-0.087,0.052l1.24,2.07c-0.022,0.006-0.045,0.014-0.055,0.036
		c-0.043,0.097,0.033,0.19,0.076,0.209c-0.046,0.01-0.053,0.068-0.045,0.107c0.013,0.052,0.035,0.104,0.141,0.12
		c0.096,0.006,0.163,0.041,0.219,0.089l0.205,0.342c-0.03,0.04-0.074,0.081-0.153,0.12c-0.164,0.054-0.082,0.203,0.041,0.2
		c-0.044,0.094-0.029,0.159,0.048,0.22c0.072,0.062,0.221,0.016,0.279-0.147c0.005-0.014,0.011-0.003,0.016-0.007l0.023,0.039
		c0,0.016,0.006,0.026-0.002,0.045c-0.033,0.083-0.02,0.132-0.246,0.236c-0.154,0.067-0.129,0.218,0.006,0.24
		c-0.163,0.079-0.227,0.19-0.104,0.316c0.104,0.094,0.195,0.084,0.297,0.005c0.002,0.084,0.098,0.167,0.17,0.155
		c0.07-0.013,0.172-0.061,0.16-0.317c-0.019-0.074,0.062-0.073,0.069,0.018c0.005,0.088,0.052,0.189-0.101,0.419
		c-0.073,0.137-0.033,0.207,0.02,0.262c0.04,0.041,0.113,0.081,0.167,0.036c-0.019,0.066,0.028,0.231,0.181,0.261
		c0.127,0.028,0.232-0.173,0.137-0.413c0.021,0.023,0.035,0.059,0.055,0.085l0.098,0.161c0.033,0.088,0.057,0.19,0.055,0.313
		c0.006,0.065,0.015,0.117,0.027,0.164c-0.003,0-0.004,0.001-0.006,0.002c-0.037,0.015-0.076,0.032-0.115,0.044
		c-0.108,0.041-0.219,0.078-0.336,0.112c-0.145,0.039-0.291,0.087-0.449,0.102c-0.076,0.01-0.153,0.015-0.229,0.018
		c-0.532,0.034-1.062-0.152-1.479-0.446c0.052-0.005,0.086-0.044,0.097-0.086c0.014-0.068,0.01-0.146-0.136-0.24
		c-0.268-0.147-0.282-0.253-0.33-0.335c-0.045-0.083,0.025-0.114,0.054-0.042c0.14,0.233,0.254,0.238,0.323,0.223
		c0.072-0.016,0.109-0.126,0.062-0.201c0.136,0.033,0.226,0.007,0.261-0.115c0.037-0.157-0.084-0.231-0.271-0.242
		c0.105-0.069,0.043-0.212-0.135-0.215c-0.26-0.007-0.275-0.059-0.354-0.119c-0.021-0.018-0.024-0.033-0.032-0.05l-0.002-0.033
		c0.008-0.001,0.008-0.014,0.024,0.001c0.146,0.123,0.302,0.108,0.333,0.027c0.031-0.083,0.009-0.146-0.086-0.213
		c0.111-0.042,0.1-0.204-0.079-0.192c-0.097-0.005-0.159-0.027-0.209-0.053l-0.015-0.344c0.015-0.075,0.054-0.144,0.146-0.191
		c0.084-0.053,0.076-0.108,0.057-0.158c-0.016-0.038-0.056-0.086-0.103-0.079c0.028-0.032,0.042-0.143-0.052-0.213
		c-0.021-0.018-0.049-0.018-0.074-0.013l-0.089-2.311l-0.187,0.007l0.088,2.309c-0.025-0.003-0.052-0.002-0.072,0.017
		c-0.086,0.074-0.066,0.185-0.034,0.215c-0.048-0.005-0.083,0.046-0.096,0.084c-0.017,0.051-0.021,0.105,0.067,0.155
		c0.095,0.04,0.139,0.104,0.16,0.175l0.015,0.354c-0.049,0.028-0.109,0.053-0.205,0.063c-0.178-0.004-0.179,0.159-0.065,0.195
		c-0.088,0.072-0.105,0.136-0.067,0.217c0.001,0.001,0.004,0,0.004,0.002c-0.017,0.065-0.044,0.123-0.065,0.186
		c-0.135,0.033-0.172,0.149-0.074,0.208v0.001c-0.188,0.02-0.302,0.101-0.254,0.255c0.02,0.049,0.051,0.072,0.085,0.091
		c-0.48,0.769-1.405,1.229-2.328,1.091L22.2,17.693C22.25,17.654,22.269,17.557,22.268,17.416z M25.091,11.363
		c-0.003-0.001-0.005-0.001-0.006-0.002c-0.006-0.004-0.013-0.01-0.019-0.014c-0.001,0-0.001-0.001-0.001-0.001
		c-0.002-0.004-0.004-0.008-0.006-0.011c-0.001-0.003-0.002-0.007-0.003-0.01c0-0.003,0-0.006,0-0.009s0.001-0.007,0.001-0.01
		c0.004-0.005,0.007-0.01,0.009-0.015c0.002-0.001,0.003-0.003,0.004-0.004c0.004-0.003,0.009-0.006,0.013-0.009
		c0.003-0.002,0.006-0.004,0.009-0.005c0.004-0.001,0.008-0.002,0.012-0.003c0.004,0,0.009-0.001,0.013-0.002
		c0.009,0.001,0.018,0.003,0.025,0.003l0,0c0.004,0.002,0.006,0.003,0.011,0.005c0.004,0.003,0.008,0.005,0.013,0.007
		c0.001,0.002,0.003,0.004,0.005,0.007c0.003,0.004,0.007,0.007,0.009,0.011c0,0.002,0.002,0.004,0.002,0.006
		c0,0.005,0.002,0.01,0.002,0.015c0,0.001,0,0.001,0,0.001c-0.004,0.006-0.006,0.012-0.008,0.019
		c-0.004,0.003-0.007,0.006-0.01,0.009c-0.003,0.002-0.005,0.005-0.008,0.007c-0.001,0.001-0.003,0.001-0.004,0.002
		c-0.008,0.001-0.014,0.004-0.021,0.007c-0.008-0.001-0.017,0-0.025,0C25.101,11.366,25.096,11.364,25.091,11.363z M25.199,15.848
		c-0.008,0.016-0.01,0.031-0.029,0.049c-0.056,0.049-0.079,0.091-0.207,0.117c-0.012-0.04-0.023-0.079-0.035-0.12
		c0.067,0.017,0.155,0.007,0.248-0.08c0.014-0.014,0.016-0.002,0.022-0.002L25.199,15.848z M25.489,19.637
		c0.128-0.158,0.264-0.309,0.414-0.441c0.45-0.434,0.979-0.74,1.536-0.961c0.076-0.026,0.15-0.052,0.229-0.073
		c0.158-0.042,0.311-0.099,0.46-0.135c0.123-0.033,0.241-0.059,0.359-0.083c0.044-0.008,0.087-0.016,0.129-0.024
		c0.083-0.02,0.164-0.039,0.244-0.058c0.042-0.009,0.084-0.019,0.122-0.027c0.096-0.02,0.186-0.038,0.271-0.056
		c0.123-0.026,0.247-0.042,0.358-0.074l0.058-0.016c0.086-0.024,0.165-0.047,0.245-0.07l0.079-0.024
		c0.191-0.062,0.37-0.116,0.506-0.212c0.078-0.054,0.153-0.114,0.223-0.177l0.028-0.028c0.063-0.059,0.122-0.119,0.175-0.18
		c0.076-0.089,0.147-0.174,0.196-0.267l-0.012-0.007l-0.013-0.008c-0.08-0.005-0.156-0.044-0.203-0.119
		c-0.047-0.074-0.049-0.161-0.026-0.239l-0.003-0.015l-0.002-0.014c-0.094,0.013-0.2,0.027-0.312,0.042
		c-0.074,0.014-0.152,0.031-0.229,0.05l-0.036,0.01c-0.082,0.022-0.162,0.051-0.241,0.087c-0.134,0.067-0.282,0.138-0.438,0.242
		l-0.062,0.042c-0.062,0.043-0.126,0.087-0.193,0.133l-0.047,0.032c-0.088,0.064-0.189,0.115-0.291,0.175
		c-0.029,0.016-0.06,0.032-0.086,0.048c-0.031-0.026-0.056-0.049-0.095-0.078c-0.118-0.073-0.203-0.149-0.269-0.224l-0.137-0.228
		c-0.002-0.008-0.008-0.018-0.011-0.027c0.173,0.212,0.437,0.27,0.486,0.173c0.067-0.114-0.065-0.244-0.14-0.275
		c0.076-0.006,0.084-0.077,0.067-0.128c-0.021-0.067-0.063-0.137-0.243-0.176c-0.318-0.048-0.387-0.14-0.469-0.199
		c-0.085-0.06-0.036-0.112,0.025-0.054c0.242,0.167,0.352,0.135,0.408,0.098c0.057-0.038,0.035-0.151-0.045-0.204
		c0.139-0.014,0.207-0.066,0.18-0.19c-0.047-0.156-0.193-0.185-0.373-0.132c0.063-0.098-0.066-0.208-0.229-0.152
		c-0.241,0.077-0.28,0.036-0.383,0.006c-0.024-0.007-0.031-0.018-0.047-0.028l-0.022-0.038c0.008-0.001,0.002-0.011,0.018-0.005
		c0.197,0.065,0.332,0.001,0.318-0.083c-0.012-0.085-0.064-0.135-0.185-0.167c0.08-0.075-0.015-0.219-0.17-0.15
		c-0.087,0.025-0.154,0.027-0.212,0.021l-0.204-0.339c-0.013-0.065-0.005-0.131,0.049-0.194c0.051-0.077,0.015-0.123-0.028-0.163
		c-0.033-0.03-0.094-0.062-0.133-0.04c0.012-0.038-0.035-0.144-0.154-0.178c-0.027-0.008-0.051,0-0.069,0.011l-1.257-2.099
		l-0.016,0.009c-0.048-0.06-0.054-0.125-0.037-0.19c0.086,0.004,0.166,0.025,0.229,0.081l0.055-0.045l0.002-0.002l-0.055,0.081
		l2.188,1.48c-0.014,0.013-0.029,0.024-0.026,0.044c0.01,0.102,0.126,0.163,0.175,0.165c-0.036,0.025-0.014,0.08,0.016,0.113
		c0.036,0.044,0.084,0.083,0.188,0.063c0.069-0.021,0.138-0.023,0.2-0.011l0.402,0.274c-0.008,0.044-0.027,0.093-0.076,0.15
		c-0.121,0.104,0.028,0.213,0.139,0.168c0.008,0.101,0.055,0.156,0.154,0.187c0.099,0.031,0.211-0.059,0.183-0.227
		c-0.002-0.007,0.004-0.001,0.004-0.006l0.054,0.036c0.006,0.011,0.014,0.014,0.016,0.027c0.011,0.087,0.051,0.128-0.104,0.296
		c-0.106,0.113-0.008,0.242,0.127,0.217c-0.108,0.125-0.11,0.248,0.065,0.322c0.143,0.053,0.223,0.013,0.273-0.093
		c0.043,0.077,0.174,0.121,0.234,0.086c0.059-0.035,0.125-0.111-0.018-0.342c-0.054-0.062,0.021-0.087,0.074-0.006
		c0.051,0.079,0.144,0.155,0.122,0.415c0.001,0.149,0.075,0.2,0.149,0.233c0.059,0.025,0.146,0.036,0.172-0.022
		c0.018,0.065,0.145,0.202,0.298,0.178c0.126-0.014,0.122-0.225-0.078-0.41l0.269,0.183c0.072,0.067,0.141,0.144,0.195,0.249
		c0.053,0.078,0.1,0.136,0.145,0.177c-0.004,0.006-0.01,0.012-0.014,0.018c-0.076,0.103-0.142,0.21-0.193,0.309
		c0.009,0.006,0.018,0.01,0.025,0.015c0.078,0.007,0.156,0.043,0.207,0.115c0.051,0.07,0.06,0.156,0.033,0.233
		c0.002,0.01,0.004,0.019,0.006,0.03c0.115-0.019,0.246-0.047,0.383-0.09c0.074-0.02,0.143-0.057,0.213-0.092l0.022-0.011
		c0.075-0.04,0.15-0.086,0.224-0.137l0.006-0.005c0.131-0.1,0.271-0.216,0.389-0.384l0.055-0.072
		c0.039-0.054,0.077-0.108,0.117-0.164c0.219-0.279,0.399-0.646,0.641-1.009l0.004-0.007c0.068-0.136,0.145-0.272,0.229-0.409
		c0.066-0.112,0.153-0.22,0.215-0.344l0.004-0.005l0.024-0.048c0.278-0.447,0.61-0.87,0.989-1.277
		c0.182-0.206,0.387-0.404,0.605-0.592c0.197-0.19,0.416-0.369,0.65-0.525c0.191-0.128,0.396-0.233,0.607-0.32
		C36.562,15.675,31.638,19.404,25.489,19.637z M31.628,10.763c-0.093-0.01-0.066-0.071,0.042-0.047
		c0.107,0.022,0.241,0.017,0.468,0.203c0.024,0.017,0.043,0.016,0.064,0.028c-0.092,0.025-0.184,0.048-0.277,0.062
		c0.01-0.01,0.03-0.016,0.032-0.027C31.964,10.923,31.937,10.832,31.628,10.763z M32.834,10.661
		c-0.073-0.042-0.188-0.07-0.323-0.076l0.346-0.039c0.039,0.002,0.084,0.012,0.123,0.017C32.935,10.6,32.882,10.628,32.834,10.661z
		 M36.785,10.764c0,0.075-0.014,0.147-0.016,0.222c-0.575-0.234-1.055-0.644-1.51-1.073c-0.468-0.455-0.869-0.941-1.22-1.441
		c-0.045-0.066-0.089-0.135-0.129-0.206c-0.078-0.149-0.172-0.282-0.253-0.416c-0.068-0.11-0.128-0.217-0.188-0.325
		c-0.022-0.04-0.039-0.082-0.063-0.117c-0.046-0.073-0.093-0.144-0.136-0.214c-0.022-0.037-0.045-0.074-0.066-0.11
		C33.156,7,33.109,6.919,33.062,6.841c-0.061-0.117-0.139-0.209-0.203-0.309l-0.036-0.049c-0.052-0.072-0.101-0.141-0.149-0.209
		l-0.051-0.067c-0.117-0.17-0.263-0.288-0.396-0.39c-0.078-0.055-0.158-0.104-0.242-0.146l-0.035-0.017
		c-0.075-0.04-0.154-0.072-0.234-0.091c-0.115-0.033-0.228-0.06-0.326-0.074l-0.004,0.014l-0.002,0.015
		c0.024,0.077,0.018,0.164-0.033,0.234c-0.051,0.07-0.131,0.108-0.209,0.115l-0.015,0.007l-0.012,0.007
		c0.046,0.085,0.103,0.176,0.164,0.267c0.045,0.059,0.09,0.124,0.134,0.19l0.021,0.03c0.051,0.069,0.104,0.135,0.164,0.196
		c0.104,0.107,0.25,0.19,0.39,0.306l0.06,0.045c0.061,0.044,0.123,0.088,0.188,0.135l0.046,0.033
		c0.085,0.064,0.188,0.121,0.27,0.203c0.062,0.056,0.125,0.113,0.19,0.172c0.026,0.026,0.056,0.054,0.086,0.082
		c0.056,0.055,0.11,0.11,0.167,0.167c0.029,0.028,0.053,0.062,0.077,0.095c0.067,0.091,0.137,0.185,0.2,0.286
		c0.082,0.123,0.164,0.25,0.211,0.4c0.027,0.07,0.052,0.142,0.072,0.212c0.154,0.503,0.053,1.049-0.219,1.462
		c-0.059,0.018-0.127,0.045-0.203,0.082c-0.109,0.059-0.209,0.089-0.305,0.116l-0.348,0.039c0.271-0.075,0.402-0.239,0.309-0.303
		c-0.113-0.086-0.311-0.024-0.369,0.023c0.018-0.061-0.064-0.088-0.13-0.092c-0.087-0.004-0.183,0.008-0.282,0.133
		c-0.154,0.229-0.285,0.253-0.38,0.298c-0.099,0.046-0.146-0.007-0.058-0.036c0.271-0.136,0.267-0.229,0.24-0.283
		c-0.027-0.055-0.168-0.074-0.254-0.028c0.024-0.11-0.018-0.179-0.172-0.195c-0.199-0.012-0.277,0.092-0.271,0.245
		c-0.098-0.079-0.268-0.012-0.252,0.13c0.02,0.207-0.042,0.226-0.108,0.294c-0.002,0.004-0.007,0.005-0.01,0.008l-0.091,0.01l0,0
		c0.137-0.13,0.104-0.254-0.004-0.269c-0.104-0.018-0.18,0.009-0.254,0.09c-0.063-0.084-0.264-0.055-0.229,0.084
		c0.003,0.064-0.009,0.112-0.026,0.152l-0.541,0.061c-0.058-0.017-0.109-0.045-0.152-0.089c-0.075-0.062-0.143-0.049-0.201-0.027
		c-0.047,0.017-0.104,0.053-0.09,0.09c-0.041-0.02-0.182-0.018-0.258,0.063c-0.014,0.014-0.006,0.028-0.006,0.042l-2.854,0.319
		l0.021,0.187l2.865-0.321c0.004,0.013,0.002,0.028,0.021,0.038c0.101,0.062,0.235,0.033,0.271,0.005
		c-0.002,0.038,0.064,0.061,0.114,0.067c0.065,0.008,0.133,0.005,0.185-0.071c0.026-0.052,0.067-0.09,0.115-0.119l0.541-0.062
		c0.033,0.034,0.061,0.078,0.079,0.14c0.017,0.142,0.218,0.125,0.25,0.03c0.101,0.063,0.181,0.072,0.274,0.032
		c0.096-0.037,0.088-0.164-0.088-0.259h-0.002l0.092-0.01c0.004,0.002,0.009,0.002,0.014,0.005c0.086,0.051,0.15,0.056,0.205,0.259
		c0.033,0.139,0.218,0.167,0.286,0.069c0.044,0.148,0.155,0.231,0.343,0.176c0.145-0.049,0.161-0.125,0.098-0.225
		c0.069,0.017,0.14-0.006,0.188-0.039c0.223,0.035,0.434,0.091,0.625,0.176c0.217,0.096,0.415,0.225,0.589,0.388
		c0.154,0.161,0.278,0.352,0.375,0.568c0.177,0.426,0.179,0.942-0.015,1.393l-0.02,0.046l-0.003,0.005
		c-0.041,0.123-0.112,0.228-0.178,0.332c-0.082,0.127-0.169,0.244-0.253,0.355l-0.006,0.006c-0.283,0.298-0.553,0.543-0.826,0.719
		c-0.051,0.036-0.1,0.071-0.146,0.105l-0.062,0.048c-0.124,0.104-0.25,0.182-0.35,0.273c-0.053-0.019-0.105-0.038-0.178-0.057
		c-0.138-0.027-0.24-0.068-0.336-0.111l-0.27-0.183c0.26,0.126,0.518,0.094,0.514-0.008c0.004-0.125-0.186-0.203-0.268-0.205
		c0.065-0.031,0.039-0.099-0.002-0.14c-0.055-0.054-0.127-0.103-0.312-0.08c-0.315,0.061-0.426,0-0.532-0.027
		c-0.107-0.028-0.089-0.091-0.004-0.059c0.309,0.073,0.391,0.007,0.424-0.044c0.033-0.054-0.043-0.15-0.145-0.171
		c0.12-0.059,0.156-0.129,0.066-0.233c-0.121-0.126-0.271-0.104-0.406,0.001c0.006-0.11-0.168-0.167-0.288-0.063
		c-0.181,0.149-0.238,0.125-0.349,0.131c-0.011,0-0.019-0.001-0.027-0.002l-0.064-0.043c0.006,0,0.006-0.002,0.01-0.002
		c0.213-0.006,0.305-0.109,0.25-0.182c-0.056-0.074-0.131-0.102-0.254-0.092c0.033-0.093-0.125-0.194-0.232-0.081
		c-0.062,0.048-0.117,0.073-0.172,0.087l-0.403-0.274c-0.026-0.047-0.034-0.102-0.021-0.16c0.008-0.086-0.049-0.117-0.109-0.139
		c-0.046-0.016-0.116-0.025-0.141,0.007c-0.013-0.038-0.105-0.12-0.232-0.111c-0.025,0.001-0.037,0.016-0.051,0.028l-2.219-1.503
		l-0.016,0.021c-0.072-0.039-0.111-0.096-0.13-0.16c0.08-0.023,0.163-0.03,0.247,0l0.027-0.058l0.006-0.024l-0.024,0.121
		l2.759,0.644c-0.004,0.015-0.014,0.028-0.002,0.043c0.062,0.09,0.197,0.108,0.243,0.093c-0.019,0.035,0.029,0.077,0.071,0.099
		c0.056,0.028,0.119,0.048,0.203-0.004c0.053-0.04,0.109-0.061,0.169-0.071l0.522,0.122c0.012,0.042,0.016,0.092,0,0.155
		c-0.06,0.134,0.133,0.186,0.211,0.11c0.059,0.089,0.129,0.124,0.235,0.118c0.106-0.002,0.163-0.121,0.051-0.265
		c-0.001-0.001,0-0.001-0.001-0.002l0.088,0.021c0.004,0.003,0.008,0.006,0.01,0.01c0.055,0.076,0.11,0.101,0.056,0.305
		c-0.04,0.138,0.114,0.223,0.228,0.158c-0.035,0.15,0.023,0.262,0.223,0.273c0.156,0.002,0.209-0.061,0.203-0.174
		c0.078,0.056,0.221,0.053,0.259,0.002c0.036-0.051,0.059-0.142-0.188-0.308c-0.08-0.039-0.025-0.086,0.063-0.03
		c0.086,0.056,0.211,0.096,0.321,0.34c0.078,0.136,0.17,0.158,0.256,0.164c0.064,0.004,0.15-0.014,0.146-0.076
		c0.05,0.054,0.231,0.137,0.36,0.065c0.105-0.053,0.003-0.231-0.252-0.336l0.334,0.078c0.092,0.038,0.186,0.08,0.281,0.152
		c0.155,0.098,0.283,0.161,0.34,0.129c0.045-0.021,0.022-0.072-0.002-0.093c0.037,0.031,0.164,0.092,0.218,0.051
		c0.085-0.065-0.042-0.129-0.183-0.176l-0.088-0.021l0.004-0.013l0.088,0.02c0.149,0.022,0.299,0.022,0.272-0.069
		c-0.019-0.058-0.166-0.061-0.219-0.051c0.036-0.006,0.087-0.04,0.063-0.077c-0.025-0.052-0.176-0.052-0.371-0.036
		c-0.131,0.02-0.238,0.014-0.342,0.007l-0.336-0.079c0.287,0.021,0.492-0.084,0.439-0.174c-0.062-0.117-0.271-0.125-0.348-0.101
		c0.045-0.05-0.017-0.103-0.072-0.127c-0.076-0.033-0.17-0.053-0.326,0.029c-0.258,0.158-0.389,0.138-0.498,0.147
		c-0.112,0.009-0.128-0.054-0.033-0.052c0.316-0.034,0.359-0.121,0.364-0.178c0.003-0.06-0.116-0.123-0.22-0.109
		c0.08-0.093,0.078-0.168-0.058-0.234c-0.175-0.076-0.3-0.007-0.37,0.134c-0.05-0.103-0.238-0.098-0.296,0.036
		c-0.089,0.195-0.153,0.192-0.25,0.233c-0.005,0.002-0.01,0.002-0.016,0.004l-0.085-0.02c0,0,0,0,0.001-0.001
		c0.19-0.073,0.223-0.198,0.135-0.246c-0.088-0.05-0.169-0.052-0.278-0.001c-0.016-0.098-0.212-0.137-0.252,0.001
		c-0.029,0.06-0.066,0.1-0.104,0.13l-0.521-0.122c-0.045-0.034-0.078-0.077-0.096-0.132c-0.036-0.08-0.104-0.09-0.169-0.091
		c-0.05,0-0.12,0.015-0.127,0.053c-0.028-0.032-0.156-0.075-0.269-0.026c-0.02,0.008-0.021,0.023-0.025,0.037l-2.781-0.649
		l-0.007,0.031c-0.091-0.012-0.156-0.054-0.208-0.108c0.061-0.049,0.135-0.083,0.229-0.083l-0.007-0.062l-0.016-0.062
		c-0.089,0.021-0.171,0.004-0.245-0.029c0.029-0.062,0.079-0.114,0.159-0.144l0.012,0.024l2.468-1.229
		c0.012,0.013,0.02,0.028,0.041,0.032c0.125,0.023,0.233-0.047,0.25-0.083c0.021,0.035,0.092,0.035,0.139,0.023
		c0.063-0.014,0.125-0.039,0.135-0.125c-0.002-0.058,0.016-0.109,0.048-0.152l0.455-0.227c0.048,0.021,0.099,0.051,0.149,0.104
		c0.086,0.125,0.263,0.044,0.242-0.053c0.123,0.025,0.201,0.005,0.27-0.062c0.068-0.065-0.004-0.178-0.213-0.208
		c-0.004,0-0.004-0.002-0.008-0.002l0.074-0.036c0.008,0,0.016-0.001,0.024,0c0.106,0.018,0.167,0.001,0.319,0.17
		c0.1,0.116,0.283,0.081,0.297-0.03c0.115,0.121,0.259,0.161,0.4,0.049c0.107-0.092,0.086-0.166-0.023-0.238
		c0.104-0.009,0.197-0.095,0.174-0.153c-0.021-0.055-0.092-0.129-0.409-0.092c-0.091,0.021-0.099-0.042,0.015-0.058
		c0.109-0.013,0.229-0.062,0.529,0.035c0.178,0.045,0.262,0.004,0.323-0.043c0.047-0.036,0.088-0.099,0.026-0.137
		c0.084,0.007,0.283-0.047,0.303-0.171c0.021-0.101-0.221-0.16-0.496-0.071L31.786,8.1c0.099-0.031,0.206-0.059,0.345-0.07
		c0.193-0.026,0.338-0.059,0.346-0.115c0.01-0.041-0.051-0.062-0.088-0.061c0.055-0.002,0.195-0.037,0.192-0.097
		c-0.004-0.094-0.149-0.061-0.285-0.009l-0.079,0.039l-0.007-0.01l0.076-0.039c0.12-0.075,0.222-0.165,0.118-0.208
		c-0.066-0.029-0.168,0.057-0.194,0.095c0.019-0.026,0.021-0.079-0.028-0.09c-0.064-0.019-0.166,0.07-0.28,0.198
		c-0.073,0.094-0.152,0.158-0.231,0.216l-0.298,0.149c0.222-0.158,0.263-0.359,0.142-0.388c-0.147-0.042-0.297,0.079-0.326,0.141
		c-0.017-0.061-0.104-0.06-0.166-0.042c-0.08,0.024-0.161,0.065-0.19,0.214c-0.024,0.258-0.132,0.323-0.196,0.396
		C30.57,8.493,30.5,8.46,30.564,8.404c0.183-0.212,0.131-0.294,0.078-0.336c-0.053-0.041-0.19-0.013-0.246,0.058
		c-0.033-0.111-0.105-0.159-0.256-0.123c-0.188,0.053-0.209,0.174-0.125,0.311c-0.129-0.039-0.25,0.077-0.164,0.201
		c0.123,0.184,0.076,0.221,0.051,0.305c-0.004,0.011-0.012,0.011-0.016,0.02l-0.067,0.031c0.001-0.003-0.005,0-0.003-0.004
		c0.061-0.164-0.034-0.265-0.137-0.245c-0.105,0.019-0.162,0.067-0.188,0.165c-0.101-0.056-0.269,0.035-0.166,0.152
		c0.036,0.06,0.048,0.109,0.05,0.153L28.918,9.32c-0.062,0.003-0.126-0.005-0.19-0.033c-0.1-0.033-0.153,0.001-0.196,0.04
		c-0.033,0.03-0.065,0.082-0.036,0.11c-0.048-0.004-0.175,0.043-0.204,0.143C28.287,9.599,28.3,9.61,28.31,9.624l-2.436,1.212
		l0.045,0.089l-0.003-0.005l-0.046-0.05c-0.07,0.047-0.152,0.059-0.238,0.053c-0.004-0.065,0.016-0.127,0.071-0.18l0.017,0.014
		l1.637-1.924c0.018,0.011,0.035,0.023,0.062,0.018c0.125-0.019,0.189-0.119,0.188-0.157c0.035,0.026,0.101,0.002,0.139-0.023
		c0.051-0.033,0.096-0.075,0.061-0.157c-0.037-0.063-0.039-0.124-0.022-0.182l0.278-0.328c0.058,0.001,0.123,0.012,0.201,0.046
		c0.142,0.086,0.262-0.044,0.195-0.127c0.124-0.017,0.188-0.06,0.215-0.143c0.029-0.083-0.093-0.161-0.3-0.122
		c-0.014,0.003-0.006-0.005-0.014-0.005l0.034-0.039c0.016-0.007,0.021-0.016,0.043-0.021c0.105-0.017,0.154-0.052,0.379,0.053
		c0.148,0.074,0.3-0.019,0.256-0.124c0.167,0.074,0.318,0.062,0.393-0.085c0.053-0.119-0.007-0.18-0.143-0.21
		c0.092-0.042,0.132-0.151,0.084-0.196c-0.051-0.043-0.15-0.088-0.424,0.048c-0.071,0.049-0.11-0.008-0.016-0.058
		c0.094-0.048,0.178-0.131,0.502-0.14c0.187-0.018,0.239-0.081,0.273-0.145c0.023-0.048,0.029-0.119-0.046-0.134
		c0.079-0.021,0.235-0.134,0.19-0.255c-0.033-0.102-0.304-0.076-0.514,0.113c0.005-0.01,0.02-0.02,0.023-0.03l0.174-0.204
		c0.076-0.066,0.171-0.131,0.302-0.19c0.165-0.086,0.28-0.164,0.261-0.217c-0.014-0.04-0.08-0.04-0.113-0.026
		c0.05-0.02,0.16-0.097,0.127-0.151c-0.051-0.084-0.166-0.008-0.266,0.084l-0.054,0.061l-0.01-0.008l0.05-0.061
		c0.07-0.108,0.118-0.221,0.002-0.229c-0.075-0.005-0.124,0.107-0.128,0.15c0.002-0.029-0.021-0.079-0.072-0.074
		c-0.069,0.005-0.116,0.119-0.157,0.274C29.49,5.96,29.448,6.053,29.4,6.135l-0.186,0.217c-0.005,0.004-0.009,0.011-0.014,0.016
		c0.143-0.226,0.072-0.438-0.059-0.424c-0.154,0.009-0.23,0.168-0.227,0.234c-0.044-0.05-0.125-0.021-0.173,0.016
		c-0.062,0.048-0.114,0.112-0.067,0.256c0.108,0.245,0.043,0.339,0.021,0.426c-0.023,0.089-0.104,0.081-0.072,0.009
		c0.061-0.253-0.031-0.312-0.099-0.333c-0.07-0.021-0.181,0.05-0.196,0.133c-0.086-0.09-0.177-0.111-0.296-0.03
		c-0.146,0.11-0.103,0.227,0.044,0.324c-0.137,0.007-0.189,0.151-0.049,0.237c0.203,0.129,0.18,0.178,0.197,0.263
		c0.004,0.019-0.004,0.026-0.006,0.041l-0.033,0.039c-0.004-0.005-0.01,0.004-0.012-0.008c-0.029-0.168-0.166-0.231-0.25-0.179
		c-0.086,0.05-0.113,0.114-0.088,0.211c-0.119-0.019-0.229,0.119-0.076,0.193c0.068,0.046,0.104,0.091,0.127,0.133L27.612,8.24
		c-0.062,0.034-0.132,0.055-0.218,0.05c-0.108,0.003-0.142,0.052-0.162,0.102c-0.016,0.037-0.021,0.096,0.023,0.112
		C27.21,8.516,27.119,8.6,27.142,8.701c0.004,0.022,0.024,0.031,0.043,0.04l-1.609,1.895l0.077,0.066l-0.007-0.005l-0.066-0.031
		c-0.04,0.066-0.109,0.104-0.191,0.126c-0.039-0.062-0.057-0.127-0.026-0.198l0.016,0.004l0.515-2.282
		c0.023,0.007,0.05,0.011,0.074-0.004c0.104-0.058,0.112-0.169,0.09-0.205c0.045,0.013,0.094-0.031,0.114-0.066
		c0.03-0.047,0.05-0.1-0.024-0.163c-0.08-0.055-0.107-0.125-0.11-0.199l0.078-0.347c0.054-0.02,0.12-0.033,0.216-0.027
		c0.173,0.033,0.216-0.126,0.114-0.181c0.104-0.055,0.14-0.115,0.123-0.2s-0.169-0.117-0.335-0.013
		c-0.018,0.012-0.016,0-0.023-0.001l0.01-0.035c0.012-0.015,0.016-0.029,0.039-0.043c0.088-0.051,0.113-0.099,0.371-0.075
		c0.176,0.018,0.264-0.115,0.172-0.197c0.188,0.013,0.321-0.047,0.314-0.207c-0.014-0.126-0.098-0.162-0.234-0.146
		c0.062-0.067,0.043-0.181-0.025-0.206c-0.066-0.023-0.182-0.032-0.36,0.182c-0.041,0.069-0.104,0.029-0.043-0.047
		c0.062-0.074,0.095-0.178,0.388-0.293c0.159-0.076,0.178-0.152,0.176-0.22c-0.002-0.053-0.033-0.12-0.108-0.109
		c0.063-0.045,0.146-0.2,0.044-0.295c-0.081-0.082-0.314,0.03-0.411,0.271c-0.001-0.018,0.003-0.039,0.004-0.058l0.046-0.205
		c0.037-0.09,0.096-0.187,0.19-0.288c0.106-0.134,0.171-0.242,0.126-0.284c-0.032-0.034-0.092-0.012-0.115,0.011
		c0.035-0.034,0.098-0.141,0.041-0.18c-0.09-0.06-0.156,0.048-0.199,0.165l-0.018,0.073L26.599,4.72l0.016-0.072
		c0.011-0.116-0.005-0.227-0.104-0.209c0.334-0.109,0.693-0.148,1.053-0.094l0.051,0.007l0.006,0.001
		c0.129,0.021,0.253,0.055,0.373,0.088c0.146,0.042,0.285,0.092,0.421,0.142l0.007,0.003c0.379,0.17,0.702,0.356,0.973,0.54
		c0.052,0.035,0.102,0.069,0.149,0.103l0.068,0.045c0.151,0.102,0.299,0.172,0.431,0.239l0.006,0.003
		c0.073,0.033,0.146,0.061,0.223,0.083l0.022,0.004c0.068,0.021,0.14,0.038,0.209,0.05c0.128,0.027,0.259,0.034,0.366,0.053
		c0.001-0.011,0.003-0.02,0.004-0.03c-0.021-0.078-0.02-0.164,0.027-0.238c0.047-0.075,0.123-0.115,0.201-0.119l0.025-0.016
		c-0.058-0.107-0.142-0.206-0.232-0.309c-0.051-0.055-0.107-0.111-0.166-0.164L30.71,4.812c-0.064-0.056-0.134-0.111-0.205-0.161
		c-0.005-0.002-0.007-0.003-0.008-0.004c-0.136-0.093-0.312-0.146-0.499-0.208l-0.085-0.027c-0.062-0.018-0.125-0.035-0.191-0.054
		c-0.338-0.091-0.732-0.148-1.151-0.254l-0.013,0.003c-0.147-0.028-0.297-0.06-0.451-0.101c-0.125-0.032-0.252-0.078-0.381-0.117
		L27.72,3.888l-0.054-0.013c-0.978-0.31-1.901-0.967-2.47-1.875c-0.023-0.039-0.035-0.083-0.057-0.123
		C31.583,1.981,36.785,5.923,36.785,10.764z M13.007,11.053c0.575,0.234,1.052,0.642,1.505,1.07c0.469,0.455,0.87,0.941,1.219,1.441
		c0.045,0.067,0.09,0.136,0.13,0.206c0.078,0.149,0.171,0.281,0.253,0.416c0.061,0.098,0.114,0.194,0.168,0.291l0.068,0.098
		l0.052,0.112c0.032,0.052,0.067,0.104,0.099,0.155c0.022,0.037,0.045,0.074,0.066,0.11c0.049,0.084,0.096,0.165,0.142,0.243
		c0.06,0.116,0.139,0.209,0.204,0.309l0.035,0.049c0.052,0.073,0.102,0.142,0.151,0.21l0.051,0.067
		c0.117,0.17,0.262,0.288,0.394,0.389c0.079,0.055,0.161,0.104,0.244,0.146l0.035,0.018c0.076,0.04,0.154,0.072,0.236,0.091
		c0.115,0.033,0.227,0.06,0.326,0.074l0.002-0.014l0.004-0.015c-0.025-0.077-0.018-0.163,0.033-0.234
		c0.051-0.071,0.129-0.108,0.208-0.115l0.013-0.008l0.013-0.007c-0.046-0.085-0.103-0.176-0.165-0.267
		c-0.044-0.059-0.089-0.123-0.133-0.19l-0.021-0.029c-0.05-0.069-0.104-0.136-0.164-0.196c-0.102-0.108-0.25-0.191-0.389-0.306
		l-0.06-0.045c-0.061-0.044-0.123-0.088-0.188-0.134l-0.047-0.034c-0.085-0.063-0.186-0.122-0.268-0.202
		c-0.063-0.056-0.125-0.114-0.191-0.173c-0.026-0.026-0.057-0.054-0.085-0.082c-0.056-0.055-0.111-0.111-0.168-0.167
		c-0.03-0.028-0.053-0.062-0.077-0.095c-0.069-0.091-0.137-0.184-0.201-0.286c-0.081-0.123-0.163-0.25-0.211-0.4
		c-0.027-0.07-0.052-0.142-0.071-0.213c-0.166-0.537-0.048-1.128,0.268-1.548c0.197-0.274,0.489-0.471,0.819-0.604
		c0.002,0.006-0.003,0.012,0.002,0.017c0.088,0.104,0.297,0.078,0.366,0.04c-0.032,0.057,0.041,0.098,0.104,0.113
		c0.082,0.019,0.178,0.024,0.311-0.082c0.211-0.197,0.346-0.2,0.45-0.228c0.107-0.027,0.139,0.032,0.046,0.046
		c-0.302,0.085-0.321,0.177-0.311,0.234c0.013,0.06,0.145,0.102,0.242,0.071c-0.056,0.104-0.033,0.178,0.115,0.22
		c0.19,0.046,0.296-0.042,0.328-0.192c0.075,0.093,0.259,0.056,0.28-0.084c0.037-0.206,0.102-0.214,0.186-0.269
		c0.004-0.003,0.008-0.003,0.012-0.006l0.09,0.006l0,0c-0.168,0.104-0.167,0.23-0.068,0.263c0.099,0.035,0.18,0.022,0.272-0.044
		c0.04,0.092,0.243,0.099,0.247-0.044c0.013-0.063,0.038-0.108,0.067-0.144l0.545,0.033c0.05,0.027,0.094,0.062,0.123,0.113
		c0.058,0.072,0.127,0.071,0.19,0.06c0.049-0.008,0.113-0.035,0.11-0.072c0.035,0.026,0.173,0.048,0.269-0.019
		c0.017-0.011,0.013-0.025,0.017-0.039l2.879,0.176l0.013-0.187l-2.875-0.176c0-0.014,0.007-0.029-0.009-0.042
		c-0.082-0.077-0.221-0.072-0.262-0.051c0.011-0.037-0.047-0.07-0.096-0.085c-0.061-0.018-0.128-0.028-0.197,0.037
		c-0.04,0.047-0.09,0.077-0.145,0.097l-0.545-0.033c-0.022-0.039-0.039-0.087-0.04-0.151c0.023-0.141-0.179-0.159-0.235-0.072
		c-0.08-0.078-0.158-0.1-0.261-0.078c-0.103,0.021-0.128,0.146,0.019,0.269l0,0l-0.092-0.006c-0.003-0.002-0.006-0.003-0.01-0.007
		c-0.072-0.065-0.135-0.08-0.132-0.289c0.004-0.143-0.17-0.199-0.262-0.117c-0.004-0.152-0.091-0.252-0.288-0.23
		c-0.153,0.024-0.189,0.095-0.155,0.204c-0.091-0.042-0.229-0.017-0.253,0.041c-0.022,0.055-0.021,0.148,0.263,0.27
		c0.089,0.025,0.048,0.08-0.053,0.04c-0.101-0.041-0.231-0.059-0.402-0.279c-0.111-0.12-0.207-0.127-0.292-0.119
		c-0.066,0.007-0.145,0.039-0.124,0.099c-0.062-0.045-0.263-0.096-0.37-0.005c-0.089,0.069,0.057,0.226,0.331,0.287l-0.349-0.02
		c-0.098-0.022-0.199-0.047-0.312-0.102c-0.069-0.028-0.126-0.045-0.182-0.061c-0.069-0.05-0.15-0.081-0.214-0.14
		c-0.154-0.16-0.277-0.353-0.374-0.567C16.1,9.454,16.098,8.938,16.29,8.488l0.019-0.048l0.003-0.005
		c0.041-0.123,0.114-0.228,0.178-0.332c0.082-0.127,0.168-0.243,0.252-0.355l0.007-0.006c0.282-0.298,0.553-0.543,0.827-0.718
		c0.049-0.037,0.098-0.071,0.145-0.105l0.065-0.049c0.135-0.115,0.28-0.196,0.382-0.301l0.006-0.004
		c0.055-0.057,0.107-0.117,0.154-0.179l0.012-0.02c0.042-0.06,0.084-0.119,0.123-0.176c0.076-0.103,0.141-0.21,0.194-0.31
		c-0.009-0.005-0.017-0.01-0.025-0.015c-0.079-0.006-0.158-0.042-0.208-0.114c-0.051-0.07-0.059-0.156-0.034-0.233
		c-0.002-0.01-0.004-0.019-0.005-0.03c-0.116,0.018-0.246,0.048-0.382,0.09c-0.075,0.02-0.143,0.057-0.213,0.092l-0.024,0.011
		c-0.076,0.04-0.151,0.086-0.222,0.136l-0.007,0.006c-0.13,0.1-0.271,0.216-0.388,0.384l-0.054,0.072
		c-0.038,0.053-0.078,0.107-0.118,0.164c-0.217,0.279-0.398,0.645-0.639,1.009l-0.004,0.007c-0.069,0.136-0.144,0.272-0.23,0.409
		c-0.067,0.112-0.153,0.219-0.214,0.343l-0.003,0.006l-0.026,0.049c-0.278,0.447-0.61,0.869-0.99,1.276
		c-0.181,0.206-0.386,0.404-0.604,0.592c-0.198,0.19-0.417,0.369-0.651,0.525c-0.193,0.129-0.4,0.236-0.613,0.323
		c-0.003-0.073-0.015-0.145-0.015-0.218c0-4.843,5.206-8.787,11.653-8.886c-0.203,0.365-0.467,0.693-0.771,0.963
		c-0.451,0.434-0.979,0.74-1.537,0.961c-0.074,0.026-0.15,0.052-0.227,0.073c-0.16,0.042-0.311,0.1-0.461,0.135
		c-0.123,0.033-0.241,0.059-0.358,0.084c-0.046,0.008-0.088,0.015-0.13,0.023c-0.084,0.02-0.165,0.04-0.244,0.058
		c-0.043,0.009-0.085,0.018-0.124,0.028c-0.095,0.019-0.184,0.037-0.273,0.056c-0.123,0.025-0.247,0.042-0.358,0.073l-0.057,0.017
		c-0.085,0.024-0.165,0.047-0.244,0.069l-0.079,0.024c-0.192,0.063-0.371,0.117-0.507,0.212c-0.078,0.055-0.152,0.114-0.221,0.177
		l-0.03,0.027c-0.062,0.059-0.122,0.12-0.173,0.181c-0.078,0.089-0.15,0.174-0.199,0.267l0.013,0.008l0.013,0.008
		c0.079,0.004,0.155,0.044,0.203,0.118c0.045,0.074,0.049,0.161,0.026,0.239l0.003,0.015l0.002,0.014
		c0.094-0.013,0.2-0.028,0.313-0.043c0.074-0.013,0.152-0.03,0.229-0.05l0.035-0.009c0.082-0.023,0.163-0.051,0.242-0.087
		c0.133-0.067,0.284-0.139,0.437-0.243l0.063-0.042c0.064-0.044,0.128-0.087,0.195-0.133l0.048-0.032
		c0.089-0.063,0.188-0.115,0.291-0.175c0.073-0.042,0.15-0.084,0.229-0.128c0.034-0.019,0.069-0.038,0.106-0.057
		c0.069-0.036,0.141-0.075,0.216-0.104c0.038-0.015,0.076-0.032,0.116-0.044c0.108-0.04,0.219-0.078,0.337-0.112
		c0.143-0.038,0.289-0.087,0.448-0.102c0.076-0.009,0.152-0.015,0.229-0.017c0.572-0.036,1.145,0.175,1.578,0.509
		c0.44,0.367,0.743,0.861,0.867,1.443c0.05-0.232,0.128-0.452,0.232-0.653c0.275-0.563,0.785-0.986,1.375-1.184
		c-0.064,0.024-0.057,0.135-0.038,0.175c-0.013-0.028-0.06-0.066-0.104-0.043c-0.06,0.026-0.045,0.146-0.004,0.301
		C26.39,5,26.405,5.106,26.398,5.201l-0.016,0.073c-0.013,0.067-0.023,0.133-0.051,0.187c0.016-0.253-0.154-0.424-0.268-0.369
		c-0.137,0.06-0.127,0.229-0.088,0.288c-0.065-0.03-0.125,0.022-0.149,0.071c-0.032,0.064-0.048,0.14,0.069,0.256
		c0.223,0.188,0.209,0.296,0.234,0.384c0.023,0.088-0.054,0.106-0.062,0.031c-0.074-0.25-0.187-0.275-0.259-0.272
		c-0.074,0.004-0.14,0.105-0.112,0.186c-0.124-0.054-0.218-0.044-0.285,0.07c-0.075,0.147,0.022,0.24,0.205,0.281
		c-0.122,0.051-0.097,0.201,0.075,0.233c0.252,0.05,0.254,0.103,0.314,0.175c0.018,0.02,0.014,0.034,0.02,0.052l-0.008,0.035
		c-0.008-0.001-0.012,0.011-0.022-0.004c-0.11-0.146-0.267-0.158-0.317-0.083c-0.054,0.075-0.047,0.141,0.026,0.222
		c-0.118,0.023-0.147,0.185,0.028,0.202c0.092,0.021,0.146,0.053,0.189,0.086l-0.078,0.348c-0.033,0.068-0.09,0.126-0.19,0.155
		c-0.097,0.038-0.101,0.093-0.095,0.145c0.007,0.04,0.031,0.094,0.078,0.095c-0.035,0.025-0.076,0.132-0.004,0.216
		c0.018,0.021,0.041,0.025,0.067,0.025l-0.511,2.268l0.117,0.026l-0.025-0.005l-0.078-0.007c-0.004,0.074-0.048,0.131-0.11,0.178
		c-0.066-0.044-0.116-0.099-0.126-0.172l-0.077,0.011l-0.025,0.007l0.115-0.036l-0.684-2.237c0.025-0.001,0.05-0.006,0.064-0.028
		c0.066-0.088,0.017-0.192-0.021-0.217c0.047-0.003,0.067-0.059,0.07-0.099c0.003-0.052-0.007-0.106-0.106-0.14
		c-0.1-0.023-0.16-0.077-0.199-0.141L24,7.349c0.04-0.035,0.093-0.069,0.183-0.095c0.174-0.026,0.134-0.186,0.012-0.202
		c0.068-0.086,0.069-0.152,0.011-0.224c-0.057-0.072-0.213-0.053-0.313,0.098c-0.009,0.015-0.013,0.003-0.021,0.005l-0.011-0.036
		c0.004-0.017,0-0.031,0.015-0.051c0.054-0.074,0.054-0.127,0.302-0.19c0.168-0.041,0.183-0.191,0.056-0.236
		c0.18-0.051,0.271-0.148,0.184-0.292c-0.076-0.11-0.171-0.116-0.29-0.056C24.148,5.989,24.076,5.891,24,5.89
		c-0.071,0-0.181,0.03-0.236,0.285c-0.003,0.075-0.081,0.061-0.064-0.029c0.018-0.088-0.002-0.194,0.205-0.394
		c0.108-0.123,0.085-0.198,0.05-0.26c-0.029-0.048-0.092-0.099-0.156-0.063c0.035-0.061,0.032-0.231-0.109-0.284
		c-0.115-0.049-0.272,0.13-0.238,0.382c-0.028-0.049-0.043-0.112-0.061-0.173l-0.025-0.083c-0.012-0.095-0.008-0.202,0.027-0.327
		c0.028-0.156,0.033-0.276-0.029-0.3c-0.046-0.021-0.089,0.02-0.1,0.047c0.015-0.041,0.017-0.16-0.055-0.177
		c-0.112-0.026-0.119,0.094-0.099,0.216l0.021,0.071l-0.014,0.004l-0.023-0.072c-0.053-0.115-0.127-0.22-0.212-0.154
		c-0.055,0.042,0.017,0.146,0.055,0.177c-0.025-0.022-0.089-0.041-0.117-0.006c-0.042,0.045,0.032,0.149,0.148,0.278
		c0.1,0.095,0.166,0.187,0.21,0.273l0.065,0.216c0.003,0.017,0.007,0.034,0.007,0.049c-0.114-0.236-0.356-0.337-0.431-0.25
		c-0.095,0.1,0.001,0.25,0.066,0.292c-0.077-0.007-0.103,0.061-0.102,0.113c0.004,0.069,0.028,0.144,0.194,0.212
		c0.299,0.101,0.343,0.201,0.409,0.273c0.067,0.073,0.006,0.115-0.039,0.049c-0.195-0.205-0.312-0.19-0.375-0.164
		c-0.065,0.028-0.074,0.142-0.009,0.207c-0.14-0.009-0.222,0.031-0.225,0.157c0.006,0.159,0.143,0.212,0.33,0.19
		c-0.086,0.086,0.013,0.215,0.188,0.188c0.256-0.036,0.284,0.011,0.377,0.057c0.023,0.013,0.027,0.025,0.041,0.039l0.012,0.037
		c-0.008,0-0.004,0.013-0.021,0.002C23.493,6.875,23.344,6.915,23.335,7c-0.011,0.085,0.029,0.144,0.139,0.194
		c-0.1,0.06-0.043,0.217,0.127,0.175c0.094-0.011,0.16,0,0.216,0.016l0.107,0.35c0.001,0.071-0.021,0.14-0.097,0.198
		c-0.068,0.066-0.046,0.118-0.013,0.164c0.025,0.035,0.075,0.076,0.12,0.062c-0.021,0.035-0.003,0.146,0.105,0.199
		c0.025,0.013,0.051,0.009,0.074,0l0.69,2.256l0.016-0.005c0.033,0.069,0.021,0.136-0.013,0.199
		c-0.083-0.019-0.155-0.052-0.201-0.116l-0.064,0.035l-0.006,0.004l0.071-0.07l-1.758-1.808c0.019-0.01,0.038-0.02,0.04-0.042
		c0.017-0.101-0.082-0.181-0.129-0.19c0.041-0.019,0.032-0.076,0.014-0.114c-0.022-0.048-0.061-0.095-0.168-0.093
		c-0.082,0.01-0.153-0.005-0.215-0.033l-0.311-0.32c0.02-0.043,0.051-0.089,0.115-0.139c0.147-0.081,0.027-0.213-0.091-0.188
		C22.122,7.635,22.089,7.573,22,7.527c-0.089-0.047-0.221,0.022-0.235,0.192c-0.001,0.011-0.007,0.002-0.01,0.008l-0.037-0.038
		c-0.003-0.014-0.012-0.021-0.009-0.039c0.011-0.086-0.018-0.133,0.176-0.272c0.134-0.093,0.07-0.235-0.067-0.235
		c0.138-0.104,0.171-0.223,0.017-0.325c-0.125-0.076-0.215-0.05-0.291,0.044c-0.023-0.082-0.139-0.147-0.208-0.123
		c-0.065,0.024-0.15,0.088-0.071,0.337c0.036,0.069-0.042,0.082-0.074-0.005c-0.027-0.086-0.1-0.177-0.013-0.427
		c0.037-0.147-0.021-0.208-0.087-0.253c-0.05-0.034-0.133-0.06-0.174-0.006c0-0.067-0.088-0.221-0.244-0.223
		c-0.13-0.007-0.181,0.209-0.024,0.426l-0.217-0.224c-0.054-0.078-0.103-0.169-0.132-0.285c-0.054-0.152-0.109-0.263-0.18-0.264
		c-0.051-0.004-0.071,0.047-0.065,0.076c-0.009-0.043-0.066-0.152-0.14-0.145c-0.116,0.014-0.06,0.125,0.018,0.229l0.055,0.058
		l-0.009,0.009L19.92,5.983c-0.106-0.087-0.227-0.158-0.272-0.07c-0.028,0.055,0.089,0.128,0.14,0.144
		c-0.035-0.012-0.1-0.009-0.108,0.033c-0.016,0.054,0.104,0.125,0.276,0.203c0.133,0.051,0.229,0.111,0.312,0.172l0.219,0.225
		c-0.225-0.176-0.497-0.189-0.52-0.085c-0.036,0.122,0.13,0.228,0.209,0.245c-0.075,0.018-0.063,0.089-0.035,0.137
		c0.039,0.061,0.099,0.122,0.285,0.128c0.325-0.007,0.417,0.072,0.513,0.115c0.098,0.044,0.064,0.104-0.011,0.058
		c-0.283-0.122-0.38-0.072-0.426-0.026c-0.046,0.047,0.006,0.154,0.098,0.191c-0.133,0.038-0.187,0.1-0.125,0.216
		c0.085,0.144,0.238,0.146,0.397,0.065C20.84,7.84,20.995,7.925,21.14,7.843c0.215-0.116,0.266-0.083,0.373-0.072
		c0.014,0.001,0.023,0.005,0.035,0.008l0.05,0.052c-0.006,0-0.008,0.002-0.017,0c-0.209-0.03-0.324,0.056-0.289,0.136
		c0.033,0.082,0.1,0.122,0.225,0.131c-0.059,0.087,0.073,0.211,0.206,0.118c0.076-0.039,0.139-0.052,0.195-0.057l0.312,0.32
		c0.019,0.055,0.019,0.114-0.013,0.175c-0.028,0.086,0.019,0.126,0.072,0.157c0.04,0.023,0.108,0.044,0.141,0.016
		c0,0.039,0.072,0.135,0.198,0.147c0.027,0.003,0.044-0.009,0.061-0.021l1.786,1.837l0.016-0.015
		c0.061,0.05,0.083,0.111,0.086,0.177c-0.085,0.01-0.168,0.002-0.242-0.042l-0.04,0.053l-0.006,0.01l0.041-0.096l-2.524-1.086
		c0.008-0.014,0.021-0.026,0.014-0.044c-0.037-0.098-0.166-0.138-0.215-0.131c0.029-0.031-0.008-0.08-0.043-0.108
		c-0.046-0.037-0.104-0.067-0.201-0.03c-0.061,0.031-0.124,0.043-0.186,0.043l-0.476-0.206c-0.002-0.044,0.007-0.094,0.039-0.155
		c0.092-0.122-0.083-0.205-0.18-0.143c-0.033-0.097-0.092-0.142-0.199-0.155c-0.105-0.015-0.189,0.091-0.119,0.251
		c0.002,0.003-0.003,0-0.002,0.003l-0.068-0.029c-0.005-0.008-0.012-0.008-0.016-0.018c-0.033-0.083-0.082-0.117,0.025-0.306
		c0.075-0.128-0.053-0.237-0.18-0.192c0.073-0.14,0.044-0.261-0.147-0.304c-0.153-0.029-0.221,0.024-0.245,0.135
		c-0.062-0.067-0.202-0.089-0.252-0.045c-0.048,0.044-0.093,0.13,0.105,0.333c0.068,0.051,0.002,0.088-0.069,0.018
		c-0.071-0.069-0.182-0.128-0.227-0.386c-0.041-0.146-0.126-0.183-0.208-0.202c-0.063-0.015-0.152-0.012-0.162,0.05
		c-0.033-0.062-0.193-0.173-0.336-0.125c-0.118,0.035-0.062,0.232,0.169,0.378L18.315,8.29c-0.082-0.053-0.164-0.112-0.243-0.201
		c-0.125-0.122-0.232-0.205-0.297-0.184c-0.049,0.014-0.042,0.067-0.021,0.092c-0.029-0.037-0.138-0.118-0.2-0.085
		c-0.101,0.048,0.007,0.132,0.132,0.202l0.079,0.035L17.762,8.16l-0.081-0.035c-0.143-0.045-0.29-0.071-0.287,0.023
		c0.004,0.061,0.146,0.088,0.201,0.087C17.558,8.236,17.499,8.26,17.513,8.3c0.013,0.055,0.159,0.08,0.354,0.097
		c0.137,0.003,0.244,0.026,0.344,0.052l0.31,0.133c-0.28-0.073-0.515-0.002-0.486,0.096c0.029,0.124,0.232,0.167,0.315,0.156
		c-0.059,0.041-0.013,0.103,0.037,0.136c0.066,0.045,0.152,0.081,0.326,0.026c0.293-0.112,0.415-0.07,0.526-0.062
		c0.112,0.01,0.11,0.074,0.019,0.056c-0.319-0.021-0.383,0.058-0.402,0.115c-0.019,0.058,0.081,0.139,0.185,0.143
		c-0.102,0.078-0.119,0.152-0.005,0.239c0.151,0.103,0.292,0.057,0.396-0.069c0.022,0.109,0.208,0.136,0.3,0.014
		c0.137-0.177,0.2-0.163,0.304-0.187c0.009-0.001,0.015,0,0.021-0.002l0.077,0.033c-0.001,0.001,0,0.002-0.003,0.003
		c-0.206,0.04-0.27,0.156-0.196,0.218c0.072,0.064,0.152,0.079,0.272,0.047c-0.01,0.098,0.172,0.169,0.247,0.04
		c0.045-0.054,0.092-0.088,0.139-0.111l0.476,0.205c0.034,0.041,0.056,0.09,0.059,0.147c0.014,0.085,0.077,0.107,0.141,0.117
		c0.05,0.009,0.122,0.006,0.138-0.03c0.02,0.035,0.134,0.1,0.256,0.069c0.021-0.005,0.028-0.02,0.038-0.033l2.557,1.1l0.011-0.027
		c0.083,0.026,0.136,0.076,0.171,0.136c-0.072,0.037-0.151,0.057-0.241,0.042l-0.011,0.061l-0.002,0.063
		c0.093-0.004,0.168,0.025,0.232,0.071c-0.047,0.058-0.109,0.103-0.199,0.118l-0.008-0.029l-2.73,0.79
		c-0.008-0.013-0.01-0.028-0.029-0.036c-0.116-0.044-0.241,0.006-0.268,0.039c-0.009-0.037-0.079-0.048-0.129-0.045
		c-0.065,0.003-0.133,0.017-0.162,0.099c-0.013,0.056-0.045,0.101-0.085,0.138l-0.511,0.147c-0.041-0.028-0.08-0.067-0.115-0.126
		c-0.052-0.135-0.245-0.086-0.253,0.012c-0.111-0.044-0.194-0.039-0.278,0.015c-0.083,0.053-0.043,0.176,0.154,0.24
		c0.002,0,0.001,0.001,0.003,0.001l-0.085,0.024c-0.006-0.001-0.011-0.001-0.017-0.003c-0.099-0.036-0.164-0.029-0.268-0.22
		c-0.069-0.131-0.258-0.126-0.299-0.021c-0.081-0.139-0.212-0.201-0.381-0.116c-0.129,0.073-0.126,0.148-0.038,0.237
		c-0.104-0.008-0.217,0.061-0.21,0.12c0.008,0.058,0.057,0.143,0.377,0.16c0.095-0.006,0.084,0.058-0.028,0.054
		c-0.111-0.004-0.241,0.021-0.51-0.123c-0.163-0.073-0.254-0.048-0.328-0.012c-0.055,0.027-0.112,0.083-0.063,0.131
		c-0.079-0.021-0.288-0.001-0.341,0.117c-0.045,0.092,0.17,0.188,0.454,0.153l-0.328,0.095c-0.102,0.013-0.21,0.023-0.343,0.01
		c-0.196-0.007-0.347,0.002-0.368,0.055c-0.021,0.038,0.033,0.069,0.069,0.074c-0.053-0.007-0.201,0.003-0.214,0.062
		c-0.021,0.092,0.129,0.084,0.278,0.056l0.087-0.025l0.004,0.013l-0.086,0.025c-0.138,0.053-0.259,0.124-0.17,0.185
		c0.058,0.04,0.18-0.029,0.216-0.062c-0.025,0.023-0.042,0.074,0.004,0.093c0.061,0.029,0.182-0.041,0.328-0.146
		c0.093-0.078,0.185-0.125,0.274-0.168l0.331-0.096c-0.253,0.119-0.343,0.304-0.233,0.352c0.135,0.066,0.313-0.027,0.356-0.084
		c-0.001,0.062,0.086,0.076,0.151,0.069c0.086-0.01,0.176-0.037,0.242-0.177c0.093-0.249,0.215-0.295,0.296-0.355
		c0.084-0.062,0.143-0.017,0.065,0.026c-0.232,0.177-0.203,0.268-0.165,0.316c0.042,0.05,0.185,0.044,0.257-0.014
		c0.004,0.112,0.063,0.172,0.219,0.163c0.198-0.021,0.249-0.137,0.203-0.284c0.116,0.06,0.264-0.033,0.212-0.168
		c-0.07-0.201-0.016-0.229,0.031-0.307c0.005-0.007,0.011-0.007,0.017-0.014l0.077-0.022c-0.002,0.002,0.003,0,0,0.003
		c-0.101,0.149-0.034,0.265,0.071,0.262c0.108,0,0.175-0.038,0.227-0.13c0.085,0.072,0.273,0.011,0.204-0.12
		c-0.021-0.063-0.02-0.113-0.011-0.156l0.51-0.147c0.061,0.007,0.12,0.026,0.175,0.063c0.089,0.048,0.151,0.024,0.204-0.007
		c0.04-0.023,0.087-0.069,0.063-0.102c0.046,0.012,0.182-0.014,0.236-0.106c0.011-0.016,0-0.029-0.005-0.043l2.704-0.782
		l-0.03-0.105l0.006,0.016l0.03,0.057c0.083-0.034,0.167-0.032,0.249-0.012c-0.013,0.064-0.047,0.123-0.116,0.165l-0.015-0.018
		l-2.094,1.612c-0.015-0.012-0.027-0.026-0.053-0.026c-0.129-0.002-0.217,0.085-0.223,0.124c-0.027-0.031-0.099-0.019-0.143,0
		c-0.058,0.024-0.111,0.058-0.098,0.144c0.018,0.059,0.014,0.113-0.008,0.162l-0.381,0.293c-0.055-0.012-0.113-0.033-0.179-0.079
		c-0.115-0.108-0.268,0-0.225,0.093c-0.126-0.004-0.198,0.028-0.246,0.104c-0.049,0.076,0.05,0.174,0.261,0.168
		c0.007,0,0.008,0.001,0.014,0.002l-0.062,0.046c-0.011,0.001-0.019,0.004-0.03,0.004c-0.109,0-0.165,0.026-0.356-0.114
		c-0.128-0.098-0.298-0.032-0.282,0.078c-0.145-0.099-0.296-0.113-0.406,0.019c-0.081,0.108-0.04,0.177,0.086,0.229
		c-0.1,0.026-0.169,0.126-0.133,0.178c0.038,0.05,0.127,0.111,0.427,0.022c0.083-0.036,0.105,0.026,0.001,0.06
		c-0.104,0.031-0.209,0.098-0.527,0.054c-0.187-0.014-0.256,0.039-0.306,0.096c-0.036,0.043-0.06,0.112,0.011,0.14
		c-0.084,0.007-0.266,0.093-0.253,0.218c0.006,0.103,0.269,0.121,0.519-0.02l-0.255,0.196c-0.091,0.049-0.193,0.096-0.33,0.13
		c-0.184,0.058-0.315,0.115-0.31,0.17c0.002,0.042,0.067,0.052,0.103,0.044c-0.053,0.011-0.182,0.069-0.164,0.127
		c0.028,0.091,0.162,0.035,0.282-0.04l0.067-0.051l0.008,0.01l-0.063,0.05c-0.099,0.094-0.174,0.198-0.062,0.224
		c0.071,0.017,0.149-0.084,0.165-0.126c-0.011,0.028,0,0.081,0.052,0.083c0.069,0.007,0.144-0.096,0.225-0.241
		c0.049-0.109,0.111-0.19,0.178-0.261l0.254-0.196c-0.188,0.196-0.176,0.408-0.047,0.416c0.155,0.016,0.27-0.127,0.282-0.192
		c0.031,0.057,0.117,0.041,0.174,0.013c0.072-0.037,0.14-0.09,0.131-0.241c-0.042-0.257,0.046-0.339,0.09-0.42
		c0.045-0.083,0.121-0.062,0.073,0.003c-0.124,0.237-0.051,0.311,0.011,0.342c0.063,0.032,0.189-0.02,0.227-0.098
		c0.061,0.103,0.144,0.139,0.282,0.078c0.168-0.083,0.157-0.205,0.038-0.325c0.137,0.017,0.227-0.117,0.111-0.223
		c-0.168-0.16-0.132-0.204-0.128-0.291c0-0.015,0.009-0.019,0.013-0.031l0.05-0.037c0,0.005,0.007-0.002,0.006,0.006
		c-0.017,0.17,0.103,0.254,0.198,0.217c0.098-0.035,0.141-0.092,0.14-0.193c0.114,0.038,0.256-0.079,0.125-0.176
		c-0.054-0.055-0.077-0.103-0.09-0.146l0.381-0.294c0.062-0.016,0.13-0.016,0.202,0c0.105,0.015,0.15-0.026,0.184-0.072
		c0.024-0.034,0.043-0.09,0.006-0.114c0.048-0.004,0.16-0.071,0.162-0.173c0.001-0.021-0.016-0.032-0.03-0.044L24.5,11.91
		l-0.06-0.079l0.003,0.003l0.058,0.043c0.058-0.059,0.137-0.083,0.221-0.092c0.021,0.064,0.021,0.129-0.021,0.192l-0.017-0.008
		l-1.09,2.153c-0.021-0.01-0.044-0.018-0.071-0.008c-0.118,0.04-0.153,0.146-0.141,0.185c-0.041-0.02-0.099,0.016-0.13,0.047
		c-0.04,0.041-0.072,0.089-0.016,0.162c0.061,0.063,0.072,0.131,0.062,0.199l-0.173,0.342c-0.059,0.009-0.125,0.011-0.214-0.01
		c-0.161-0.061-0.245,0.088-0.159,0.158c-0.116,0.037-0.166,0.09-0.171,0.175c-0.008,0.085,0.134,0.143,0.324,0.068
		c0.018-0.007,0.011,0.003,0.02,0.004l-0.019,0.036c-0.016,0.012-0.021,0.023-0.048,0.032c-0.098,0.036-0.135,0.079-0.383,0.014
		c-0.166-0.046-0.287,0.069-0.218,0.164c-0.182-0.043-0.326-0.007-0.361,0.15c-0.018,0.125,0.054,0.173,0.195,0.181
		c-0.077,0.056-0.089,0.169-0.029,0.206c0.06,0.034,0.171,0.06,0.399-0.119c0.058-0.06,0.111-0.012,0.03,0.054
		c-0.077,0.063-0.139,0.158-0.454,0.223c-0.176,0.048-0.213,0.119-0.229,0.188c-0.012,0.051,0.002,0.122,0.08,0.125
		c-0.073,0.033-0.195,0.171-0.119,0.281c0.059,0.094,0.316,0.022,0.472-0.197c-0.003,0.011-0.009,0.024-0.012,0.036l-0.112,0.222
		c-0.059,0.079-0.139,0.16-0.252,0.241c-0.138,0.114-0.23,0.208-0.196,0.257c0.021,0.037,0.087,0.026,0.116,0.008
		c-0.011,0.006-0.022,0.022-0.034,0.034c-0.136-0.04-0.265-0.085-0.389-0.13l-0.007-0.004c-0.379-0.169-0.703-0.356-0.973-0.54
		c-0.052-0.035-0.102-0.069-0.15-0.104l-0.069-0.042c-0.151-0.101-0.3-0.172-0.432-0.238l-0.006-0.004
		c-0.072-0.033-0.146-0.061-0.221-0.083l-0.023-0.004c-0.068-0.021-0.14-0.038-0.209-0.05c-0.127-0.027-0.259-0.034-0.366-0.053
		c-0.002,0.011-0.003,0.02-0.004,0.029c0.022,0.079,0.019,0.165-0.027,0.238c-0.047,0.075-0.123,0.115-0.202,0.12l-0.026,0.015
		c0.008,0.012,0.017,0.024,0.023,0.036l0.064,0.02l0.031,0.118c0.036,0.044,0.074,0.089,0.115,0.134
		c0.05,0.056,0.106,0.112,0.164,0.164l0.019,0.018c0.063,0.057,0.133,0.111,0.205,0.161c0.003,0.002,0.005,0.003,0.008,0.004
		c0.134,0.093,0.31,0.146,0.498,0.208l0.086,0.027c0.062,0.018,0.125,0.035,0.19,0.054c0.339,0.091,0.734,0.147,1.152,0.254
		l0.007,0.002c0.149,0.027,0.298,0.059,0.452,0.1c0.125,0.033,0.252,0.078,0.382,0.118l0.006,0.001l0.053,0.012
		c0.823,0.262,1.595,0.78,2.162,1.475C18.123,19.397,13.206,15.668,13.007,11.053z M17.676,10.958c-0.002,0-0.005-0.001-0.007-0.002
		l0.015,0.001C17.681,10.958,17.678,10.958,17.676,10.958z"/>
</g>
</svg>