<?xml version="1.0" encoding="iso-8859-1"?>
<!-- Uploaded to: SVG Repo, www.svgrepo.com, Generator: SVG Repo Mixer Tools -->
<!DOCTYPE svg PUBLIC "-//W3C//DTD SVG 1.1//EN" "http://www.w3.org/Graphics/SVG/1.1/DTD/svg11.dtd">
<svg fill="#000000" version="1.1" id="Capa_1" xmlns="http://www.w3.org/2000/svg" xmlns:xlink="http://www.w3.org/1999/xlink" 
	 width="800px" height="800px" viewBox="0 0 48.699 48.699"
	 xml:space="preserve">
<g>
	<path d="M35.737,9.986c-0.184,0-0.354,0.041-0.511,0.108c-0.532-2.316-2.604-4.051-5.081-4.051c-0.415,0-0.824,0.049-1.223,0.146
		c-0.217-2.329-1.969-4.219-4.232-4.643c0.063-0.136,0.101-0.284,0.101-0.441c0-0.61-0.537-1.105-1.201-1.105
		c-0.662,0-1.2,0.496-1.2,1.105c0,0.18,0.051,0.346,0.133,0.496c-2.299,0.545-4.015,2.609-4.015,5.071
		c0,0.185,0.01,0.371,0.03,0.556c-2.544-0.173-4.752,1.541-5.371,3.882c-0.066-0.011-0.135-0.019-0.205-0.019
		c-0.663,0-1.2,0.495-1.2,1.105c0,0.611,0.537,1.105,1.2,1.105c0.036,0,0.069-0.007,0.104-0.01c0.412,2.469,2.558,4.359,5.142,4.359
		c0.348,0,0.692-0.035,1.032-0.104c0.114,1.783,1.138,3.31,2.602,4.16c-0.003,0.04-0.016,0.062-0.016,0.106
		c0,0.935,0.516,1.742,1.273,2.176v1.438h-1.407v1.359H23.1v2.391h-1.407v1.359H23.1v7.799h-1.52v1.375h1.52v0.904h-4.161v3.307
		h1.773v-1.655h0.708v1.655h1.656v0.707H21.42v1.658h-0.708v-1.657h-1.773v2.987H23.1v1.083h2.5v-1.083h4.161v-2.987h-1.773v1.658
		H27.28v-1.658h-1.658v-0.707h1.656v-1.656h0.709v1.656h1.772v-3.307h-4.161v-0.904h1.277v-1.375h-1.277v-7.799h1.409v-1.359h-1.409
		v-2.391h1.409v-1.359h-1.409v-1.446c0.749-0.437,1.258-1.238,1.258-2.167c0-0.003-0.001-0.004-0.001-0.007
		c1.661-0.874,2.808-2.596,2.808-4.599c0-0.254-0.02-0.507-0.057-0.758c0.18,0.019,0.357,0.028,0.538,0.028
		c2.585,0,4.731-1.892,5.142-4.363c0.14,0.052,0.291,0.082,0.451,0.082c0.662,0,1.199-0.495,1.199-1.105
		C36.937,10.483,36.401,9.986,35.737,9.986z M30.146,15.219c-0.408,0-0.812-0.062-1.203-0.188l-1.224-0.39l0.44,1.206
		c0.162,0.445,0.246,0.903,0.246,1.361c0,2.183-1.775,3.959-3.959,3.959c-2.183,0-3.959-1.776-3.959-3.959
		c0-0.148,0.01-0.294,0.026-0.439l0.114-1.037l-0.972,0.383c-0.467,0.185-0.954,0.278-1.448,0.278c-2.183,0-3.959-1.776-3.959-3.959
		c0-2.498,2.321-4.494,4.93-3.833l1.076,0.273L19.936,7.81c-0.111-0.372-0.168-0.754-0.168-1.138c0-2.184,1.776-3.959,3.959-3.959
		c2.183,0,3.959,1.775,3.959,3.959c0,0.114-0.008,0.227-0.019,0.339l-0.088,1.056l0.971-0.428c0.507-0.224,1.045-0.337,1.596-0.337
		c2.184,0,3.959,1.775,3.959,3.958C34.104,13.443,32.327,15.219,30.146,15.219z"/>
</g>
</svg>