<?xml version="1.0" encoding="iso-8859-1"?>
<!-- Uploaded to: SVG Repo, www.svgrepo.com, Generator: SVG Repo Mixer Tools -->
<!DOCTYPE svg PUBLIC "-//W3C//DTD SVG 1.1//EN" "http://www.w3.org/Graphics/SVG/1.1/DTD/svg11.dtd">
<svg fill="#000000" version="1.1" id="Capa_1" xmlns="http://www.w3.org/2000/svg" xmlns:xlink="http://www.w3.org/1999/xlink" 
	 width="800px" height="800px" viewBox="0 0 48.387 48.387"
	 xml:space="preserve">
<g>
	<g>
		<circle cx="18.986" cy="5.86" r="3.314"/>
		<circle cx="12.616" cy="13.424" r="3.315"/>
		<circle cx="29.424" cy="5.866" r="3.314"/>
		<circle cx="35.216" cy="13.975" r="3.315"/>
		<path d="M40.076,10.188c-1.147-1.501-2.926-2.377-4.83-2.375c0.507-1.818,0.134-3.775-1.021-5.285
			c-1.076-1.412-2.715-2.276-4.493-2.373c-1.438-0.078-2.86,0.359-4.003,1.232c-0.639,0.487-1.07,1.196-1.387,2.045
			c-0.294-0.857-0.709-1.578-1.335-2.084c-0.997-0.807-2.2-1.27-3.48-1.339c-1.94-0.105-3.827,0.73-5.045,2.235
			c-1.194,1.477-1.623,3.423-1.168,5.255c-1.883-0.062-3.705,0.769-4.896,2.239c-1.017,1.256-1.482,2.836-1.313,4.448
			c0.171,1.613,0.956,3.06,2.212,4.077c0.697,0.563,1.607,0.868,2.787,0.933c2.08,0.113,4.704-0.532,7.741-1.278l0.693-0.188
			c0.251,0.755,0.728,1.41,1.353,1.885h-0.369c-0.688,0-1.246,0.558-1.246,1.246c0,0.594,0.424,1.067,0.98,1.192
			c-0.102,0.155-0.175,0.329-0.175,0.527c0,0.543,0.439,0.983,0.982,0.983h0.991c0,1.031,0,1.978,0,2.221
			c0,0.594,0.195,0.565,0.195,1.204c0,0.638-0.195,0.652-0.195,1.42c0,0.769,0,17.777,0,17.777h2.458v-3.451h1.729v5.652h3.998
			v-1.525h-2.47v-4.832h0.603h0.913v3.298h2.44v-1.526h-0.913v-1.771h0.913v-1.528h-0.913v-1.772h0.913v-1.526h-2.44v3.299h-0.913
			h-0.603v-4.832h2.47v-1.526h-3.998v5.033h-1.729c0,0,0-10.058,0-10.77c0-0.711-0.211-0.93-0.211-1.439s0.211-0.749,0.211-1.229
			c0-0.196,0-1.139,0-2.177h0.59c0.544,0,0.982-0.44,0.982-0.983c0-0.198-0.073-0.373-0.175-0.527
			c0.556-0.125,0.979-0.598,0.979-1.192c0-0.688-0.558-1.246-1.246-1.246h-0.078c0.58-0.439,1.042-1.03,1.31-1.728l0.492,0.145
			c2.583,0.716,5.021,1.393,6.985,1.5l0,0c1.553,0.083,2.725-0.193,3.579-0.848c1.286-0.98,2.112-2.405,2.329-4.01
			C41.48,13.066,41.057,11.474,40.076,10.188z M26.136,16.469c0,1.072-0.87,1.941-1.941,1.941c-1.072,0-1.941-0.87-1.941-1.941
			c0-1.073,0.87-1.942,1.941-1.942C25.267,14.526,26.136,15.396,26.136,16.469z M20.338,16.287
			c-0.003,0.066,0.009,0.128,0.009,0.193l-0.807,0.198c-2.815,0.691-5.476,1.345-7.367,1.243c-0.901-0.048-1.572-0.262-2.052-0.65
			c-0.991-0.802-1.612-1.945-1.746-3.218c-0.134-1.273,0.234-2.52,1.037-3.512c0.958-1.185,2.437-1.843,4.068-1.754
			c0.002,0,0.003,0,0.004,0l1.575,0.124l-0.45-1.515c-0.445-1.501-0.121-3.127,0.866-4.348c0.961-1.188,2.45-1.847,3.983-1.764
			c1.009,0.055,1.959,0.42,2.746,1.057c1.066,0.862,1.388,2.735,1.447,5.115c-0.071,1.314-0.074,2.739-0.071,4.245l0.004,0.171
			l-0.038,0.788C21.805,12.975,20.438,14.442,20.338,16.287z M39.999,14.502c-0.171,1.268-0.823,2.392-1.838,3.167
			c-0.605,0.462-1.5,0.655-2.737,0.587c-1.826-0.1-4.2-0.757-6.827-1.485l-0.456-0.136c0.07-1.984-1.355-3.669-3.281-3.979
			l-0.001-0.629l0.006-0.13l0.004-0.132c0.049-1.521,0.088-2.962,0.053-4.291c0.127-2.379,0.499-4.245,1.583-5.073
			c0.902-0.688,2.024-1.033,3.159-0.972c1.406,0.076,2.698,0.759,3.548,1.872c0.953,1.248,1.231,2.883,0.744,4.372l-0.495,1.501
			l1.579-0.08c1.582-0.071,3.073,0.626,4.021,1.868C39.836,11.978,40.168,13.235,39.999,14.502z"/>
	</g>
</g>
</svg>