<?xml version="1.0" encoding="iso-8859-1"?>
<!-- Uploaded to: SVG Repo, www.svgrepo.com, Generator: SVG Repo Mixer Tools -->
<!DOCTYPE svg PUBLIC "-//W3C//DTD SVG 1.1//EN" "http://www.w3.org/Graphics/SVG/1.1/DTD/svg11.dtd">
<svg fill="#000000" version="1.1" id="Capa_1" xmlns="http://www.w3.org/2000/svg" xmlns:xlink="http://www.w3.org/1999/xlink" 
	 width="800px" height="800px" viewBox="0 0 48.329 48.329"
	 xml:space="preserve">
<g>
	<g>
		<polygon points="31.213,42.546 25.511,42.518 25.508,46.961 31.213,46.99 31.213,48.329 32.75,48.329 32.75,46.092 26.688,46.092 
			26.688,43.445 32.75,43.445 32.75,41.225 31.213,41.225 		"/>
		<polygon points="17.117,41.157 15.58,41.157 15.58,43.395 21.644,43.395 21.644,46.041 15.58,46.041 15.58,48.262 17.117,48.262 
			17.117,46.939 22.819,46.969 22.821,42.525 17.117,42.496 		"/>
		<path d="M22.575,39.012c0.289,0.494,0.543,0.949,0.543,1.641c0,1.607,0,7.558,0,7.558h0.624h0.85h0.623c0,0,0-5.95,0-7.558
			c0-0.691,0.256-1.146,0.543-1.641H22.575z"/>
		<path d="M26.336,38.6c0.953-0.556,1.58-1.449,1.58-2.47c0-1.132-0.77-2.108-1.901-2.642H22.2c-1.14,0.531-1.917,1.507-1.917,2.642
			c0,1.019,0.625,1.912,1.575,2.47H26.336z"/>
		<path d="M34.297,10.495c-0.186-0.219-0.414-0.39-0.668-0.528c0.279-0.155,0.516-0.347,0.705-0.586
			c0.592-0.748,0.858-1.682,0.748-2.631c-0.108-0.95-0.582-1.798-1.33-2.391c-0.846-0.669-1.989-0.923-3.037-0.674
			c0.002-1.088-0.492-2.122-1.354-2.801c-0.628-0.497-1.415-0.771-2.216-0.771c-1.103,0-2.125,0.494-2.806,1.355
			c-0.078,0.098-0.129,0.213-0.188,0.322c-0.079-0.171-0.171-0.333-0.291-0.479C23.181,0.478,22.17,0,21.09,0
			c-0.822,0-1.625,0.287-2.26,0.807c-0.85,0.694-1.328,1.736-1.308,2.823c-1.051-0.233-2.189,0.039-3.025,0.722
			c-0.739,0.604-1.197,1.461-1.292,2.412c-0.095,0.951,0.186,1.882,0.79,2.62c0.196,0.239,0.438,0.427,0.716,0.576
			c-0.252,0.143-0.479,0.316-0.66,0.537c-0.605,0.738-0.886,1.668-0.792,2.62c0.094,0.951,0.552,1.808,1.29,2.412
			c0.834,0.686,1.973,0.958,3.025,0.727c-0.021,1.086,0.456,2.128,1.305,2.824c0.636,0.521,1.439,0.809,2.263,0.809
			c0.237,0,0.468-0.032,0.695-0.077c-0.042,0.18-0.082,0.362-0.082,0.577c0,2.187,1.361,2.41,1.361,3.794c0,1.383,0,5.668,0,6.982
			c0,0.612-0.296,1.206-0.612,1.912h3.32c-0.314-0.706-0.611-1.3-0.611-1.912c0-1.313,0-5.599,0-6.982
			c0-1.384,1.361-1.608,1.361-3.794c0-0.178-0.039-0.325-0.068-0.479c0.258,0.059,0.522,0.091,0.793,0.091l0,0
			c0.844,0,1.662-0.3,2.306-0.846c0.838-0.708,1.299-1.759,1.259-2.845c1.059,0.215,2.188-0.075,3.016-0.774
			c0.727-0.616,1.17-1.48,1.25-2.433C35.209,12.148,34.914,11.222,34.297,10.495z M25.008,1.995
			c0.902-1.139,2.683-1.352,3.826-0.444c0.701,0.554,1.084,1.417,1.024,2.307l-0.067,0.994l0.953-0.293
			c0.84-0.259,1.791-0.08,2.479,0.467c0.569,0.451,0.93,1.098,1.014,1.821c0.083,0.724-0.118,1.436-0.569,2.005
			c-0.283,0.358-0.785,0.567-1.397,0.692c-0.53-0.081-1.089-0.103-1.629-0.103c-0.149,0-0.312,0.008-0.466,0.011
			c0.119-0.293,0.199-0.584,0.188-0.875c-0.07-1.834-1.617-3.27-3.451-3.199c-0.678,0.026-1.305,0.276-1.834,0.667
			C24.645,4.241,24.414,2.747,25.008,1.995z M14.654,8.845c-0.46-0.562-0.674-1.271-0.603-1.997
			c0.073-0.725,0.422-1.377,0.984-1.837c0.483-0.396,1.093-0.613,1.717-0.613c0.255,0,0.509,0.036,0.756,0.107l0.959,0.278
			L18.382,3.79c-0.075-0.89,0.294-1.759,0.988-2.325c0.483-0.396,1.094-0.614,1.72-0.614c0.824,0,1.594,0.364,2.112,0.998
			c0.648,0.792,0.369,2.447-0.091,4.429C22.509,5.826,21.771,5.576,21,5.606c-1.833,0.068-3.269,1.619-3.198,3.452
			c0.004,0.111,0.043,0.22,0.067,0.33c-0.626,0.005-1.246,0.034-1.816,0.131C15.454,9.405,14.946,9.203,14.654,8.845z
			 M21.143,19.036c-0.627,0-1.239-0.219-1.724-0.616c-0.691-0.566-1.059-1.435-0.983-2.324l0.083-0.996l-0.957,0.28
			c-0.845,0.246-1.792,0.051-2.473-0.51c-0.562-0.46-0.911-1.112-0.982-1.837c-0.072-0.726,0.142-1.435,0.603-1.996
			c0.283-0.346,0.771-0.543,1.349-0.657c0.608,0.099,1.271,0.127,1.939,0.127c0.14,0,0.293-0.005,0.438-0.007
			c0.846,1.079,2.442,2.15,4.179,3.375l0.721,0.473c0.322,1.522,0.45,2.774,0.023,3.507c-0.31,0.256-0.646,0.527-0.938,0.855
			C22.03,18.915,21.598,19.036,21.143,19.036z M33.332,14.884c-0.674,0.571-1.619,0.779-2.465,0.55l-0.962-0.265l0.099,0.993
			c0.091,0.888-0.262,1.763-0.946,2.341c-0.49,0.415-1.114,0.643-1.757,0.643c-0.471,0-0.92-0.133-1.322-0.356
			c-0.275-0.331-0.598-0.604-0.906-0.856c-0.4-0.747-0.279-2.001,0.025-3.537l1.287-1.017c1.232-1.01,2.35-1.932,3.089-2.815
			c0.134,0.001,0.28,0.005,0.411,0.005c0.902,0,1.699-0.042,2.383-0.163c0.669,0.116,1.117,0.323,1.382,0.637
			c0.47,0.554,0.695,1.259,0.634,1.986C34.223,13.757,33.885,14.415,33.332,14.884z"/>
	</g>
</g>
</svg>