<?xml version="1.0" encoding="iso-8859-1"?>
<!-- Uploaded to: SVG Repo, www.svgrepo.com, Generator: SVG Repo Mixer Tools -->
<!DOCTYPE svg PUBLIC "-//W3C//DTD SVG 1.1//EN" "http://www.w3.org/Graphics/SVG/1.1/DTD/svg11.dtd">
<svg fill="#000000" version="1.1" id="Capa_1" xmlns="http://www.w3.org/2000/svg" xmlns:xlink="http://www.w3.org/1999/xlink" 
	 width="800px" height="800px" viewBox="0 0 49.584 49.585"
	 xml:space="preserve">
<g>
	<path d="M24.569,0c-4.287-0.033-8.502,1.142-8.502,2.417c0,2.595,1.879,19.343,1.879,20.228c0,0.69,3.991,0.793,5.751,0.806h-1.544
		v1.97h-1.611v1.789h1.611v19.511h0.626v2.863h3.49v-2.863h0.716V27.21h1.252v-1.789h-1.252v-1.97
		c2.087-0.04,4.743-0.208,4.743-0.806c0-0.983,1.79-18.08,1.79-20.228C33.519,1.325,29.006,0.039,24.569,0z M25.15,7.7
		c-1.507,0-2.729-1.224-2.729-2.729c0-1.505,1.222-2.729,2.729-2.729s2.729,1.224,2.729,2.729C27.879,6.476,26.658,7.7,25.15,7.7z"
		/>
</g>
</svg>