<?xml version="1.0" encoding="iso-8859-1"?>
<!-- Uploaded to: SVG Repo, www.svgrepo.com, Generator: SVG Repo Mixer Tools -->
<!DOCTYPE svg PUBLIC "-//W3C//DTD SVG 1.1//EN" "http://www.w3.org/Graphics/SVG/1.1/DTD/svg11.dtd">
<svg fill="#000000" version="1.1" id="Capa_1" xmlns="http://www.w3.org/2000/svg" xmlns:xlink="http://www.w3.org/1999/xlink" 
	 width="800px" height="800px" viewBox="0 0 45.422 45.422"
	 xml:space="preserve">
<g>
	<g>
		<path d="M26.003,8.462l0.012,0.015c0.023,0.035,0.053,0.068,0.082,0.1c0.053,0.054,0.127,0.096,0.197,0.154l0.028,0.022
			c0.03,0.021,0.063,0.044,0.095,0.068l0.024,0.017C26.483,8.87,26.534,8.9,26.576,8.94c0.031,0.028,0.063,0.058,0.097,0.087
			c0.014,0.014,0.028,0.027,0.043,0.041c0.028,0.028,0.057,0.057,0.084,0.085c0.017,0.015,0.026,0.031,0.039,0.049
			c0.035,0.046,0.069,0.092,0.104,0.143c0.04,0.063,0.082,0.126,0.105,0.203c0.014,0.034,0.025,0.071,0.035,0.106
			c0.083,0.271,0.023,0.569-0.135,0.782c-0.156,0.216-0.423,0.346-0.707,0.387c0.116,0.018,0.227,0.048,0.326,0.093
			c0.109,0.049,0.209,0.113,0.298,0.195c0.077,0.082,0.14,0.179,0.188,0.286c0.088,0.217,0.09,0.476-0.008,0.703l-0.01,0.024
			l-0.002,0.002c-0.021,0.063-0.057,0.115-0.09,0.167c-0.041,0.064-0.084,0.123-0.127,0.18l-0.003,0.004
			c-0.144,0.149-0.278,0.273-0.417,0.362c-0.025,0.018-0.049,0.035-0.074,0.053l-0.031,0.024c-0.068,0.058-0.143,0.099-0.193,0.151
			l-0.002,0.002c-0.027,0.029-0.056,0.059-0.08,0.091l-0.004,0.011c-0.021,0.029-0.043,0.06-0.062,0.088
			c-0.038,0.051-0.07,0.105-0.1,0.156c0.007,0.003,0.011,0.005,0.016,0.007c0.039,0.004,0.079,0.022,0.104,0.059
			c0.024,0.035,0.029,0.079,0.018,0.117c0,0.005,0.003,0.009,0.003,0.015c0.06-0.008,0.125-0.023,0.192-0.045
			c0.037-0.01,0.072-0.028,0.107-0.047l0.012-0.005c0.037-0.021,0.074-0.044,0.112-0.069l0.003-0.002
			c0.065-0.051,0.137-0.109,0.195-0.194l0.027-0.036c0.02-0.027,0.039-0.055,0.059-0.083c0.111-0.141,0.202-0.325,0.324-0.509
			l0.002-0.004c0.035-0.068,0.072-0.137,0.115-0.206c0.033-0.057,0.076-0.11,0.107-0.174l0.001-0.002l0.015-0.024
			c0.14-0.226,0.308-0.439,0.498-0.645c0.092-0.104,0.195-0.204,0.307-0.299c0.1-0.096,0.21-0.186,0.328-0.264
			c0.107-0.074,0.224-0.137,0.345-0.183c-0.31-0.114-0.56-0.331-0.798-0.557c-0.235-0.23-0.438-0.476-0.615-0.728
			c-0.021-0.033-0.044-0.069-0.064-0.104c-0.039-0.075-0.086-0.143-0.127-0.209c-0.035-0.057-0.064-0.11-0.095-0.165
			C27.03,9.038,27.021,9.018,27.009,9c-0.022-0.037-0.045-0.073-0.067-0.108c-0.013-0.019-0.022-0.038-0.033-0.055
			c-0.024-0.042-0.049-0.084-0.071-0.124c-0.029-0.059-0.07-0.105-0.104-0.155l-0.017-0.024c-0.027-0.035-0.052-0.07-0.078-0.105
			l-0.024-0.033c-0.06-0.086-0.132-0.145-0.198-0.197c-0.04-0.026-0.081-0.052-0.124-0.073l-0.017-0.009
			c-0.04-0.02-0.079-0.036-0.119-0.045c-0.059-0.018-0.114-0.031-0.165-0.039v0.008l-0.003,0.007C26,8.087,25.995,8.13,25.97,8.166
			c-0.024,0.035-0.064,0.054-0.104,0.058l-0.007,0.004l-0.006,0.004c0.022,0.043,0.052,0.088,0.082,0.134
			C25.958,8.395,25.979,8.429,26.003,8.462z"/>
		<polygon points="23.095,15.359 23.097,15.358 23.095,15.353 		"/>
		<path d="M18.091,12.108c0.022,0.033,0.045,0.067,0.065,0.104c0.039,0.074,0.086,0.141,0.127,0.209
			c0.031,0.049,0.059,0.098,0.084,0.146l0.036,0.049l0.026,0.059c0.016,0.025,0.032,0.052,0.049,0.077
			c0.012,0.02,0.023,0.037,0.033,0.055c0.025,0.043,0.05,0.083,0.072,0.123c0.029,0.059,0.069,0.105,0.103,0.155l0.018,0.025
			c0.026,0.037,0.052,0.071,0.076,0.105l0.026,0.034c0.06,0.086,0.133,0.146,0.198,0.196c0.04,0.028,0.082,0.053,0.123,0.074
			l0.019,0.008c0.038,0.021,0.077,0.036,0.119,0.047c0.057,0.017,0.113,0.03,0.164,0.037l0.001-0.007l0.002-0.008
			c-0.013-0.038-0.009-0.082,0.017-0.117c0.025-0.036,0.065-0.055,0.105-0.059l0.007-0.004l0.006-0.004
			c-0.023-0.043-0.052-0.089-0.083-0.134c-0.022-0.03-0.045-0.063-0.067-0.096l-0.011-0.013c-0.025-0.035-0.053-0.068-0.084-0.1
			c-0.051-0.054-0.126-0.096-0.195-0.153l-0.03-0.023c-0.031-0.022-0.063-0.045-0.096-0.067l-0.023-0.018
			c-0.042-0.031-0.093-0.061-0.135-0.102c-0.032-0.028-0.063-0.057-0.096-0.088c-0.014-0.013-0.029-0.027-0.044-0.041
			c-0.028-0.027-0.056-0.056-0.084-0.084c-0.016-0.014-0.026-0.031-0.039-0.048c-0.035-0.046-0.069-0.093-0.103-0.144
			c-0.04-0.062-0.082-0.126-0.105-0.202c-0.014-0.036-0.025-0.072-0.036-0.108c-0.083-0.27-0.024-0.568,0.136-0.781
			c0.155-0.215,0.422-0.347,0.707-0.388c-0.117-0.017-0.227-0.048-0.327-0.092c-0.11-0.049-0.209-0.114-0.298-0.196
			c-0.078-0.08-0.141-0.177-0.188-0.285c-0.089-0.216-0.09-0.477,0.007-0.703l0.01-0.023l0.001-0.003
			c0.021-0.062,0.058-0.115,0.091-0.167c0.041-0.064,0.084-0.123,0.127-0.18l0.002-0.004c0.143-0.149,0.279-0.273,0.417-0.362
			c0.026-0.018,0.05-0.036,0.074-0.052l0.032-0.025c0.068-0.059,0.143-0.1,0.193-0.153l0.002-0.001
			c0.028-0.029,0.055-0.06,0.079-0.091l0.006-0.009c0.021-0.03,0.042-0.061,0.063-0.089c0.038-0.052,0.07-0.106,0.098-0.156
			c-0.006-0.003-0.01-0.004-0.014-0.008c-0.04-0.003-0.08-0.021-0.105-0.058c-0.025-0.035-0.029-0.079-0.017-0.117
			c-0.001-0.005-0.002-0.009-0.003-0.016c-0.058,0.01-0.125,0.025-0.192,0.046c-0.038,0.01-0.072,0.028-0.108,0.047L19.118,8.13
			c-0.038,0.02-0.077,0.043-0.113,0.068l-0.003,0.003c-0.066,0.051-0.137,0.11-0.196,0.194l-0.028,0.036
			c-0.02,0.028-0.038,0.055-0.06,0.084c-0.109,0.141-0.2,0.325-0.322,0.509l-0.001,0.002c-0.036,0.07-0.073,0.139-0.116,0.207
			c-0.034,0.057-0.077,0.11-0.108,0.173L18.17,9.409l-0.014,0.025c-0.14,0.225-0.309,0.438-0.499,0.643
			c-0.092,0.104-0.195,0.204-0.306,0.3c-0.1,0.096-0.21,0.187-0.328,0.265c-0.108,0.072-0.224,0.135-0.345,0.181
			c0.308,0.115,0.559,0.333,0.797,0.558C17.712,11.61,17.914,11.855,18.091,12.108z"/>
		<ellipse cx="22.656" cy="10.796" rx="3.36" ry="2.364"/>
		<path d="M25.046,29.355c0-0.435-0.352-0.784-0.783-0.787H20.55c-0.433,0.003-0.784,0.354-0.784,0.787
			c0,0.357,0.243,0.646,0.57,0.744c0,0.002-0.002,0.006-0.002,0.01h4.146c0-0.004-0.002-0.008-0.002-0.01
			C24.804,30.002,25.046,29.714,25.046,29.355z"/>
		<path d="M25.046,31.031c0-0.362-0.25-0.654-0.582-0.746c0.002-0.014,0.002-0.026,0.004-0.041H20.35
			c0.002,0.015,0.004,0.027,0.005,0.04c-0.337,0.09-0.59,0.383-0.59,0.747c0,0.322,0.195,0.598,0.472,0.72h4.337
			C24.851,31.629,25.046,31.354,25.046,31.031z"/>
		<path d="M23.511,33.309c0-0.517,0.228-0.951,0.461-1.422h-2.958c0.247,0.454,0.467,0.92,0.467,1.422c0,1.15,0,12.113,0,12.113
			h2.029c0,0,0-0.42,0-1.098h3.268v-2.497h-2.335v-0.996h2.335v-2.332h0.995v2.332h2.331v0.996h-2.331v2.497h4.655v-7.229h-8.918
			C23.511,35.223,23.511,33.675,23.511,33.309z"/>
		<path d="M21.481,21.507c0,1.853,0,4.058,0,4.884c0,0.773-0.295,1.436-0.585,2.045h3.186c-0.267-0.662-0.569-1.283-0.569-1.969
			c0-0.677,0-3.014,0-4.963c1.037-0.243,1.771-0.841,1.771-1.544c0-0.153-0.047-0.299-0.111-0.439
			c5.33-0.89,9.342-4.596,9.342-9.023c0-4.349-3.873-7.995-9.061-8.966c0.029-0.076,0.051-0.153,0.051-0.232
			c0-0.718-1.25-1.3-2.794-1.3s-2.795,0.581-2.795,1.299c0,0.079,0.021,0.156,0.051,0.232c-5.188,0.971-9.059,4.617-9.059,8.966
			c0,4.315,3.813,7.938,8.94,8.942c-0.092,0.165-0.153,0.337-0.153,0.521C19.694,20.667,20.437,21.266,21.481,21.507z
			 M12.525,10.744c0.492,0.201,0.902,0.55,1.291,0.918c0.4,0.39,0.745,0.807,1.045,1.235c0.038,0.058,0.076,0.117,0.11,0.178
			c0.066,0.127,0.146,0.24,0.218,0.355c0.052,0.084,0.098,0.167,0.143,0.249l0.06,0.084l0.045,0.097
			c0.027,0.045,0.056,0.09,0.084,0.133c0.019,0.031,0.038,0.063,0.057,0.094c0.042,0.072,0.082,0.142,0.122,0.209
			c0.05,0.1,0.118,0.18,0.175,0.264l0.029,0.042c0.045,0.063,0.088,0.122,0.13,0.18l0.043,0.059
			c0.103,0.146,0.226,0.246,0.339,0.333c0.067,0.048,0.138,0.09,0.209,0.125l0.03,0.016c0.065,0.034,0.132,0.063,0.201,0.078
			c0.1,0.029,0.194,0.052,0.28,0.063l0.002-0.012l0.003-0.013c-0.021-0.066-0.015-0.14,0.029-0.2c0.043-0.062,0.111-0.093,0.179-0.1
			l0.011-0.006l0.011-0.006c-0.04-0.073-0.089-0.151-0.142-0.229c-0.038-0.05-0.076-0.105-0.114-0.163l-0.019-0.024
			c-0.042-0.06-0.089-0.117-0.141-0.168c-0.088-0.094-0.214-0.164-0.333-0.263l-0.052-0.038c-0.051-0.039-0.104-0.077-0.16-0.116
			l-0.04-0.029c-0.073-0.054-0.159-0.104-0.229-0.173c-0.054-0.048-0.107-0.098-0.164-0.148c-0.023-0.022-0.048-0.046-0.073-0.069
			c-0.048-0.048-0.095-0.096-0.144-0.144c-0.026-0.024-0.045-0.054-0.066-0.082c-0.059-0.078-0.117-0.157-0.173-0.244
			c-0.068-0.105-0.14-0.214-0.181-0.343c-0.023-0.061-0.044-0.122-0.062-0.184c-0.141-0.46-0.04-0.967,0.23-1.327
			c0.265-0.367,0.717-0.589,1.202-0.659c-0.199-0.03-0.385-0.08-0.556-0.157c-0.186-0.081-0.355-0.192-0.506-0.331
			c-0.131-0.139-0.237-0.304-0.32-0.489c-0.15-0.365-0.151-0.808,0.013-1.193l0.016-0.041l0.002-0.004
			c0.036-0.105,0.099-0.196,0.152-0.285c0.072-0.11,0.146-0.208,0.217-0.305l0.005-0.005c0.242-0.256,0.475-0.466,0.709-0.616
			c0.042-0.031,0.084-0.061,0.124-0.09l0.057-0.042c0.116-0.098,0.24-0.168,0.327-0.259l0.005-0.003
			c0.048-0.049,0.091-0.1,0.132-0.153l0.01-0.016c0.035-0.052,0.072-0.102,0.105-0.15c0.065-0.088,0.121-0.18,0.167-0.266
			c-0.007-0.005-0.015-0.008-0.021-0.013c-0.067-0.006-0.135-0.037-0.178-0.099C17.127,6.139,17.12,6.065,17.14,6
			c-0.001-0.009-0.003-0.017-0.004-0.026c-0.099,0.015-0.211,0.041-0.328,0.077C16.745,6.067,16.686,6.1,16.626,6.13l-0.02,0.009
			c-0.065,0.035-0.13,0.074-0.191,0.117L16.41,6.261c-0.111,0.086-0.232,0.185-0.332,0.329l-0.049,0.061
			c-0.032,0.046-0.065,0.092-0.101,0.142c-0.186,0.238-0.34,0.554-0.547,0.864l-0.003,0.007c-0.061,0.116-0.124,0.232-0.197,0.351
			c-0.057,0.095-0.131,0.187-0.184,0.294l-0.003,0.004l-0.022,0.042c-0.239,0.383-0.523,0.746-0.848,1.094
			c-0.154,0.177-0.331,0.347-0.52,0.507c-0.169,0.163-0.355,0.316-0.558,0.45c-0.165,0.111-0.344,0.203-0.526,0.278
			c-0.001-0.063-0.012-0.125-0.012-0.188c0-4.152,4.464-7.533,9.99-7.618c-0.174,0.313-0.4,0.594-0.661,0.826
			c-0.388,0.371-0.839,0.634-1.317,0.823c-0.063,0.024-0.129,0.045-0.195,0.064c-0.137,0.036-0.265,0.085-0.394,0.115
			c-0.106,0.028-0.207,0.051-0.308,0.072c-0.039,0.007-0.074,0.014-0.111,0.02c-0.07,0.018-0.141,0.034-0.209,0.05
			c-0.037,0.007-0.072,0.015-0.107,0.024c-0.08,0.017-0.157,0.032-0.231,0.047c-0.107,0.023-0.213,0.037-0.309,0.064l-0.049,0.014
			c-0.072,0.021-0.142,0.04-0.209,0.06l-0.068,0.02c-0.164,0.055-0.317,0.101-0.435,0.182c-0.067,0.047-0.13,0.098-0.189,0.151
			l-0.025,0.025c-0.053,0.049-0.105,0.101-0.149,0.154c-0.066,0.076-0.128,0.149-0.17,0.229l0.011,0.007l0.011,0.007
			c0.068,0.003,0.133,0.037,0.173,0.101s0.042,0.139,0.023,0.205l0.002,0.013l0.002,0.012c0.08-0.012,0.173-0.024,0.269-0.037
			c0.063-0.013,0.13-0.026,0.196-0.043l0.029-0.009C18.149,6.054,18.219,6.03,18.286,6c0.114-0.058,0.243-0.119,0.375-0.208
			l0.054-0.036c0.055-0.037,0.109-0.075,0.168-0.114l0.041-0.028c0.075-0.054,0.162-0.098,0.249-0.149
			c0.063-0.036,0.129-0.072,0.196-0.111c0.029-0.016,0.06-0.032,0.092-0.049c0.06-0.03,0.119-0.064,0.184-0.09
			c0.033-0.012,0.066-0.026,0.1-0.036c0.093-0.035,0.188-0.067,0.288-0.097c0.123-0.032,0.248-0.075,0.385-0.087
			c0.065-0.008,0.132-0.013,0.196-0.015c0.49-0.031,0.98,0.15,1.353,0.437c0.262,0.218,0.463,0.492,0.6,0.806
			c-0.101,0.177-0.221,0.342-0.37,0.475c-0.228,0.219-0.493,0.373-0.775,0.485c-0.037,0.013-0.075,0.026-0.114,0.036
			c-0.08,0.021-0.156,0.05-0.231,0.067c-0.063,0.018-0.122,0.031-0.182,0.043c-0.024,0.004-0.046,0.008-0.067,0.012
			c-0.042,0.011-0.083,0.02-0.123,0.029c-0.021,0.005-0.043,0.01-0.063,0.015c-0.047,0.009-0.092,0.017-0.136,0.027
			c-0.063,0.014-0.125,0.021-0.182,0.037l-0.028,0.009c-0.043,0.012-0.084,0.022-0.124,0.035l-0.039,0.012
			c-0.098,0.032-0.187,0.058-0.256,0.107c-0.04,0.028-0.077,0.057-0.112,0.089L19.75,7.715c-0.031,0.029-0.061,0.06-0.087,0.091
			c-0.039,0.046-0.075,0.088-0.101,0.134l0.007,0.004l0.007,0.004c0.04,0.003,0.078,0.023,0.102,0.061
			c0.022,0.037,0.025,0.081,0.014,0.12l0.001,0.008l0.001,0.007c0.048-0.007,0.102-0.014,0.158-0.021
			c0.037-0.009,0.076-0.017,0.115-0.026l0.019-0.005c0.041-0.012,0.081-0.026,0.121-0.044c0.066-0.033,0.143-0.07,0.221-0.122
			l0.031-0.021c0.032-0.022,0.065-0.045,0.099-0.068l0.024-0.016c0.044-0.032,0.095-0.058,0.147-0.088
			c0.037-0.021,0.075-0.043,0.115-0.065c0.017-0.009,0.034-0.019,0.053-0.028c0.036-0.018,0.071-0.038,0.109-0.053
			c0.019-0.007,0.039-0.016,0.059-0.022c0.055-0.021,0.11-0.04,0.17-0.057c0.072-0.02,0.146-0.044,0.227-0.052
			c0.038-0.004,0.077-0.007,0.115-0.008c0.289-0.019,0.577,0.088,0.796,0.257c0.223,0.185,0.375,0.435,0.438,0.728
			c0.025-0.117,0.064-0.228,0.118-0.33c0.219-0.446,0.729-0.722,1.23-0.646l0.027,0.004l0.002,0.001
			c0.063,0.011,0.127,0.027,0.188,0.044c0.074,0.021,0.145,0.047,0.211,0.071l0.004,0.003c0.191,0.086,0.354,0.179,0.491,0.271
			c0.026,0.018,0.051,0.035,0.075,0.052l0.033,0.023c0.078,0.051,0.151,0.087,0.219,0.121l0.002,0.001
			c0.037,0.017,0.074,0.031,0.113,0.042l0.012,0.003c0.035,0.01,0.07,0.018,0.104,0.024c0.063,0.014,0.13,0.018,0.185,0.026
			c0.002-0.005,0.002-0.01,0.002-0.015c-0.012-0.04-0.01-0.083,0.015-0.12c0.024-0.037,0.063-0.058,0.103-0.06l0.013-0.009
			c-0.028-0.053-0.07-0.104-0.118-0.155c-0.023-0.028-0.053-0.056-0.082-0.083l-0.01-0.009c-0.033-0.028-0.067-0.056-0.104-0.081
			C25.541,7.61,25.54,7.609,25.54,7.609c-0.068-0.047-0.156-0.073-0.252-0.105L25.245,7.49c-0.031-0.008-0.062-0.017-0.097-0.026
			c-0.171-0.047-0.37-0.075-0.581-0.128l-0.006-0.001c-0.072-0.014-0.148-0.03-0.227-0.052c-0.062-0.016-0.128-0.038-0.193-0.058
			L24.14,7.224l-0.026-0.005c-0.493-0.156-0.959-0.488-1.247-0.946c-0.004-0.008-0.007-0.018-0.012-0.025
			c0.021-0.05,0.03-0.106,0.055-0.154c0.374-0.759,1.238-1.227,2.094-1.098l0.043,0.006l0.006,0.001
			c0.11,0.02,0.217,0.048,0.319,0.075c0.126,0.036,0.245,0.079,0.36,0.122l0.006,0.003c0.324,0.146,0.604,0.305,0.833,0.463
			c0.045,0.03,0.088,0.06,0.129,0.088l0.06,0.04c0.129,0.087,0.256,0.146,0.369,0.204l0.006,0.004
			c0.062,0.026,0.125,0.051,0.189,0.07l0.02,0.004c0.061,0.018,0.119,0.032,0.18,0.043c0.107,0.022,0.222,0.028,0.314,0.045
			c0-0.01,0.002-0.017,0.004-0.025c-0.021-0.068-0.019-0.141,0.021-0.204c0.041-0.064,0.105-0.099,0.173-0.103l0.022-0.014
			c-0.051-0.091-0.121-0.176-0.2-0.265c-0.044-0.048-0.093-0.095-0.142-0.14L27.7,5.396c-0.057-0.048-0.115-0.095-0.177-0.137
			c-0.005-0.002-0.005-0.003-0.007-0.004c-0.115-0.08-0.267-0.125-0.428-0.179l-0.074-0.022c-0.051-0.015-0.105-0.03-0.162-0.046
			c-0.291-0.078-0.629-0.127-0.987-0.219h-0.007c-0.127-0.023-0.256-0.052-0.387-0.086c-0.107-0.028-0.217-0.066-0.328-0.102
			L25.14,4.6l-0.047-0.011c-0.838-0.266-1.631-0.829-2.117-1.606c-0.021-0.033-0.03-0.071-0.049-0.104
			c5.522,0.088,9.982,3.467,9.982,7.617c0,0.063-0.011,0.127-0.014,0.19c-0.494-0.2-0.903-0.552-1.295-0.92
			c-0.399-0.391-0.745-0.808-1.045-1.236c-0.037-0.057-0.075-0.115-0.109-0.176C30.38,8.226,30.3,8.113,30.228,7.999
			c-0.057-0.095-0.108-0.187-0.159-0.279c-0.021-0.034-0.033-0.069-0.054-0.101c-0.039-0.063-0.08-0.123-0.117-0.184
			c-0.02-0.031-0.038-0.063-0.057-0.094C29.798,7.27,29.759,7.2,29.718,7.133c-0.051-0.101-0.117-0.18-0.174-0.266l-0.031-0.042
			c-0.045-0.062-0.086-0.12-0.129-0.179l-0.043-0.059c-0.102-0.146-0.226-0.246-0.338-0.333c-0.068-0.047-0.138-0.089-0.209-0.126
			l-0.031-0.015C28.698,6.08,28.63,6.05,28.562,6.035c-0.1-0.028-0.193-0.051-0.278-0.063l-0.004,0.013l-0.002,0.013
			c0.021,0.065,0.015,0.14-0.029,0.2c-0.044,0.062-0.11,0.093-0.179,0.099l-0.012,0.007l-0.01,0.006
			c0.039,0.073,0.088,0.15,0.141,0.229c0.039,0.05,0.076,0.106,0.115,0.162l0.019,0.026c0.042,0.06,0.089,0.116,0.142,0.168
			c0.086,0.092,0.213,0.163,0.332,0.263l0.053,0.038c0.051,0.038,0.104,0.076,0.16,0.116l0.039,0.028
			c0.072,0.055,0.159,0.104,0.229,0.174c0.054,0.048,0.106,0.098,0.163,0.147c0.023,0.022,0.049,0.047,0.074,0.07
			c0.047,0.047,0.095,0.094,0.144,0.143c0.026,0.024,0.045,0.054,0.065,0.082c0.06,0.078,0.117,0.158,0.174,0.244
			c0.068,0.105,0.139,0.215,0.18,0.344c0.023,0.06,0.045,0.122,0.062,0.182c0.142,0.461,0.041,0.968-0.229,1.328
			c-0.266,0.366-0.719,0.59-1.202,0.659c0.197,0.029,0.384,0.081,0.556,0.157c0.186,0.082,0.354,0.192,0.506,0.332
			c0.132,0.138,0.236,0.301,0.32,0.487c0.149,0.365,0.151,0.808-0.013,1.193l-0.017,0.04l-0.002,0.005
			c-0.035,0.104-0.098,0.195-0.152,0.284c-0.07,0.109-0.145,0.208-0.217,0.305l-0.006,0.006c-0.242,0.254-0.475,0.465-0.709,0.615
			c-0.043,0.031-0.084,0.062-0.125,0.091l-0.055,0.041c-0.117,0.098-0.24,0.168-0.328,0.259l-0.004,0.004
			c-0.049,0.047-0.093,0.099-0.134,0.152l-0.01,0.018c-0.036,0.051-0.072,0.102-0.106,0.15c-0.063,0.088-0.119,0.18-0.166,0.265
			c0.008,0.005,0.016,0.009,0.021,0.013c0.066,0.007,0.135,0.037,0.179,0.099c0.044,0.061,0.05,0.134,0.028,0.2
			c0.003,0.008,0.003,0.017,0.005,0.025c0.101-0.016,0.212-0.04,0.328-0.077c0.063-0.017,0.122-0.049,0.185-0.079l0.018-0.009
			c0.064-0.035,0.13-0.074,0.191-0.118l0.006-0.004c0.11-0.085,0.231-0.185,0.332-0.329l0.049-0.063
			c0.033-0.046,0.065-0.092,0.101-0.14c0.187-0.239,0.341-0.554,0.547-0.865l0.004-0.006c0.062-0.117,0.124-0.233,0.196-0.351
			c0.059-0.097,0.132-0.188,0.186-0.295l0.002-0.005l0.022-0.041c0.237-0.383,0.522-0.745,0.849-1.095
			c0.154-0.177,0.33-0.346,0.519-0.508c0.17-0.163,0.356-0.314,0.559-0.449c0.164-0.11,0.341-0.201,0.521-0.274
			c-0.174,3.959-4.396,7.156-9.668,7.355c0.111-0.137,0.228-0.266,0.355-0.379c0.387-0.373,0.84-0.635,1.317-0.824
			c0.063-0.023,0.129-0.045,0.194-0.063c0.137-0.036,0.266-0.085,0.395-0.116c0.105-0.028,0.207-0.05,0.309-0.071
			c0.037-0.007,0.074-0.013,0.111-0.021c0.07-0.017,0.141-0.033,0.209-0.05c0.035-0.008,0.07-0.016,0.105-0.023
			c0.08-0.016,0.158-0.031,0.231-0.048c0.106-0.021,0.211-0.035,0.31-0.063l0.049-0.015c0.072-0.021,0.141-0.04,0.209-0.06
			l0.068-0.021c0.164-0.055,0.315-0.101,0.434-0.182c0.068-0.047,0.131-0.098,0.189-0.152l0.024-0.023
			c0.053-0.051,0.104-0.102,0.149-0.154c0.065-0.076,0.127-0.149,0.168-0.229l-0.01-0.007l-0.009-0.001
			c-0.067-0.004-0.133-0.038-0.173-0.102c-0.04-0.063-0.042-0.138-0.023-0.204l-0.002-0.014v-0.012
			c-0.082,0.011-0.174,0.023-0.271,0.036c-0.063,0.012-0.13,0.026-0.195,0.043l-0.03,0.009c-0.07,0.02-0.141,0.044-0.207,0.075
			c-0.115,0.057-0.244,0.117-0.375,0.208l-0.056,0.035c-0.054,0.037-0.106,0.075-0.166,0.114l-0.041,0.027
			c-0.075,0.055-0.162,0.099-0.25,0.15c-0.063,0.035-0.129,0.072-0.194,0.11c-0.028,0.015-0.061,0.031-0.093,0.048
			c-0.059,0.03-0.118,0.064-0.184,0.089c-0.033,0.014-0.066,0.028-0.101,0.038c-0.094,0.035-0.188,0.067-0.289,0.097
			c-0.123,0.032-0.248,0.074-0.385,0.087c-0.064,0.008-0.132,0.013-0.195,0.016c-0.49,0.03-0.981-0.15-1.354-0.437
			c-0.229-0.192-0.408-0.428-0.544-0.692c0.09-0.138,0.192-0.266,0.313-0.373c0.228-0.219,0.494-0.373,0.775-0.484
			c0.037-0.014,0.075-0.027,0.113-0.037c0.081-0.021,0.156-0.051,0.232-0.068c0.063-0.016,0.121-0.029,0.183-0.042
			c0.021-0.004,0.043-0.008,0.063-0.013c0.043-0.01,0.084-0.02,0.123-0.028c0.021-0.005,0.043-0.009,0.063-0.015
			c0.047-0.009,0.092-0.019,0.136-0.027c0.062-0.014,0.125-0.021,0.184-0.037l0.027-0.008c0.042-0.013,0.084-0.024,0.124-0.036
			l0.039-0.013c0.097-0.031,0.187-0.059,0.255-0.105c0.041-0.028,0.078-0.059,0.112-0.09l0.017-0.014
			c0.029-0.03,0.062-0.061,0.086-0.091c0.039-0.046,0.075-0.089,0.101-0.135L25.849,13.7l-0.006-0.004
			c-0.041-0.003-0.078-0.022-0.103-0.062c-0.022-0.036-0.024-0.081-0.015-0.12l0.002-0.006l-0.002-0.007
			c-0.047,0.007-0.103,0.014-0.158,0.021c-0.037,0.007-0.076,0.016-0.114,0.025l-0.019,0.005c-0.043,0.011-0.082,0.026-0.123,0.044
			c-0.066,0.033-0.143,0.069-0.221,0.122L25.06,13.74c-0.031,0.022-0.063,0.044-0.098,0.066l-0.025,0.017
			c-0.043,0.032-0.094,0.059-0.146,0.089c-0.036,0.021-0.075,0.042-0.114,0.064c-0.017,0.01-0.035,0.02-0.055,0.028
			c-0.035,0.018-0.07,0.037-0.107,0.053c-0.02,0.008-0.039,0.017-0.06,0.022c-0.056,0.021-0.108,0.039-0.17,0.057
			c-0.071,0.02-0.146,0.044-0.228,0.052c-0.037,0.004-0.076,0.007-0.114,0.008c-0.289,0.019-0.577-0.088-0.796-0.257
			c-0.223-0.186-0.375-0.435-0.438-0.728c-0.024,0.117-0.063,0.228-0.117,0.33c-0.219,0.445-0.729,0.722-1.231,0.646l-0.025-0.004
			l-0.002-0.001c-0.065-0.011-0.129-0.027-0.189-0.045c-0.073-0.021-0.145-0.046-0.211-0.071l-0.004-0.001
			c-0.191-0.086-0.354-0.18-0.491-0.272c-0.025-0.019-0.051-0.035-0.076-0.052l-0.033-0.023c-0.077-0.051-0.152-0.087-0.219-0.12
			l-0.003-0.002c-0.036-0.017-0.073-0.03-0.111-0.042l-0.012-0.002c-0.034-0.011-0.071-0.02-0.105-0.025
			c-0.063-0.014-0.13-0.018-0.185-0.026c-0.002,0.005-0.002,0.01-0.002,0.015c0.012,0.04,0.009,0.084-0.014,0.12
			c-0.023,0.038-0.062,0.058-0.102,0.061l-0.014,0.008c0.004,0.007,0.009,0.012,0.013,0.018l0.031,0.01l0.016,0.06
			c0.018,0.022,0.037,0.044,0.059,0.067c0.025,0.028,0.053,0.057,0.082,0.083l0.01,0.008c0.032,0.029,0.067,0.058,0.104,0.083
			c0.002,0,0.002,0.001,0.003,0.001c0.068,0.048,0.157,0.074,0.252,0.104l0.043,0.014c0.032,0.01,0.063,0.019,0.097,0.027
			c0.17,0.046,0.37,0.074,0.582,0.129l0.004,0.001c0.074,0.013,0.149,0.029,0.227,0.05c0.063,0.017,0.128,0.039,0.193,0.059
			l0.003,0.002l0.026,0.006c0.475,0.15,0.919,0.466,1.209,0.896c-0.002,0.004-0.004,0.01-0.006,0.014
			c-0.373,0.758-1.238,1.227-2.093,1.098l-0.044-0.006l-0.006-0.001c-0.11-0.019-0.218-0.047-0.319-0.076
			c-0.126-0.036-0.244-0.079-0.36-0.121l-0.006-0.003c-0.325-0.145-0.603-0.305-0.833-0.463c-0.045-0.03-0.088-0.06-0.13-0.088
			l-0.058-0.038c-0.131-0.088-0.258-0.149-0.37-0.206l-0.005-0.002c-0.063-0.028-0.125-0.053-0.19-0.071l-0.02-0.004
			c-0.059-0.019-0.12-0.033-0.18-0.043c-0.108-0.022-0.222-0.029-0.313-0.045c-0.001,0.009-0.002,0.017-0.004,0.025
			c0.02,0.066,0.017,0.141-0.022,0.204c-0.041,0.063-0.105,0.098-0.174,0.102l-0.021,0.014c0.006,0.01,0.015,0.021,0.021,0.03
			l0.054,0.018l0.028,0.102c0.03,0.038,0.063,0.076,0.098,0.115c0.043,0.048,0.091,0.096,0.141,0.141l0.016,0.015
			c0.056,0.049,0.114,0.096,0.177,0.139c0.003,0.001,0.004,0.002,0.007,0.003c0.114,0.08,0.266,0.125,0.427,0.178l0.074,0.024
			c0.052,0.014,0.106,0.029,0.163,0.046c0.29,0.078,0.629,0.126,0.988,0.217l0.006,0.002c0.127,0.023,0.255,0.05,0.387,0.086
			c0.107,0.028,0.217,0.066,0.327,0.1l0.005,0.003l0.045,0.01c0.707,0.225,1.367,0.668,1.854,1.264
			C16.912,17.898,12.696,14.701,12.525,10.744z"/>
	</g>
</g>
</svg>