<?xml version="1.0" encoding="iso-8859-1"?>
<!-- Uploaded to: SVG Repo, www.svgrepo.com, Generator: SVG Repo Mixer Tools -->
<!DOCTYPE svg PUBLIC "-//W3C//DTD SVG 1.1//EN" "http://www.w3.org/Graphics/SVG/1.1/DTD/svg11.dtd">
<svg fill="#000000" version="1.1" id="Capa_1" xmlns="http://www.w3.org/2000/svg" xmlns:xlink="http://www.w3.org/1999/xlink" 
	 width="800px" height="800px" viewBox="0 0 46.413 46.413"
	 xml:space="preserve">
<g>
	<path d="M36.874,10.252C36.874,4.59,30.753,0,23.206,0c-2.981,0-5.737,0.718-7.984,1.933h0.003
		c-0.004,0.001-0.008,0.003-0.011,0.005C11.776,3.8,9.538,6.829,9.538,10.252c0,4.768,4.346,8.766,10.224,9.912
		c0.05,0.013,0.097,0.026,0.14,0.036c0.12,0.02,0.207,0.034,0.281,0.046c0.044,0.007,0.086,0.019,0.129,0.025l-0.021-0.008
		c0.01,0.001,0.021,0.003,0.03,0.005v0.004c0.034,0.005,0.071,0.007,0.106,0.013c0.071,0.012,0.147,0.024,0.258,0.042
		c0.04,0.005,0.077,0.002,0.114,0.003c0.316,0.042,0.638,0.074,0.96,0.102v0.419H20.81v1.292h0.949v0.604H20.81v1.292h0.949v22.374
		h3v-4.94h2.717v4.906h5.375v-4.906H28.6v-3.977h4.25V32.59h-5.375v4.883h-2.717V24.04h0.844v-1.292h-0.844v-0.604h0.844v-1.292
		h-0.844V20.43c2.643-0.225,5.057-1.008,7.021-2.197c0.099-0.058,0.158-0.092,0.158-0.092l-0.002-0.003
		c1.435-0.895,2.619-2.005,3.469-3.265l0.049,0.032c0,0,0.041-0.05,0.104-0.161c0.063-0.109,0.152-0.263,0.263-0.449
		c0.223-0.357,0.454-0.915,0.659-1.477c0.166-0.588,0.324-1.188,0.345-1.66c0.006-0.081,0.011-0.15,0.019-0.22
		c0.008-0.102,0.016-0.203,0.02-0.304c0.01-0.158,0.014-0.255,0.014-0.255s0-0.021-0.003-0.057
		C36.871,10.298,36.874,10.275,36.874,10.252z M35.733,10.776c-0.026,0.236-0.023,0.562-0.105,0.866
		c-0.07,0.306-0.14,0.619-0.213,0.838c-0.084,0.215-0.141,0.358-0.141,0.358l-4.096-1.6c0,0-0.054,0.184-0.228,0.458
		c-0.06,0.144-0.218,0.291-0.328,0.468c-0.166,0.157-0.299,0.351-0.507,0.508c-0.096,0.083-0.191,0.167-0.286,0.25
		c-0.106,0.075-0.212,0.149-0.313,0.221c-0.192,0.153-0.414,0.262-0.588,0.369c-0.172,0.11-0.338,0.179-0.447,0.234
		c-0.111,0.053-0.174,0.083-0.174,0.083l1.851,3.992c0,0-0.113,0.054-0.284,0.135c-0.174,0.069-0.402,0.16-0.635,0.25
		c-0.23,0.094-0.465,0.178-0.641,0.228c-0.174,0.055-0.291,0.091-0.291,0.091s-0.463,0.156-0.931,0.254
		c-0.233,0.055-0.467,0.109-0.644,0.15c-0.176,0.03-0.293,0.05-0.293,0.05l-0.787-4.328c0,0-0.291,0.056-0.734,0.114
		c-0.224,0.021-0.482,0.047-0.763,0.074c-0.282,0.009-0.583,0.019-0.883,0.028c-1.211,0.016-2.38-0.215-2.381-0.215l-0.781,4.33
		c0,0-0.119-0.02-0.297-0.05c-0.178-0.041-0.414-0.096-0.65-0.15c-0.475-0.1-0.941-0.257-0.941-0.257s-0.116-0.036-0.289-0.09
		c-0.174-0.049-0.404-0.131-0.632-0.224c-0.229-0.09-0.456-0.18-0.627-0.247c-0.168-0.08-0.281-0.133-0.281-0.133l1.844-3.993
		c0,0-0.063-0.031-0.174-0.084c-0.109-0.056-0.277-0.122-0.448-0.233c-0.173-0.108-0.396-0.215-0.59-0.368
		c-0.102-0.071-0.206-0.146-0.314-0.221c-0.095-0.082-0.191-0.166-0.287-0.249c-0.21-0.158-0.341-0.351-0.51-0.507
		c-0.111-0.177-0.266-0.326-0.33-0.468c-0.172-0.275-0.227-0.459-0.227-0.458l-4.093,1.618c0,0-0.057-0.145-0.141-0.363
		c-0.079-0.22-0.146-0.538-0.219-0.848c-0.084-0.307-0.081-0.637-0.107-0.876c-0.015-0.241-0.024-0.402-0.024-0.402
		s0.01-0.159,0.024-0.397c0.026-0.236,0.022-0.562,0.105-0.865c0.072-0.307,0.139-0.619,0.213-0.839
		c0.083-0.215,0.138-0.358,0.138-0.358l4.099,1.6c0,0,0.053-0.184,0.227-0.458c0.058-0.144,0.216-0.292,0.328-0.469
		c0.165-0.157,0.298-0.35,0.505-0.508C16.51,8,16.604,7.917,16.7,7.835c0.108-0.075,0.212-0.149,0.315-0.22
		c0.193-0.153,0.414-0.261,0.587-0.369c0.172-0.111,0.337-0.18,0.447-0.233c0.111-0.054,0.175-0.084,0.175-0.084l-1.851-3.992
		c0,0,0.114-0.055,0.284-0.135c0.174-0.069,0.404-0.16,0.635-0.251c0.23-0.093,0.463-0.178,0.639-0.228
		c0.177-0.055,0.294-0.091,0.294-0.091s0.461-0.156,0.929-0.255c0.233-0.054,0.467-0.108,0.643-0.15
		c0.176-0.029,0.293-0.05,0.293-0.05l0.788,4.329c0,0,0.292-0.056,0.735-0.114c0.223-0.022,0.483-0.047,0.763-0.075
		c0.281-0.009,0.582-0.019,0.882-0.028c1.209-0.016,2.379,0.215,2.379,0.215l0.783-4.331c0,0,0.118,0.02,0.297,0.05
		c0.178,0.041,0.413,0.096,0.649,0.15c0.476,0.1,0.94,0.258,0.94,0.258s0.115,0.036,0.289,0.09C28.77,2.37,29,2.452,29.229,2.545
		c0.229,0.09,0.455,0.18,0.627,0.248c0.168,0.08,0.281,0.133,0.281,0.133L28.293,6.92c0,0,0.062,0.031,0.174,0.084
		c0.107,0.056,0.275,0.122,0.447,0.233c0.173,0.108,0.396,0.215,0.589,0.368c0.104,0.071,0.208,0.146,0.315,0.221
		c0.094,0.082,0.189,0.166,0.287,0.249c0.209,0.157,0.34,0.351,0.51,0.507c0.111,0.177,0.266,0.326,0.329,0.469
		c0.172,0.275,0.228,0.458,0.228,0.458l4.094-1.618c0,0,0.056,0.145,0.142,0.363c0.078,0.22,0.144,0.538,0.217,0.847
		c0.085,0.308,0.083,0.637,0.108,0.876c0.016,0.241,0.025,0.402,0.025,0.402S35.749,10.538,35.733,10.776z"/>
</g>
</svg>