<?xml version="1.0" encoding="iso-8859-1"?>
<!-- Uploaded to: SVG Repo, www.svgrepo.com, Generator: SVG Repo Mixer Tools -->
<!DOCTYPE svg PUBLIC "-//W3C//DTD SVG 1.1//EN" "http://www.w3.org/Graphics/SVG/1.1/DTD/svg11.dtd">
<svg fill="#000000" version="1.1" id="Capa_1" xmlns="http://www.w3.org/2000/svg" xmlns:xlink="http://www.w3.org/1999/xlink" 
	 width="800px" height="800px" viewBox="0 0 44.952 44.952"
	 xml:space="preserve">
<g>
	<path d="M36.821,10.937c0.011-1.4-0.525-2.722-1.51-3.721c-0.985-0.999-2.299-1.556-3.724-1.567c-0.089,0-0.176,0.011-0.264,0.018
		c0.012-0.105,0.022-0.21,0.023-0.317c0.021-2.893-2.312-5.267-5.244-5.291c-1.425,0-2.774,0.579-3.752,1.579
		C21.383,0.611,20.022,0.011,18.549,0c-2.87,0-5.224,2.336-5.246,5.207c-0.002,0.226,0.026,0.447,0.069,0.667
		c-2.84,0.037-5.158,2.352-5.183,5.201c-0.01,1.438,0.568,2.802,1.579,3.788c-1.027,0.97-1.626,2.325-1.637,3.762
		c-0.022,2.893,2.313,5.266,5.207,5.288h0.025c2.395,0,4.383-2.582,6.685-5.571l0.199-0.268c0.185,0.319,0.43,0.597,0.729,0.812
		V34.03h-1.485v2.219h1.484v1.167h-6.2v3h6.201v0.99h-1.672v2.219h1.672v1.327h3v-1.327h1.672v-2.219h-1.672v-0.99h6.201v-3h-6.201
		v-1.167h1.859V34.03h-1.859V18.886c0.345-0.248,0.622-0.579,0.811-0.963l0.084,0.112c2.259,3.027,4.211,5.641,6.602,5.66h0.042
		c2.87,0,5.226-2.335,5.249-5.208c0.011-1.438-0.567-2.802-1.578-3.788C36.211,13.729,36.812,12.375,36.821,10.937z M18.575,2
		c1.065,0.008,2.056,0.539,2.651,1.419l1.1,1.627l1.125-1.61c0.604-0.863,1.596-1.378,2.675-1.378
		c1.791,0.015,3.237,1.484,3.225,3.275c-0.007,0.69-0.587,1.469-1.469,2.303c-0.014,0.014-0.027,0.027-0.042,0.042
		c-0.899,0.844-2.106,1.745-3.35,2.672l-2.229,1.594l-2.171-1.614c-0.942-0.726-1.863-1.436-2.643-2.116
		c-0.383-0.419-0.767-0.796-1.157-1.12c-0.608-0.673-0.993-1.304-0.988-1.871C15.317,3.446,16.774,2,18.575,2z M18.463,17.123
		c-1.896,2.464-3.688,4.791-5.1,4.791v1l-0.01-1c-1.79-0.015-3.237-1.482-3.222-3.273c0.008-1.065,0.539-2.057,1.419-2.651
		l1.629-1.101l-1.611-1.124c-0.87-0.609-1.386-1.609-1.378-2.675c0.015-1.777,1.473-3.223,3.275-3.223
		c0.443,0.003,0.927,0.262,1.434,0.667c0.339,0.367,0.723,0.732,1.138,1.1c0.778,0.868,1.599,1.958,2.443,3.089l1.596,2.23
		l-1.548,2.085L18.463,17.123z M33.385,15.797c0.87,0.609,1.387,1.609,1.378,2.675c-0.015,1.777-1.473,3.223-3.249,3.223v1l-0.025-1
		c-1.397-0.011-3.154-2.365-5.016-4.856l-1.596-2.23l1.548-2.085l0.064-0.083c1.896-2.464,3.688-4.791,5.108-4.791
		c0.866,0.007,1.68,0.352,2.288,0.97c0.609,0.619,0.941,1.437,0.936,2.302c-0.008,1.065-0.539,2.057-1.419,2.651l-1.629,1.101
		L33.385,15.797z"/>
</g>
</svg>