<?xml version="1.0" encoding="iso-8859-1"?>
<!-- Uploaded to: SVG Repo, www.svgrepo.com, Generator: SVG Repo Mixer Tools -->
<!DOCTYPE svg PUBLIC "-//W3C//DTD SVG 1.1//EN" "http://www.w3.org/Graphics/SVG/1.1/DTD/svg11.dtd">
<svg fill="#000000" version="1.1" id="Capa_1" xmlns="http://www.w3.org/2000/svg" xmlns:xlink="http://www.w3.org/1999/xlink" 
	 width="800px" height="800px" viewBox="0 0 48.201 48.2" xml:space="preserve"
	>
<g>
	<path d="M28.292,22.059h6.186V0H13.722v22.059h6.34V48.2h8.23V22.059z M18.759,6.21c0-1.654,2.31-2.997,5.157-2.997
		c2.85,0,5.158,1.343,5.158,2.997c0,1.655-2.309,2.996-5.158,2.996C21.069,9.206,18.759,7.865,18.759,6.21z M25.275,23.753
		c0-0.335,0.271-0.608,0.607-0.608s0.607,0.273,0.607,0.608c0,0.336-0.271,0.607-0.607,0.607S25.275,24.089,25.275,23.753z
		 M21.67,26.1c0-0.336,0.271-0.607,0.607-0.607s0.608,0.271,0.608,0.607c0,0.334-0.272,0.606-0.608,0.606S21.67,26.434,21.67,26.1z
		 M24.189,27.391c0-0.714,0.577-1.293,1.292-1.293c0.714,0,1.291,0.579,1.291,1.293c0,0.713-0.577,1.291-1.291,1.291
		C24.766,28.682,24.189,28.104,24.189,27.391z M22.278,31.588c0-0.714,0.578-1.293,1.291-1.293c0.715,0,1.293,0.579,1.293,1.293
		c0,0.712-0.579,1.291-1.293,1.291C22.856,32.879,22.278,32.3,22.278,31.588z M25.481,34.175c0-0.336,0.271-0.608,0.607-0.608
		c0.335,0,0.608,0.272,0.608,0.608s-0.273,0.607-0.608,0.607C25.751,34.782,25.481,34.511,25.481,34.175z M21.323,35.736
		c0-0.527,0.428-0.954,0.955-0.954c0.528,0,0.955,0.427,0.955,0.954s-0.427,0.955-0.955,0.955
		C21.75,36.691,21.323,36.266,21.323,35.736z M24.514,38.343c0-0.714,0.578-1.291,1.292-1.291s1.292,0.577,1.292,1.291
		s-0.578,1.292-1.292,1.292S24.514,39.057,24.514,38.343z M22.278,41.021c0-0.338,0.271-0.607,0.608-0.607
		c0.336,0,0.607,0.271,0.607,0.607c0,0.334-0.271,0.606-0.607,0.606C22.549,41.629,22.278,41.355,22.278,41.021z M24.178,44.259
		c0-0.526,0.427-0.954,0.955-0.954s0.955,0.428,0.955,0.954c0,0.528-0.427,0.955-0.955,0.955S24.178,44.787,24.178,44.259z"/>
</g>
</svg>