<?xml version="1.0" encoding="iso-8859-1"?>
<!-- Uploaded to: SVG Repo, www.svgrepo.com, Generator: SVG Repo Mixer Tools -->
<!DOCTYPE svg PUBLIC "-//W3C//DTD SVG 1.1//EN" "http://www.w3.org/Graphics/SVG/1.1/DTD/svg11.dtd">
<svg fill="#000000" version="1.1" id="Capa_1" xmlns="http://www.w3.org/2000/svg" xmlns:xlink="http://www.w3.org/1999/xlink" 
	 width="800px" height="800px" viewBox="0 0 45.448 45.448"
	 xml:space="preserve">
<g>
	<path d="M30.875,0H14.572c-2.3,0-4.163,1.864-4.163,4.163v12.888c0,2.3,1.863,4.163,4.163,4.163h4.815v24.234h8.229v-2.32
		l-3.206-2.96l3.253-3.771v-1.449l-3.014-3.54l2.918-3.829v-1.104h-3.899l0.021-2.47l3.928,0.032v-2.823h3.261
		c2.3,0,4.163-1.863,4.163-4.163V4.163C35.039,1.864,33.176,0,30.875,0z M30.335,8.921H15.714V4.589h14.623L30.335,8.921
		L30.335,8.921z"/>
</g>
</svg>