<?xml version="1.0" encoding="iso-8859-1"?>
<!-- Uploaded to: SVG Repo, www.svgrepo.com, Generator: SVG Repo Mixer Tools -->
<!DOCTYPE svg PUBLIC "-//W3C//DTD SVG 1.1//EN" "http://www.w3.org/Graphics/SVG/1.1/DTD/svg11.dtd">
<svg fill="#000000" version="1.1" id="Capa_1" xmlns="http://www.w3.org/2000/svg" xmlns:xlink="http://www.w3.org/1999/xlink" 
	 width="800px" height="800px" viewBox="0 0 48.729 48.729"
	 xml:space="preserve">
<g>
	<path d="M38.245,10.835C38.245,4.76,32.148,0,24.364,0c-7.784,0-13.881,4.76-13.881,10.835c0,5.648,5.271,10.153,12.265,10.76
		c-0.523,0.21-0.861,0.516-0.861,0.861c0,0.386,0.418,0.726,1.054,0.934c-0.636,0.208-1.054,0.548-1.054,0.934
		c0,0.362,0.373,0.682,0.945,0.893c-0.572,0.21-0.945,0.53-0.945,0.893c0,0.392,0.428,0.736,1.078,0.943l-0.032,13.586l-4.462-0.024
		v-1.388h-2.414v3.312h5.577v1.736h-5.577v3.298h2.414v-1.365l4.448,0.024l-0.006,2.496h2.957l0.006-2.569l4.437,0.024v1.389h2.414
		V44.26h-5.577v-1.736h5.577v-3.297h-2.414v1.364l-4.423-0.024l0.033-13.553c0.588-0.209,0.974-0.535,0.974-0.904
		c0-0.362-0.373-0.682-0.945-0.893c0.572-0.211,0.945-0.53,0.945-0.893c0-0.367-0.384-0.687-0.966-0.897v-0.074
		c0.582-0.21,0.965-0.531,0.965-0.897c0-0.348-0.344-0.655-0.874-0.866C32.995,20.968,38.245,16.471,38.245,10.835z M25.479,5.042
		c4.331,0.36,7.813,2.777,7.942,5.632h-7.942V5.042z M23.667,5.014v5.66h-8.36C15.439,7.727,19.145,5.249,23.667,5.014z
		 M15.383,11.598h8.282v5.059C19.456,16.438,15.955,14.274,15.383,11.598z M25.479,16.629v-5.031h7.864
		C32.792,14.186,29.501,16.294,25.479,16.629z"/>
</g>
</svg>