<?xml version="1.0" encoding="iso-8859-1"?>
<!-- Uploaded to: SVG Repo, www.svgrepo.com, Generator: SVG Repo Mixer Tools -->
<!DOCTYPE svg PUBLIC "-//W3C//DTD SVG 1.1//EN" "http://www.w3.org/Graphics/SVG/1.1/DTD/svg11.dtd">
<svg fill="#000000" version="1.1" id="Capa_1" xmlns="http://www.w3.org/2000/svg" xmlns:xlink="http://www.w3.org/1999/xlink" 
	 width="800px" height="800px" viewBox="0 0 50.295 50.296"
	 xml:space="preserve">
<g>
	<g>
		<path d="M37.747,12.814c0-4.007-3.26-7.267-7.268-7.267c-0.263,0-0.521,0.016-0.779,0.044c0.187-0.665,0.146-1.298-0.694-1.298
			c-0.509,0-1.196,0-1.963,0c-0.009-0.085-0.021-0.166-0.039-0.238c-0.308-1.254-0.636-2.603-0.832-3.417
			c-0.199-0.814-1.803-0.887-2.084,0c-0.281,0.887-0.682,2.772-0.833,3.46c-0.011,0.05-0.015,0.118-0.015,0.195
			c-0.743,0-1.431,0-1.978,0c-0.96,0-1.01,0.627-0.799,1.288c-0.214-0.019-0.43-0.034-0.646-0.034c-4.007,0-7.267,3.26-7.267,7.267
			c0,4.007,3.26,7.267,7.267,7.267c0.795,0,1.573-0.136,2.312-0.387c-0.197,1.112-0.309,2.506,0.388,2.506c0.298,0,0.691,0,1.132,0
			v0.694h-0.709c-0.494,0-0.896,0.401-0.896,0.896s0.401,0.896,0.896,0.896h0.708v14.408h-4.008v-1.366h-3.993v1.366v3.67v0.005
			h3.993v-0.005h2.846c-0.234,0.416-0.379,0.889-0.379,1.401c0,0.387,0.079,0.755,0.218,1.092h-2.685v-0.002h-3.993v0.002v3.67
			v1.369h3.993v-1.369h4.008v1.246h0.001h2.999h0.002v-1.246h4.008v1.369h3.992v-1.369v-3.67v-0.002h-3.992v0.002h-3.019
			c0.14-0.337,0.218-0.705,0.218-1.092c0-0.513-0.145-0.985-0.379-1.401h3.18v0.005h3.992v-0.005v-3.67v-1.366h-3.992v1.366h-4.008
			V24.686h0.541c0.494,0,0.896-0.401,0.896-0.896s-0.4-0.896-0.896-0.896h-0.541V22.2c0.336,0,0.651,0,0.912,0
			c0.766,0,0.646-1.398,0.409-2.581c0.797,0.296,1.644,0.461,2.509,0.461C34.487,20.081,37.747,16.821,37.747,12.814z
			 M26.649,17.267V17.18h-0.002h-0.09c-0.312-0.28-0.6-0.589-0.849-0.935l-0.562-0.779l-0.561,0.779
			c-0.249,0.346-0.537,0.655-0.849,0.935h-0.09h-0.001v0.088c-1.058,0.91-2.417,1.429-3.831,1.429c-3.244,0-5.883-2.639-5.883-5.883
			s2.639-5.883,5.883-5.883c1.881,0,3.664,0.917,4.771,2.451l0.561,0.779l0.562-0.779c1.106-1.535,2.891-2.451,4.771-2.451
			c3.245,0,5.885,2.639,5.885,5.883s-2.64,5.883-5.885,5.883C29.065,18.697,27.707,18.177,26.649,17.267z"/>
		<circle cx="30.702" cy="12.757" r="3.72"/>
		<circle cx="19.638" cy="12.757" r="3.72"/>
	</g>
</g>
</svg>