<?xml version="1.0" encoding="iso-8859-1"?>
<!-- Uploaded to: SVG Repo, www.svgrepo.com, Generator: SVG Repo Mixer Tools -->
<!DOCTYPE svg PUBLIC "-//W3C//DTD SVG 1.1//EN" "http://www.w3.org/Graphics/SVG/1.1/DTD/svg11.dtd">
<svg fill="#000000" version="1.1" id="Capa_1" xmlns="http://www.w3.org/2000/svg" xmlns:xlink="http://www.w3.org/1999/xlink" 
	 width="800px" height="800px" viewBox="0 0 48.996 48.995"
	 xml:space="preserve">
<g>
	<g>
		<path d="M31.873,22.742h0.976h2.991v-3.37h2.936V3.37h-2.936V0H17.122h-0.976h-2.99v3.37h-2.935L10.22,19.372h2.936v3.37h10.749
			v0.619h-1.85v1.111h1.85v0.583h-1.438v1.11h1.438v19.244v2.813v0.772h12.827v-3.587h-9.896v-2.232h6.76v-3.587h-6.76v-2.215h3.237
			v-3.587h-3.237v-7.623h1.284v-1.111h-1.284v-0.582h2.222V23.36h-2.222v-0.619L31.873,22.742L31.873,22.742z M14.246,21.633v-3.37
			h-2.934V4.479h2.935v-3.37h1.899h0.977H34.75v3.37h2.935v13.785H34.75v3.37h-1.9h-0.977h-5.035v-0.577h5.035h0.977h1.525v-3.37
			h2.934V5.056h-2.934v-3.37H17.122h-0.976h-1.525v3.37h-2.933v12.631h2.934v3.37h9.283v0.577L14.246,21.633L14.246,21.633z
			 M14.245,14.893V7.849h2.936v-3.37h14.633v3.37h2.936v7.044h-2.936v3.371H17.181v-3.371H14.245z M32.361,19.372l0.547-0.066
			v-3.304h2.389l0.545-0.066L35.84,7.295L35.783,6.74h-2.877V3.925L32.848,3.37H16.634l-0.546,0.066V6.74h-2.389l-0.545,0.066
			l0.002,8.641l0.056,0.554h2.877v2.816l0.058,0.555h7.759v0.576l-8.19-0.001v-3.369h-2.937V6.165h2.935V2.794h0.433h17.136v3.37
			h2.936v10.413h-2.936v3.371h-0.434h-6.012v-0.576H32.361z"/>
		<rect x="15.173" y="8.732" width="1.948" height="5.497"/>
		<rect x="31.873" y="8.623" width="1.949" height="5.497"/>
		<rect x="18.078" y="15.064" width="12.856" height="2.609"/>
		<rect x="18.078" y="4.939" width="12.856" height="2.609"/>
	</g>
</g>
</svg>