<?xml version="1.0" encoding="iso-8859-1"?>
<!-- Uploaded to: SVG Repo, www.svgrepo.com, Generator: SVG Repo Mixer Tools -->
<!DOCTYPE svg PUBLIC "-//W3C//DTD SVG 1.1//EN" "http://www.w3.org/Graphics/SVG/1.1/DTD/svg11.dtd">
<svg fill="#000000" version="1.1" id="Capa_1" xmlns="http://www.w3.org/2000/svg" xmlns:xlink="http://www.w3.org/1999/xlink" 
	 width="800px" height="800px" viewBox="0 0 47.192 47.192"
	 xml:space="preserve">
<g>
	<g>
		<path d="M37.728,11.612c-0.004-0.047-0.006-0.102-0.01-0.162c-0.008-0.182-0.021-0.431-0.062-0.725
			c-0.157-1.139-0.44-2.154-0.865-3.09c-0.575-1.304-1.473-2.566-2.602-3.657c-1.229-1.172-2.757-2.144-4.408-2.808l-0.593-0.245
			l-0.717-0.218c-0.112-0.032-0.224-0.065-0.334-0.098c-0.313-0.095-0.637-0.191-0.973-0.253l-0.068-0.014
			c-0.407-0.083-0.83-0.168-1.279-0.215l-1.227-0.105c-0.294-0.027-0.583-0.024-0.87-0.018c-0.099,0.002-0.197,0.003-0.295,0.003
			H23.32l-0.602,0.006c-0.144,0.005-0.284,0.022-0.423,0.039L21.06,0.19l-1.029,0.206c-1.304,0.272-2.297,0.672-2.92,0.945
			L16.826,1.46l-1.06,0.546c-0.164,0.087-0.412,0.218-0.652,0.39c-0.666,0.432-1.452,0.979-2.227,1.768
			c-0.981,0.972-1.767,2.05-2.357,3.248c-0.036,0.082-0.073,0.163-0.111,0.244c-0.109,0.236-0.233,0.503-0.315,0.77L9.917,8.959
			C9.875,9.09,9.841,9.226,9.808,9.363L9.77,9.517c-0.19,0.692-0.241,1.387-0.29,2.059L9.448,11.99l0.031,0.411
			c0.05,0.672,0.101,1.368,0.288,2.053l0.042,0.168c0.032,0.134,0.066,0.269,0.119,0.437l0.163,0.458
			c0.095,0.306,0.218,0.571,0.328,0.806c0.038,0.082,0.075,0.164,0.132,0.29c0.568,1.154,1.355,2.231,2.327,3.194
			c0.785,0.799,1.57,1.347,2.202,1.755c0.276,0.196,0.526,0.328,0.69,0.415l0.556,0.297l0.774,0.362
			c0.633,0.276,1.627,0.676,2.936,0.953l0.947,0.191l0.129,0.014c0,0.013-0.006,0.025-0.006,0.037c0,0.542,0.432,1.019,1.087,1.313
			c-0.655,0.255-1.087,0.668-1.087,1.138c0,0.544,0.579,1.011,1.417,1.245v4.035h-0.434v1.645h0.434v7.849h-4.107
			c-0.002,0-0.003,0-0.004,0c-0.86,0-1.688,0.157-2.331,0.444c-1.366,0.608-1.513,1.588-1.513,1.981v3.711h2.57V43.84
			c0.231-0.1,0.671-0.216,1.274-0.216c0.001,0,0.002,0,0.003,0h4.107v2.146h2.568v-2.146h4.108c0.001,0,0.001,0,0.003,0
			c0.604,0,1.043,0.117,1.273,0.216v3.353h2.57v-3.714c-0.002-1.429-1.582-2.424-3.843-2.424c-0.001,0-0.003,0-0.004,0h-4.106
			v-7.849h0.434v-1.645h-0.434v-4.086c0.742-0.249,1.24-0.688,1.24-1.194c0-0.47-0.431-0.883-1.087-1.138
			c0.656-0.295,1.087-0.771,1.087-1.313c0-0.021-0.009-0.041-0.01-0.062c0.259-0.043,0.523-0.081,0.773-0.131l0.054-0.011
			c0.35-0.065,0.673-0.162,0.985-0.256c0.111-0.033,0.223-0.067,0.346-0.101l0.621-0.185l0.672-0.272
			c1.658-0.667,3.186-1.639,4.42-2.815c1.124-1.086,2.021-2.349,2.591-3.643c0.429-0.947,0.713-1.961,0.87-3.101
			c0.041-0.293,0.053-0.542,0.062-0.724c0.002-0.061,0.004-0.115,0.01-0.195l0.017-0.346L37.728,11.612z M35.632,12.19
			c-0.004,0.066-0.01,0.142-0.014,0.227c-0.007,0.141-0.016,0.315-0.043,0.52c-0.126,0.907-0.352,1.709-0.695,2.462
			c-0.463,1.036-1.197,2.052-2.117,2.935c-1.039,0.981-2.336,1.799-3.756,2.367l-0.539,0.222l-0.553,0.163
			c-0.117,0.033-0.236,0.068-0.354,0.104c-0.273,0.082-0.531,0.159-0.793,0.207l-0.084,0.017c-0.37,0.074-0.721,0.145-1.043,0.178
			l-1.206,0.104c-0.224,0.021-0.442,0.015-0.658,0.011c-0.104-0.001-0.208-0.003-0.311-0.003l-0.104,0.001l-0.531-0.003
			c-0.096-0.003-0.188-0.015-0.281-0.026c-0.07-0.008-0.14-0.016-0.196-0.022l-0.987-0.108l-0.883-0.177
			c-1.121-0.231-1.981-0.575-2.542-0.817l-1.177-0.577c-0.134-0.071-0.301-0.158-0.508-0.302c-0.57-0.365-1.241-0.825-1.897-1.483
			c-0.816-0.797-1.466-1.672-1.911-2.558c-0.042-0.094-0.086-0.188-0.13-0.282c-0.089-0.189-0.173-0.368-0.239-0.574l-0.163-0.45
			c-0.027-0.084-0.047-0.172-0.069-0.258l-0.055-0.215c-0.136-0.488-0.177-1.049-0.221-1.643l-0.017-0.22l0.017-0.22
			c0.044-0.594,0.084-1.154,0.223-1.651l0.052-0.202c0.022-0.088,0.043-0.177,0.058-0.226l0.189-0.527
			c0.053-0.167,0.137-0.346,0.226-0.535c0.044-0.094,0.087-0.188,0.108-0.238c0.466-0.929,1.116-1.804,1.942-2.611
			c0.646-0.648,1.317-1.109,1.921-1.496c0.172-0.121,0.332-0.204,0.473-0.278l0.583-0.308l0.606-0.276
			c0.55-0.238,1.411-0.58,2.526-0.811l0.889-0.178l1.179-0.13c0.093-0.011,0.187-0.021,0.255-0.026l0.541-0.003h0.124
			c0.104,0,0.207-0.001,0.311-0.004c0.217-0.004,0.433-0.009,0.662,0.012l1.187,0.103c0.338,0.036,0.688,0.106,1.059,0.181
			l0.097,0.019c0.249,0.046,0.507,0.123,0.78,0.204c0.117,0.036,0.236,0.071,0.343,0.102l0.563,0.166l0.545,0.225
			c1.416,0.566,2.711,1.383,3.746,2.36c0.926,0.887,1.66,1.903,2.125,2.949c0.34,0.742,0.565,1.545,0.691,2.454
			c0.028,0.203,0.035,0.378,0.042,0.518c0.004,0.085,0.009,0.161,0.011,0.192l0.012,0.236L35.632,12.19z"/>
		<path d="M30.714,13.889c0.635-0.241,1.125-0.533,1.562-0.735c0.415-0.21,0.781-0.338,1.141-0.311
			c0.01,0.001,0.045-0.304,0.037-0.304l-4.672-0.291c0,0,0.003,0.062-0.021,0.15c-0.023,0.088-0.035,0.211-0.08,0.324
			c-0.071,0.232-0.191,0.439-0.191,0.44c-0.029,0.055-0.016,0.123,0.023,0.184c0.043,0.06,0.117,0.115,0.211,0.15
			c0.597,0.237,1.133,0.05,1.498-0.132c0.11-0.06,0.266-0.15,0.312-0.146l0,0l0.073-0.198l-0.791-0.137l-0.063,0.172l0.441,0.092
			c-0.021,0.006-0.221,0.138-0.516,0.205c-0.287,0.075-0.619,0.102-0.869,0.017c-0.079-0.027-0.123-0.088-0.098-0.137
			c-0.006-0.003,0.088-0.135,0.147-0.315c0.075-0.175,0.12-0.389,0.141-0.5l3.521,0.342c-0.263,0.113-0.531,0.27-0.837,0.438
			c-0.326,0.159-0.646,0.354-1.059,0.507l-0.291,0.114c-1.053,0.333-1.197,0.275-2.021-0.098c-0.176-0.083-0.284-0.144-0.364-0.196
			c0.39-0.46,0.627-0.99,0.627-1.562c0-0.563-0.231-1.083-0.608-1.538c0.078-0.048,0.187-0.105,0.332-0.175
			c0.821-0.375,0.967-0.434,2.023-0.107l0.29,0.113c0.808,0.319,1.385,0.712,1.901,0.938l-3.519,0.357
			c-0.008,0.002-0.026-0.221-0.114-0.421c-0.037-0.103-0.074-0.205-0.117-0.274c-0.037-0.072-0.062-0.12-0.062-0.12
			c-0.013-0.025-0.009-0.052,0.01-0.079c0.02-0.025,0.051-0.046,0.088-0.059c0.492-0.173,0.957-0.018,1.28,0.158
			c0.036,0.02,0.071,0.039,0.104,0.057l-0.439,0.094l0.062,0.171l0.789-0.14l-0.072-0.198h0.001
			c-0.048,0.004-0.199-0.087-0.313-0.146c-0.185-0.084-0.41-0.182-0.662-0.222c-0.256-0.039-0.543-0.013-0.836,0.097
			c-0.096,0.036-0.17,0.09-0.211,0.152c-0.041,0.061-0.052,0.126-0.022,0.183c0,0,0.122,0.208,0.194,0.44
			c0.049,0.111,0.058,0.236,0.082,0.323c0.022,0.088,0.022,0.15,0.022,0.15l4.672-0.311c0.009-0.001-0.035-0.305-0.041-0.303
			c-0.36,0.027-0.728-0.097-1.142-0.308c-0.443-0.198-0.934-0.487-1.569-0.727c0,0-0.073-0.029-0.146-0.057
			c-0.073-0.027-0.151-0.05-0.151-0.05c-0.545-0.169-0.866-0.224-1.177-0.192c-0.305,0.029-0.582,0.142-1.022,0.372
			c-0.134,0.07-0.231,0.127-0.315,0.181c-0.092-0.104-0.199-0.196-0.309-0.291c0.092-0.05,0.188-0.104,0.318-0.19
			c0.794-0.537,0.888-0.697,0.836-1.521l-0.029-0.229c-0.199-0.915-0.339-1.786,0.051-2.428l-0.272-0.126l-2.07,3.493l-0.05,0.084
			l0.062,0.027c0,0,0.199,0.072,0.387,0.171c0.096,0.049,0.189,0.098,0.261,0.134c0.067,0.042,0.114,0.07,0.114,0.07
			c0.052,0.033,0.125,0.039,0.213,0.019c0.085-0.019,0.173-0.063,0.242-0.123c0.443-0.366,0.408-0.791,0.328-1.072
			c-0.023-0.091-0.063-0.219-0.045-0.252v0.001l-0.178-0.093l-0.41,0.531l0.153,0.081l0.246-0.294
			c0.007,0.028,0.015,0.057,0.022,0.087c0.078,0.254,0.107,0.616-0.244,0.932c-0.055,0.05-0.137,0.069-0.182,0.041
			c0,0-0.129-0.085-0.292-0.163c-0.157-0.089-0.348-0.167-0.446-0.207l1.64-2.533c-0.052,0.561,0.138,1.024,0.239,1.644l0.029,0.229
			c0.043,0.396,0.016,0.625-0.08,0.814c-0.101,0.188-0.285,0.339-0.636,0.591c-0.125,0.089-0.224,0.154-0.305,0.201
			c-0.753-0.608-1.83-1.005-3.048-1.063c-0.016-0.08-0.028-0.186-0.039-0.323c-0.045-0.765-0.03-0.878,0.638-1.406l0.2-0.146
			c0.562-0.375,1.074-0.608,1.51-1.061l-0.961,2.78c0,0-0.05-0.013-0.125-0.032c-0.074-0.021-0.173-0.044-0.273-0.06
			c-0.201-0.037-0.403-0.068-0.403-0.068c-0.026-0.003-0.05-0.02-0.065-0.045c-0.016-0.025-0.023-0.056-0.021-0.089
			C24.915,8,25.218,7.771,25.478,7.63c0.031-0.018,0.059-0.034,0.084-0.049L25.49,7.932l0.169,0.03l0.154-0.617L25.618,7.31l0,0
			c-0.013,0.035-0.143,0.104-0.232,0.157c-0.28,0.146-0.637,0.435-0.639,0.952c-0.002,0.084,0.021,0.165,0.061,0.229
			c0.041,0.064,0.095,0.103,0.154,0.109c0,0,0.207,0.033,0.414,0.07c0.207,0.039,0.409,0.098,0.409,0.098l0.065,0.017l0.035-0.089
			l1.465-3.731L27.058,5.04c-0.135,0.363-0.406,0.662-0.76,0.971c-0.363,0.369-0.759,0.535-1.199,0.848l-0.199,0.147
			c-0.348,0.262-0.518,0.444-0.607,0.662c-0.088,0.216-0.087,0.464-0.038,0.89c0.016,0.137,0.035,0.229,0.054,0.319
			c-0.058-0.001-0.112-0.012-0.171-0.012c-0.094,0-0.181,0.015-0.273,0.019c-0.013-0.091-0.029-0.187-0.063-0.327
			c-0.105-0.425-0.195-0.673-0.363-0.888c-0.17-0.219-0.409-0.396-0.868-0.66L22.308,6.86c-0.57-0.301-1.072-0.499-1.557-0.803
			c-0.465-0.266-0.833-0.52-1.075-0.839l-0.274,0.09l2.859,3.637c0,0,0.22-0.055,0.44-0.11c0.223-0.04,0.446-0.078,0.446-0.078
			c0.06-0.006,0.101-0.046,0.12-0.109c0.018-0.063,0.012-0.144-0.021-0.228c-0.194-0.519-0.663-0.804-1.019-0.95
			c-0.115-0.053-0.28-0.122-0.306-0.156l0,0L21.728,7.35l0.388,0.616l0.17-0.03L22.08,7.585c0.017,0.008,0.244,0.107,0.472,0.262
			c0.23,0.149,0.456,0.377,0.548,0.59c0.029,0.068,0.011,0.128-0.041,0.133c0,0-0.598,0.097-0.799,0.164L20.266,6.02
			c0.578,0.369,1.229,0.62,1.959,0.994l0.263,0.145c0.89,0.527,0.938,0.638,1.173,1.404c0.041,0.142,0.066,0.249,0.081,0.33
			c-1.184,0.075-2.226,0.468-2.959,1.063c-0.117-0.046-0.262-0.112-0.474-0.221c-0.488-0.255-0.748-0.407-0.917-0.595
			c-0.167-0.194-0.255-0.419-0.319-0.817l-0.031-0.229c-0.031-0.306-0.033-0.582-0.047-0.845c0.001-0.242-0.045-0.497-0.11-0.727
			l2.603,2.469c0,0-0.047,0.02-0.119,0.05c-0.072,0.03-0.167,0.069-0.257,0.119c-0.092,0.048-0.184,0.096-0.253,0.131
			c-0.066,0.041-0.111,0.068-0.111,0.068c-0.022,0.014-0.058,0.017-0.101,0.009c-0.043-0.008-0.086-0.026-0.125-0.05
			c-0.506-0.319-0.567-0.679-0.559-0.934c0-0.03,0-0.059,0-0.085l0.373,0.293l0.154-0.08l-0.638-0.533l-0.179,0.092
			c0.033,0.032,0.026,0.16,0.026,0.251c-0.011,0.278,0.066,0.71,0.695,1.076c0.1,0.06,0.214,0.104,0.321,0.124
			c0.108,0.02,0.194,0.015,0.246-0.018c0,0,0.047-0.034,0.124-0.074c0.077-0.04,0.179-0.093,0.281-0.145
			c0.209-0.097,0.421-0.182,0.421-0.182l-3.365-3.392L18.167,5.84c0.571,0.559,0.521,1.273,0.595,2.23l0.031,0.23
			c0.164,0.823,0.307,0.982,1.403,1.524c0.199,0.097,0.354,0.165,0.485,0.217c-0.108,0.094-0.212,0.188-0.304,0.292
			c-0.124-0.061-0.28-0.128-0.492-0.212c-0.589-0.233-0.954-0.347-1.337-0.377c-0.191-0.015-0.386-0.01-0.62,0.016
			c-0.225,0.032-0.482,0.087-0.813,0.17c0,0-0.092,0.024-0.184,0.047c-0.089,0.028-0.178,0.056-0.178,0.056
			c-0.752,0.238-1.414,0.517-1.818,0.729c-0.416,0.217-0.78,0.343-1.14,0.321c0,0-0.052,0.29-0.043,0.292l5.443,0.304l0.154,0.01
			c-0.002,0,0.008-0.072,0.011-0.072c0.008,0.003,0.027-0.226,0.114-0.432c0.037-0.106,0.076-0.21,0.12-0.281
			c0.039-0.074,0.064-0.123,0.064-0.123c0.027-0.058,0.01-0.12-0.053-0.182s-0.165-0.117-0.29-0.153
			c-0.388-0.114-0.746-0.137-1.067-0.104c-0.311,0.04-0.583,0.137-0.803,0.22c-0.147,0.055-0.327,0.148-0.389,0.143h0.001
			l-0.073,0.198l1.019,0.145l0.063-0.173l-0.571-0.096c0.041-0.018,0.083-0.037,0.128-0.056c0.398-0.17,0.952-0.328,1.603-0.149
			c0.103,0.026,0.167,0.088,0.141,0.138c0,0-0.019,0.035-0.048,0.092c-0.027,0.058-0.077,0.13-0.104,0.221
			c-0.033,0.089-0.066,0.185-0.098,0.271c-0.02,0.091-0.037,0.172-0.048,0.227l-4.377-0.365c0.13-0.058,0.264-0.125,0.402-0.202
			c0.07-0.04,0.143-0.079,0.217-0.12c0.086-0.04,0.188-0.077,0.284-0.118c0.392-0.161,0.801-0.345,1.294-0.497l0.351-0.111
			c1.279-0.318,1.457-0.258,2.55,0.121c0.238,0.086,0.399,0.152,0.507,0.206c-0.371,0.452-0.599,0.968-0.599,1.525
			c0,0.568,0.236,1.094,0.62,1.552c-0.107,0.056-0.278,0.126-0.541,0.22c-1.097,0.376-1.277,0.435-2.553,0.108l-0.351-0.111
			c-0.496-0.153-0.897-0.344-1.293-0.504c-0.209-0.079-0.366-0.165-0.497-0.242c-0.139-0.077-0.272-0.145-0.403-0.204l4.382-0.347
			c0.008-0.002,0.027,0.221,0.115,0.421c0.036,0.103,0.075,0.205,0.117,0.274c0.038,0.072,0.063,0.12,0.063,0.12
			c0.013,0.024,0.005,0.052-0.023,0.078c-0.027,0.025-0.069,0.047-0.119,0.061c-0.648,0.173-1.209,0.017-1.602-0.159
			c-0.045-0.019-0.088-0.039-0.126-0.056l0.569-0.095l-0.063-0.171l-1.021,0.14l0.073,0.198l0,0c0.06-0.004,0.245,0.087,0.385,0.144
			c0.221,0.084,0.494,0.182,0.805,0.223c0.317,0.039,0.68,0.013,1.067-0.097c0.125-0.036,0.228-0.091,0.292-0.153
			c0.062-0.061,0.084-0.126,0.055-0.182c0,0-0.116-0.19-0.182-0.406c-0.044-0.103-0.064-0.214-0.083-0.297
			c-0.018-0.083-0.03-0.138-0.03-0.138c-0.003,0-0.006-0.072-0.006-0.072l-0.154,0.008l-5.446,0.283
			c-0.008,0.001,0.033,0.294,0.038,0.293c0.359-0.021,0.724,0.106,1.14,0.326c0.397,0.216,1.06,0.499,1.812,0.739
			c0,0,0.087,0.029,0.176,0.058c0.091,0.024,0.182,0.049,0.182,0.049c0.654,0.169,1.044,0.224,1.434,0.192
			c0.384-0.028,0.75-0.142,1.343-0.372c0.23-0.089,0.399-0.162,0.526-0.225c0.102,0.111,0.221,0.212,0.342,0.313
			c-0.14,0.054-0.312,0.131-0.533,0.238c-0.551,0.271-0.852,0.448-1.043,0.657c-0.185,0.205-0.289,0.47-0.349,0.868l-0.031,0.23
			c-0.068,0.954-0.017,1.669-0.587,2.232l0.255,0.128l3.349-3.401c0,0-0.21-0.089-0.421-0.179c-0.103-0.053-0.205-0.106-0.281-0.145
			c-0.078-0.038-0.125-0.072-0.125-0.072c-0.052-0.033-0.138-0.039-0.246-0.02c-0.105,0.021-0.221,0.065-0.319,0.125
			c-0.626,0.367-0.703,0.801-0.688,1.075c0,0.092,0.007,0.221-0.026,0.252l0,0l0.178,0.092l0.635-0.534l-0.154-0.081l-0.373,0.295
			c0.001-0.014-0.005-0.192,0.069-0.399c0.072-0.212,0.236-0.461,0.486-0.621c0.079-0.05,0.18-0.07,0.225-0.041
			c0,0,0.033,0.02,0.085,0.053c0.054,0.027,0.128,0.065,0.208,0.107c0.157,0.089,0.35,0.162,0.448,0.204l-2.588,2.476
			c0.063-0.229,0.109-0.487,0.106-0.726c0.013-0.261,0.015-0.541,0.044-0.843l0.03-0.231c0.063-0.398,0.147-0.62,0.314-0.815
			c0.168-0.189,0.427-0.342,0.913-0.597c0.248-0.129,0.403-0.197,0.522-0.24c0.733,0.571,1.758,0.943,2.915,1.013
			c-0.006,0.084-0.026,0.198-0.079,0.387c-0.232,0.765-0.281,0.878-1.168,1.406l-0.261,0.146c-0.728,0.373-1.379,0.627-1.956,0.998
			l1.981-2.718c0,0,0.05,0.012,0.124,0.031c0.074,0.021,0.174,0.045,0.274,0.061c0.201,0.036,0.403,0.069,0.403,0.069
			c0.026,0.002,0.044,0.018,0.052,0.044c0.007,0.025,0.004,0.056-0.011,0.09c-0.178,0.434-0.575,0.663-0.907,0.804
			c-0.038,0.017-0.074,0.033-0.107,0.048l0.203-0.35l-0.169-0.031l-0.386,0.617l0.194,0.035c0.026-0.034,0.19-0.104,0.305-0.156
			c0.354-0.146,0.823-0.436,1.013-0.952c0.032-0.083,0.039-0.165,0.02-0.229s-0.061-0.104-0.121-0.109c0,0-0.223-0.037-0.446-0.077
			c-0.223-0.047-0.441-0.109-0.441-0.109l-2.84,3.645l0.274,0.09c0.242-0.319,0.607-0.575,1.071-0.842
			c0.484-0.311,0.984-0.502,1.553-0.809l0.261-0.147c0.458-0.263,0.695-0.443,0.865-0.662c0.167-0.215,0.256-0.464,0.359-0.89
			c0.04-0.164,0.062-0.284,0.073-0.382c0.083,0.003,0.162,0.018,0.246,0.018c0.055,0,0.107-0.01,0.162-0.011
			c-0.024,0.097-0.046,0.216-0.067,0.378c-0.052,0.425-0.055,0.674,0.032,0.889c0.089,0.216,0.258,0.403,0.604,0.664l0.199,0.148
			c0.438,0.318,0.83,0.478,1.192,0.853c0.351,0.311,0.621,0.61,0.752,0.974l0.293-0.082l-1.441-3.737l-0.034-0.09l-0.065,0.017
			c0,0-0.203,0.06-0.408,0.096c-0.207,0.039-0.414,0.069-0.414,0.069c-0.061,0.006-0.113,0.045-0.154,0.109
			c-0.041,0.063-0.064,0.145-0.062,0.228c-0.002,0.517,0.353,0.808,0.632,0.955c0.089,0.053,0.219,0.123,0.231,0.156l0.195-0.035
			l-0.15-0.618l-0.168,0.03l0.069,0.352c-0.026-0.016-0.055-0.032-0.084-0.049c-0.26-0.141-0.562-0.374-0.58-0.808
			c-0.003-0.067,0.035-0.128,0.087-0.133c0,0,0.15-0.019,0.325-0.052c0.177-0.027,0.374-0.077,0.476-0.105l0.943,2.783
			c-0.434-0.452-0.943-0.689-1.501-1.064L25,16.826c-0.664-0.528-0.677-0.645-0.627-1.408c0.016-0.187,0.036-0.299,0.06-0.383
			c1.187-0.056,2.24-0.432,2.99-1.013c0.088,0.046,0.192,0.112,0.344,0.221c0.35,0.254,0.533,0.407,0.631,0.595
			c0.097,0.192,0.121,0.418,0.076,0.815l-0.03,0.23c-0.104,0.62-0.3,1.082-0.249,1.645l-1.624-2.542c0,0,0.047-0.02,0.118-0.05
			c0.072-0.029,0.167-0.068,0.258-0.119c0.092-0.048,0.184-0.096,0.252-0.131c0.066-0.041,0.111-0.068,0.111-0.068
			c0.021-0.014,0.053-0.017,0.088-0.009c0.033,0.009,0.066,0.026,0.094,0.051c0.35,0.319,0.314,0.678,0.238,0.934
			c-0.01,0.029-0.018,0.059-0.023,0.085l-0.244-0.293l-0.154,0.08L27.718,16l0.18-0.092c-0.02-0.032,0.021-0.161,0.044-0.252
			c0.085-0.276,0.12-0.708-0.32-1.074c-0.069-0.061-0.155-0.104-0.241-0.124c-0.086-0.021-0.16-0.015-0.213,0.017
			c0,0.001-0.044,0.031-0.113,0.07c-0.071,0.037-0.166,0.085-0.262,0.134c-0.189,0.096-0.388,0.171-0.388,0.171l-0.063,0.026
			l0.049,0.084l2.049,3.504l0.273-0.126c-0.387-0.645-0.242-1.518-0.037-2.431l0.03-0.229c0.058-0.823-0.034-0.983-0.825-1.522
			c-0.146-0.099-0.258-0.164-0.356-0.216c0.12-0.101,0.241-0.201,0.343-0.312c0.089,0.058,0.199,0.122,0.352,0.2
			c0.44,0.228,0.719,0.339,1.023,0.368c0.312,0.031,0.629-0.029,1.176-0.198C30.423,14.004,30.714,13.889,30.714,13.889z
			 M20.391,12.556c-0.053-0.174-0.098-0.366-0.098-0.575c0.001-0.284,0.081-0.55,0.163-0.752c0.032-0.069,0.057-0.139,0.098-0.205
			c0.009-0.016,0.02-0.038,0.028-0.052c0.591-0.902,1.961-1.535,3.556-1.535c2.132,0,3.867,1.132,3.867,2.524
			s-1.734,2.524-3.867,2.524C22.321,14.485,20.804,13.661,20.391,12.556z"/>
		<path d="M27.396,11.981c0-0.062-0.01-0.146-0.025-0.272c-0.027-0.16-0.095-0.403-0.251-0.657
			c-0.288-0.483-0.884-0.916-1.549-1.128c-0.509-0.171-0.998-0.208-1.32-0.208c-0.18,0-0.348,0.011-0.498,0.029
			c-0.491,0.056-0.809,0.175-0.805,0.175c0,0-0.09,0.022-0.235,0.084c-0.114,0.047-0.327,0.135-0.554,0.285
			c-0.284,0.183-0.506,0.387-0.678,0.622c-0.238,0.318-0.371,0.701-0.374,1.081c0.003,0.376,0.136,0.759,0.372,1.077
			c0.173,0.236,0.396,0.439,0.678,0.622c0.227,0.148,0.432,0.234,0.553,0.285c0.058,0.024,0.149,0.061,0.22,0.08
			c0.133,0.066,0.376,0.129,0.821,0.18c0.151,0.018,0.319,0.029,0.497,0.029c0.324,0,0.814-0.036,1.319-0.207
			c0.669-0.212,1.265-0.646,1.552-1.126c0.157-0.256,0.225-0.5,0.254-0.673C27.388,12.128,27.397,12.043,27.396,11.981z
			 M26.706,12.084c-0.002,0.021-0.005,0.046-0.008,0.073c-0.02,0.103-0.062,0.261-0.167,0.432c-0.205,0.344-0.666,0.672-1.176,0.834
			c-0.411,0.138-0.812,0.167-1.076,0.167c-0.146,0-0.283-0.008-0.408-0.023c-0.397-0.045-0.654-0.14-0.656-0.142l-0.046-0.014
			c-0.026-0.008-0.073-0.025-0.136-0.052c-0.105-0.043-0.265-0.109-0.438-0.224c-0.213-0.138-0.377-0.287-0.502-0.457
			c-0.153-0.206-0.242-0.457-0.243-0.686c0.001-0.232,0.09-0.483,0.245-0.689c0.124-0.169,0.288-0.318,0.502-0.457
			c0.173-0.114,0.332-0.18,0.439-0.224c0.093-0.04,0.151-0.057,0.18-0.066c0.002-0.001,0.259-0.096,0.658-0.141
			c0.123-0.015,0.26-0.025,0.406-0.025c0.264,0,0.666,0.03,1.08,0.17c0.507,0.161,0.967,0.488,1.174,0.835
			c0.104,0.168,0.146,0.327,0.163,0.416c0.004,0.033,0.007,0.062,0.01,0.087L26.706,12.084L26.706,12.084z"/>
		<ellipse cx="24.25" cy="11.99" rx="1.623" ry="1.056"/>
		<path d="M23.542,3.07c-6.198,0-11.24,3.987-11.24,8.888c0,4.9,5.042,8.886,11.24,8.886c6.197,0,11.24-3.986,11.24-8.886
			S29.74,3.07,23.542,3.07z M31.567,16.635l-2.119-1.424c0.003,0.004-0.173,0.127-0.173,0.127c0.04,0.048,0.03,0.307,0.005,0.527
			c-0.021,0.147-0.053,0.305-0.085,0.477c-0.031,0.169-0.022,0.394-0.034,0.58c-0.007,0.389,0.023,0.792,0.243,1.071l0.08,0.101
			c0,0,0.8-0.461,0.786-0.481c0.393-0.284,0.316-0.565,0.113-0.733l-0.231,0.161c0.039,0.037,0.104,0.111,0.091,0.196
			c-0.009,0.063-0.062,0.129-0.154,0.194c0,0-0.115,0.092-0.244,0.16c-0.127,0.074-0.254,0.147-0.254,0.147
			c-0.14-0.251-0.141-0.583-0.142-0.941c0.001-0.177,0.011-0.352,0.019-0.513c0.019-0.152,0.047-0.286,0.059-0.418
			c0.015-0.134,0.021-0.24,0.021-0.326l1.809,1.312c-1.756,1.647-4.381,2.722-7.33,2.83c0.032-0.396,0.135-1.659,0.187-2.297
			c0.067,0.061,0.153,0.131,0.264,0.218c0.104,0.079,0.228,0.146,0.359,0.257c0.137,0.13,0.279,0.266,0.418,0.397
			c0.281,0.275,0.557,0.538,0.666,0.816c0,0-0.584,0.104-0.586,0.093c-0.113,0.01-0.201-0.005-0.259-0.048
			c-0.077-0.058-0.092-0.158-0.094-0.212l-0.285,0.029c0,0.163,0.062,0.3,0.177,0.388c0.117,0.087,0.283,0.121,0.486,0.101
			c0.002,0.022,0.922-0.156,0.922-0.156l-0.027-0.126c-0.08-0.348-0.387-0.668-0.707-0.971c-0.16-0.139-0.33-0.322-0.484-0.432
			c-0.148-0.101-0.295-0.2-0.428-0.291c-0.09-0.063-0.192-0.15-0.269-0.229c-0.074-0.075-0.127-0.127-0.128-0.129l-0.208,0.008
			l-0.317,2.597c-0.057,0.001-0.112,0.007-0.169,0.007c-0.255,0-0.506-0.015-0.756-0.029l0.627-2.578l-0.208-0.007
			c0.001-0.004,0.002-0.007,0.002-0.007c-0.032,0.055-0.302,0.24-0.541,0.363c-0.172,0.091-0.36,0.19-0.552,0.291
			c-0.199,0.111-0.434,0.268-0.648,0.393c-0.433,0.27-0.847,0.548-1.038,0.86L20.36,19.1c0,0,0.219,0.052,0.438,0.104
			c0.109,0.026,0.219,0.053,0.301,0.073c0.082,0.022,0.139,0.027,0.139,0.026c0.476,0.073,0.743-0.174,0.836-0.43l-0.277-0.039
			c-0.021,0.051-0.072,0.146-0.168,0.196c-0.071,0.038-0.166,0.048-0.277,0.032c-0.004,0.013-0.559-0.123-0.559-0.123
			c0.199-0.249,0.569-0.479,0.949-0.722c0.187-0.122,0.379-0.247,0.565-0.367c0.176-0.107,0.329-0.176,0.467-0.255
			c0.145-0.081,0.257-0.155,0.348-0.216l-0.646,2.275c-2.781-0.226-5.222-1.324-6.865-2.926c0.337-0.177,1.605-0.842,2.234-1.172
			c-0.021,0.086-0.041,0.193-0.058,0.327c-0.069,0.49-0.013,1.266-0.378,1.689c0,0-0.474-0.29-0.466-0.301
			c-0.086-0.064-0.131-0.126-0.131-0.183c0-0.077,0.077-0.138,0.123-0.167l-0.22-0.159c-0.141,0.084-0.218,0.192-0.217,0.307
			c0.001,0.116,0.08,0.235,0.23,0.351c0,0,0.042,0.032,0.107,0.082c0.069,0.043,0.161,0.102,0.251,0.16
			c0.184,0.116,0.367,0.232,0.367,0.232l0.103-0.084c0.554-0.481,0.455-1.354,0.527-1.926c0.027-0.221,0.084-0.479,0.143-0.527
			c0,0-0.002,0.001-0.008,0.005l-0.169-0.132l-2.637,1.294c-0.22-0.23-0.426-0.468-0.612-0.717l2.749-1.065l-0.132-0.167
			c-0.093,0.018-0.511-0.056-0.834-0.156c-1.025-0.2-1.949-0.918-2.623-0.832l-0.121,0.019c0,0,0.068,0.214,0.137,0.428
			c0.091,0.202,0.183,0.405,0.183,0.405c0.186,0.43,0.565,0.47,0.8,0.402l-0.146-0.235c-0.05,0.013-0.151,0.03-0.245-0.016
			c-0.067-0.036-0.124-0.106-0.171-0.208c0,0-0.242-0.515-0.224-0.523c0.278,0.009,0.664,0.158,1.063,0.323
			c0.197,0.084,0.397,0.175,0.607,0.247c0.215,0.073,0.442,0.135,0.629,0.189c0.198,0.059,0.376,0.084,0.513,0.111l-2.361,0.844
			c-0.748-1.079-1.176-2.309-1.176-3.615c0-1.3,0.425-2.524,1.166-3.601c0.305,0.11,1.707,0.618,2.393,0.867
			c-0.138,0.024-0.311,0.055-0.515,0.106c-0.186,0.054-0.413,0.115-0.627,0.187c-0.21,0.072-0.418,0.157-0.612,0.243
			c-0.396,0.166-0.791,0.308-1.068,0.318c0,0,0.011-0.035,0.027-0.086c0.023-0.048,0.053-0.113,0.083-0.178
			c0.061-0.129,0.12-0.259,0.12-0.259c0.048-0.1,0.101-0.173,0.174-0.205c0.097-0.044,0.195-0.027,0.245-0.014L14.98,9.1
			c-0.151-0.045-0.312-0.037-0.457,0.032c-0.147,0.066-0.274,0.185-0.348,0.366c0,0-0.091,0.203-0.183,0.406
			c-0.078,0.208-0.142,0.424-0.142,0.424l0.121,0.02c0.674,0.09,1.603-0.624,2.629-0.818c0.165-0.046,0.367-0.093,0.537-0.114
			c0.166-0.024,0.283-0.04,0.287-0.041l0.143-0.165l-2.78-1.09c0.17-0.228,0.356-0.447,0.555-0.66l2.687,1.309
			c-0.004-0.005,0.168-0.134,0.168-0.134c0.004,0.003,0.008,0.005,0.008,0.005c-0.061-0.048-0.119-0.305-0.147-0.527
			c-0.075-0.573,0.021-1.446-0.533-1.925l-0.103-0.084c0,0-0.737,0.458-0.724,0.477c-0.36,0.277-0.241,0.521-0.01,0.656l0.22-0.159
			c-0.046-0.03-0.125-0.09-0.124-0.166c0-0.057,0.045-0.119,0.131-0.184c-0.008-0.01,0.464-0.302,0.464-0.302
			c0.366,0.422,0.313,1.196,0.385,1.689c0.018,0.134,0.038,0.24,0.06,0.326l-2.28-1.186c1.631-1.628,4.079-2.749,6.875-2.988
			c0.063,0.219,0.476,1.645,0.674,2.333c-0.09-0.059-0.203-0.137-0.348-0.214c-0.139-0.078-0.292-0.146-0.469-0.254
			c-0.187-0.121-0.38-0.245-0.568-0.367c-0.381-0.237-0.752-0.471-0.953-0.717c0,0,0.14-0.033,0.279-0.065
			c0.139-0.033,0.28-0.061,0.28-0.061c0.112-0.017,0.206-0.006,0.278,0.031c0.099,0.05,0.149,0.144,0.17,0.195l0.278-0.039
			c-0.059-0.156-0.169-0.284-0.316-0.36c-0.148-0.077-0.325-0.099-0.523-0.068c0,0-0.056,0.008-0.138,0.029
			c-0.082,0.02-0.192,0.046-0.301,0.072c-0.219,0.053-0.438,0.105-0.438,0.105l0.07,0.115c0.192,0.312,0.608,0.589,1.042,0.857
			c0.215,0.127,0.449,0.279,0.649,0.39c0.192,0.102,0.38,0.2,0.553,0.291c0.239,0.123,0.51,0.303,0.542,0.36
			c0,0-0.001-0.002-0.002-0.007l0.208-0.008l-0.655-2.64C23,4.229,23.269,4.214,23.543,4.214c0.071,0,0.141,0.007,0.212,0.008
			l0.307,2.663L24.27,6.9c0.012-0.055,0.215-0.241,0.399-0.363c0.135-0.091,0.28-0.19,0.43-0.291
			c0.076-0.041,0.16-0.135,0.242-0.206c0.082-0.075,0.166-0.149,0.246-0.222c0.323-0.302,0.633-0.622,0.715-0.969l0.028-0.126
			c0,0-0.229-0.043-0.459-0.086c-0.229-0.043-0.461-0.074-0.461-0.074c-0.491-0.048-0.666,0.222-0.666,0.49l0.283,0.028
			c0.003-0.054,0.019-0.155,0.096-0.212c0.058-0.042,0.146-0.059,0.261-0.048c0,0.001,0.146,0.017,0.291,0.044
			c0.146,0.026,0.291,0.052,0.291,0.052c-0.109,0.276-0.388,0.542-0.67,0.811c-0.139,0.131-0.283,0.267-0.42,0.397
			c-0.133,0.112-0.256,0.178-0.361,0.257c-0.112,0.081-0.198,0.156-0.266,0.216l-0.177-2.364c2.974,0.119,5.608,1.222,7.356,2.9
			c-0.352,0.252-1.342,0.962-1.85,1.327c-0.001-0.086-0.008-0.193-0.021-0.326c-0.01-0.128-0.036-0.269-0.055-0.42
			c-0.008-0.161-0.016-0.334-0.017-0.511c0.004-0.361,0.007-0.689,0.147-0.941c0,0,0.125,0.074,0.252,0.147
			c0.127,0.075,0.242,0.164,0.242,0.164c0.094,0.066,0.146,0.132,0.155,0.195c0.013,0.085-0.053,0.158-0.092,0.194l0.233,0.163
			c0.123-0.104,0.183-0.229,0.162-0.356c-0.019-0.13-0.113-0.257-0.277-0.374c0.016-0.021-0.782-0.486-0.782-0.486l-0.081,0.1
			c-0.221,0.277-0.253,0.679-0.248,1.067c0.012,0.185-0.001,0.414,0.029,0.582c0.031,0.171,0.066,0.325,0.082,0.477
			c0.027,0.221,0,0.521,0,0.521s0.17,0.132,0.166,0.136l2.166-1.437c0.211,0.219,0.41,0.447,0.593,0.683l-2.302,1.2l0.143,0.164
			c-0.004,0.001-0.008,0.003-0.008,0.003c0.072-0.017,0.422,0.056,0.693,0.157c0.394,0.12,0.842,0.324,1.297,0.498
			c0.438,0.176,0.84,0.338,1.172,0.274l0.119-0.023c0,0-0.071-0.223-0.143-0.445c-0.098-0.211-0.195-0.422-0.195-0.422
			c-0.096-0.225-0.246-0.342-0.394-0.393c-0.146-0.052-0.291-0.038-0.409,0.008l0.153,0.243c0.049-0.017,0.147-0.041,0.241,0.002
			c0.066,0.035,0.125,0.106,0.175,0.211c0,0,0.256,0.534,0.235,0.543c-0.274,0.001-0.66-0.138-1.057-0.288
			c-0.383-0.162-0.828-0.294-1.136-0.407c-0.166-0.059-0.315-0.084-0.431-0.111l2.035-0.973c0.773,1.095,1.215,2.348,1.215,3.679
			c0,1.337-0.445,2.597-1.228,3.696c-0.428-0.202-1.462-0.691-2.003-0.947c0.115-0.027,0.264-0.054,0.428-0.114
			c0.645-0.186,1.65-0.686,2.188-0.707c0,0-0.013,0.036-0.03,0.089c-0.014,0.054-0.043,0.123-0.076,0.189
			c-0.063,0.134-0.125,0.269-0.125,0.269c-0.051,0.104-0.109,0.176-0.176,0.211c-0.088,0.047-0.191,0.021-0.238,0.006l-0.152,0.242
			c0.146,0.056,0.304,0.054,0.449-0.01c0.152-0.062,0.268-0.194,0.351-0.38c0,0,0.103-0.208,0.19-0.423
			c0.071-0.223,0.144-0.446,0.144-0.446l-0.119-0.022c-0.332-0.062-0.737,0.099-1.169,0.281c-0.457,0.173-0.898,0.382-1.294,0.503
			c-0.271,0.101-0.616,0.179-0.69,0.161c0,0,0.002,0,0.008,0.003l-0.143,0.164l2.27,1.172
			C32.019,16.151,31.802,16.398,31.567,16.635z"/>
	</g>
</g>
</svg>