<?xml version="1.0" encoding="iso-8859-1"?>
<!-- Uploaded to: SVG Repo, www.svgrepo.com, Generator: SVG Repo Mixer Tools -->
<!DOCTYPE svg PUBLIC "-//W3C//DTD SVG 1.1//EN" "http://www.w3.org/Graphics/SVG/1.1/DTD/svg11.dtd">
<svg fill="#000000" version="1.1" id="Capa_1" xmlns="http://www.w3.org/2000/svg" xmlns:xlink="http://www.w3.org/1999/xlink" 
	 width="800px" height="800px" viewBox="0 0 49.788 49.788"
	 xml:space="preserve">
<g>
	<path d="M37.442,12.548C37.442,5.629,31.813,0,24.894,0S12.346,5.629,12.346,12.548c0,5.157,3.129,9.596,7.587,11.522h-0.02
		c0.014,0.003,0.028,0.006,0.042,0.01c0.123,0.054,0.25,0.104,0.377,0.153v2.251h1.305v21.02l1.894,1.241V26.484h0.652v22.651
		l0.752,0.652l3.493-3.459v-1.371l-1.046-0.392l1.046-0.784v-0.72l-2.285-1.826l1.958-2.09l-0.719-0.912l0.719-0.588v-0.979
		l-1.371-1.501l0.652-1.436l-1.239-1.11v-1.437l1.958-1.828v-2.871h1.437V24.2C34.163,22.351,37.442,17.826,37.442,12.548z
		 M35.042,11.88h-4.322c-0.127-1.118-0.568-2.14-1.234-2.978l3.053-3.054C33.972,7.482,34.891,9.576,35.042,11.88z M25.562,2.4
		c2.302,0.15,4.397,1.068,6.031,2.503L28.54,7.958c-0.838-0.666-1.86-1.108-2.979-1.236L25.562,2.4L25.562,2.4z M28.382,12.548
		c0,1.923-1.563,3.488-3.488,3.488c-1.924,0-3.488-1.565-3.488-3.488c0-1.924,1.564-3.489,3.488-3.489
		C26.819,9.059,28.382,10.624,28.382,12.548z M24.226,2.4v4.321c-1.117,0.128-2.14,0.57-2.978,1.236l-3.053-3.053
		C19.828,3.469,21.924,2.551,24.226,2.4z M17.25,5.849l3.054,3.054c-0.666,0.837-1.108,1.859-1.235,2.977h-4.323
		C14.897,9.576,15.816,7.482,17.25,5.849z M14.746,13.216h4.322c0.127,1.117,0.569,2.139,1.235,2.976l-3.054,3.056
		C15.816,17.612,14.897,15.518,14.746,13.216z M21.248,17.138c0.838,0.666,1.86,1.107,2.978,1.235v4.322
		c-2.302-0.151-4.397-1.069-6.031-2.504L21.248,17.138z M25.562,22.695v-4.322c1.117-0.128,2.14-0.569,2.978-1.235l3.055,3.054
		C29.959,21.626,27.864,22.544,25.562,22.695z M29.485,16.191c0.666-0.837,1.107-1.858,1.234-2.976h4.322
		c-0.15,2.302-1.069,4.397-2.504,6.031L29.485,16.191z"/>
</g>
</svg>