<?xml version="1.0" encoding="iso-8859-1"?>
<!-- Uploaded to: SVG Repo, www.svgrepo.com, Generator: SVG Repo Mixer Tools -->
<!DOCTYPE svg PUBLIC "-//W3C//DTD SVG 1.1//EN" "http://www.w3.org/Graphics/SVG/1.1/DTD/svg11.dtd">
<svg fill="#000000" version="1.1" id="Capa_1" xmlns="http://www.w3.org/2000/svg" xmlns:xlink="http://www.w3.org/1999/xlink" 
	 width="800px" height="800px" viewBox="0 0 48.45 48.45" xml:space="preserve"
	>
<g>
	<path d="M39.231,10.355C39.231,4.645,32.499,0,24.225,0C15.951,0,9.219,4.645,9.219,10.355c0,5.394,6.009,9.832,13.648,10.307
		v0.433h-1.966v1.986h1.966V36.16h-4.289v-0.74h-2.156v4.042h2.156v-0.739h4.289v2.692h-4.289v-0.74h-2.156v4.042h2.156v-0.738
		h4.289v1.613h-1.072v2.858h5.695v-2.858h-1.597v-1.613h3.979v0.738h2.156v-4.042h-2.156v0.74h-3.979v-2.692h3.979v0.739h2.156
		V35.42h-2.156v0.74h-3.979V23.081h1.888v-1.986h-1.888v-0.454C33.385,20.066,39.231,15.675,39.231,10.355z M27.136,4.062
		l4.672,0.065c2.983,1.437,4.92,3.69,4.92,6.229c0,1.768-0.946,3.396-2.522,4.709l-5.582,0.787l-4.145-0.8l1.43-2.863V8.564
		l-1.792-3.3L27.136,4.062z M16.692,16.606c-3.012-1.435-4.969-3.7-4.969-6.251c0-2.036,1.251-3.887,3.282-5.284l5.379-0.921
		l3.312,1.198l-1.768,3.566v2.956l1.748,3.293l-2.878,1.146L16.692,16.606z"/>
	<g>
	</g>
	<g>
	</g>
	<g>
	</g>
	<g>
	</g>
	<g>
	</g>
	<g>
	</g>
	<g>
	</g>
	<g>
	</g>
	<g>
	</g>
	<g>
	</g>
	<g>
	</g>
	<g>
	</g>
	<g>
	</g>
	<g>
	</g>
	<g>
	</g>
</g>
</svg>