<?xml version="1.0" encoding="iso-8859-1"?>
<!-- Uploaded to: SVG Repo, www.svgrepo.com, Generator: SVG Repo Mixer Tools -->
<!DOCTYPE svg PUBLIC "-//W3C//DTD SVG 1.1//EN" "http://www.w3.org/Graphics/SVG/1.1/DTD/svg11.dtd">
<svg fill="#000000" version="1.1" id="Capa_1" xmlns="http://www.w3.org/2000/svg" xmlns:xlink="http://www.w3.org/1999/xlink" 
	 width="800px" height="800px" viewBox="0 0 49.859 49.859"
	 xml:space="preserve">
<g>
	<path d="M40.413,11.474C40.413,5.137,33.481,0,24.929,0C16.379,0,9.447,5.137,9.447,11.474c0,5.182,4.636,9.556,11,10.98v2.476
		h1.396v22.486l2.025,1.327V24.93h0.698v24.232l0.804,0.697l3.736-3.7v-1.468l-1.118-0.418l1.118-0.838v-0.77l-2.444-1.955
		l2.096-2.234L27.989,37.5l0.769-0.629v-1.048l-1.467-1.605l0.698-1.536l-1.326-1.188v-1.536l2.095-1.955V24.93h1.537v-2.704
		C36.198,20.607,40.413,16.411,40.413,11.474z M24.93,2.663c2.078,0,3.763,1.59,3.763,3.552s-1.686,3.552-3.763,3.552
		c-2.078,0-3.763-1.59-3.763-3.552S22.852,2.663,24.93,2.663z"/>
</g>
</svg>