<?xml version="1.0" encoding="iso-8859-1"?>
<!-- Uploaded to: SVG Repo, www.svgrepo.com, Generator: SVG Repo Mixer Tools -->
<!DOCTYPE svg PUBLIC "-//W3C//DTD SVG 1.1//EN" "http://www.w3.org/Graphics/SVG/1.1/DTD/svg11.dtd">
<svg fill="#000000" version="1.1" id="Capa_1" xmlns="http://www.w3.org/2000/svg" xmlns:xlink="http://www.w3.org/1999/xlink" 
	 width="800px" height="800px" viewBox="0 0 50.117 50.117"
	 xml:space="preserve">
<g>
	<g>
		<path d="M38.324,10.646h-0.081c-0.046-0.087-0.106-0.179-0.2-0.286c-0.044-0.049-0.093-0.098-0.168-0.166
			c-0.055-0.047-0.109-0.094-0.174-0.141c-0.061-0.045-0.123-0.084-0.221-0.143c-0.043-0.024-0.086-0.048-0.146-0.073l0.06-0.133
			c0,0,0-0.002,0-0.003l0.033-0.065l-0.002-0.013c0.006-0.018,0.012-0.034,0.016-0.048l0.027-0.077
			c0.02-0.07,0.031-0.147,0.042-0.248c0.005-0.079,0.003-0.162-0.005-0.267c-0.01-0.092-0.027-0.188-0.056-0.285
			c-0.021-0.074-0.054-0.14-0.097-0.223l-0.035-0.061c-0.025-0.043-0.053-0.084-0.078-0.119l-0.043-0.049
			c-0.03-0.038-0.062-0.071-0.092-0.095L37.059,8.11c-0.031-0.022-0.06-0.042-0.09-0.06l-0.154,0.224l0.094-0.258
			c-0.035-0.015-0.067-0.026-0.139-0.049c-0.045-0.012-0.093-0.018-0.186-0.021c-0.029,0-0.059,0.001-0.087,0.005l-0.038,0.006
			c-0.037,0.006-0.075,0.016-0.109,0.025c-0.047,0.015-0.09,0.032-0.123,0.05c-0.308,0.149-0.471,0.454-0.438,0.771
			c-0.272-0.275-0.493-0.599-0.647-0.839C35.1,7.89,35.062,7.815,35.023,7.728c-0.015-0.03-0.025-0.063-0.039-0.094
			c-0.018-0.049-0.037-0.098-0.057-0.139C34.829,7.266,34.796,7.06,34.83,6.9c0.013-0.061,0.037-0.112,0.074-0.164l0.037-0.053
			c0.021-0.018,0.041-0.028,0.059-0.04l0.064-0.039l-0.062-0.265l0.118,0.245l0.053,0.002l0.007-0.001
			c0.03,0.01,0.064,0.029,0.098,0.059l0.633,0.7l-0.15-0.907c-0.042-0.257-0.146-0.5-0.285-0.677c-0.236-0.322-0.527-0.5-0.814-0.5
			c-0.148,0-0.367,0.048-0.574,0.276c-0.049,0.055-0.092,0.112-0.129,0.173c-0.122-0.315-0.307-0.656-0.676-0.921
			c-0.291-0.225-0.65-0.305-0.918-0.245c-0.106,0.021-0.194,0.053-0.262,0.083c-0.035-0.009-0.07-0.017-0.108-0.021
			c-0.019-0.036-0.041-0.07-0.065-0.102c0.008-0.29-0.109-0.723-0.593-1.025c-0.399-0.23-0.769-0.273-1.058-0.278
			c0.041-0.053,0.078-0.111,0.109-0.173c0.051-0.103,0.084-0.204,0.096-0.301c0.054-0.405-0.222-0.756-0.709-0.911
			c-0.198-0.07-0.457-0.082-0.688-0.049l-0.871,0.136l0.809,0.386c0.01,0.005,0.043,0.025,0.063,0.063
			c0.006,0.01,0.013,0.028,0.019,0.053l-0.041,0.21c-0.013,0.03-0.031,0.061-0.084,0.116c-0.017,0.018-0.033,0.034-0.09,0.068
			C28.87,2.81,28.852,2.82,28.829,2.829l-0.056,0.022c-0.022,0.008-0.047,0.014-0.071,0.018l0.042,0.268L28.637,2.88
			c-0.031,0.004-0.066,0.006-0.152,0.009L28.16,2.85c-0.094-0.015-0.19-0.029-0.277-0.054c-0.287-0.093-0.615-0.263-0.886-0.456
			l0.021-0.002c0.116-0.015,0.223-0.055,0.314-0.118l0.059-0.046c0.023-0.021,0.047-0.043,0.053-0.05l0.053-0.062
			c0.023-0.029,0.044-0.061,0.062-0.092l0.027-0.049c0.027-0.058,0.048-0.113,0.062-0.17c0.008-0.035,0.016-0.074,0.021-0.121
			c0.006-0.048,0.007-0.098,0.004-0.11L27.66,1.356c-0.01-0.042-0.02-0.084-0.034-0.122l-0.093-0.172
			c-0.021-0.03-0.045-0.058-0.064-0.078L27.43,0.946c-0.029-0.029-0.063-0.057-0.107-0.083l-0.055-0.035
			c-0.033-0.018-0.072-0.035-0.113-0.052L27.1,0.755c-0.058-0.021-0.123-0.038-0.197-0.053c-0.071-0.013-0.141-0.019-0.223-0.021
			l-0.383,0.058L26.08,0.843c-0.027,0.017-0.053,0.035-0.098,0.07c-0.117-0.247-0.284-0.476-0.417-0.619
			c-0.083-0.09-0.163-0.155-0.241-0.204V0h-0.271l0,0h-0.001l0,0l-0.265,0.005v0.091c-0.07,0.044-0.143,0.101-0.23,0.191
			c-0.041,0.042-0.081,0.089-0.139,0.163c-0.04,0.051-0.08,0.105-0.119,0.167c-0.038,0.058-0.072,0.117-0.124,0.211
			c-0.014,0.026-0.026,0.054-0.04,0.08l-0.033-0.023c-0.004-0.003-0.008-0.006-0.012-0.009l-0.053-0.041h-0.01
			c-0.015-0.009-0.029-0.017-0.043-0.023l-0.064-0.036c-0.062-0.028-0.128-0.048-0.166-0.055l-0.052-0.017
			c-0.068-0.015-0.142-0.021-0.238-0.025c-0.08,0-0.166,0.006-0.253,0.022c-0.071,0.015-0.135,0.032-0.194,0.053l-0.052,0.021
			c-0.042,0.017-0.083,0.035-0.117,0.055L22.8,0.86c-0.041,0.026-0.075,0.052-0.1,0.076l-0.047,0.043
			c-0.023,0.024-0.043,0.048-0.062,0.073l-0.04,0.056c-0.018,0.03-0.032,0.06-0.059,0.12c-0.017,0.042-0.029,0.088-0.041,0.151
			c-0.006,0.037-0.01,0.071-0.012,0.107V1.52v0.004c0,0.035,0.002,0.071,0.006,0.107c0.005,0.046,0.013,0.089,0.023,0.123
			c0.086,0.334,0.335,0.558,0.646,0.587c-0.268,0.192-0.592,0.36-0.871,0.45c-0.077,0.021-0.155,0.037-0.232,0.049l-0.237,0.037
			c-0.225,0.025-0.426-0.001-0.562-0.082c-0.046-0.027-0.086-0.066-0.104-0.089l-0.06-0.09c-0.011-0.025-0.016-0.05-0.022-0.072
			l-0.017-0.138c0.003-0.021,0.01-0.04,0.018-0.054c0.015-0.024,0.036-0.042,0.052-0.055l0.861-0.398l-0.911-0.13
			c-0.23-0.034-0.494-0.021-0.678,0.045c-0.33,0.104-0.568,0.297-0.67,0.542C19.62,2.503,19.58,2.738,19.73,3.032
			c0.032,0.061,0.067,0.117,0.106,0.169c-0.289,0.006-0.659,0.05-1.065,0.284c-0.52,0.327-0.587,0.78-0.582,1.018
			c-0.024,0.031-0.047,0.066-0.066,0.103c-0.038,0.004-0.074,0.011-0.11,0.022c-0.066-0.03-0.152-0.062-0.253-0.081
			c-0.301-0.066-0.637,0.021-0.92,0.239c-0.377,0.271-0.562,0.613-0.682,0.924c-0.04-0.063-0.083-0.122-0.132-0.175
			c-0.079-0.084-0.164-0.149-0.254-0.194c-0.36-0.187-0.805-0.023-1.125,0.413c-0.146,0.185-0.25,0.429-0.292,0.686l-0.131,0.895
			l0.618-0.691c0.01-0.01,0.046-0.041,0.087-0.053l0.058-0.006l0.079,0.024l0.107,0.076c0.024,0.022,0.045,0.047,0.076,0.109
			c0.01,0.022,0.022,0.047,0.027,0.064l0.011,0.054c0.004,0.025,0.01,0.05,0.011,0.076V7.05v0.003c0,0.026-0.002,0.053-0.006,0.083
			l-0.134,0.431c-0.054,0.149-0.115,0.282-0.175,0.386c-0.161,0.251-0.382,0.576-0.656,0.853c0-0.001,0-0.002,0-0.003
			c0.011-0.122-0.003-0.237-0.042-0.344l-0.032-0.07c-0.014-0.03-0.029-0.057-0.035-0.065L14.17,8.256
			c-0.025-0.031-0.052-0.061-0.082-0.089l-0.04-0.035c-0.052-0.043-0.105-0.076-0.158-0.102c-0.035-0.016-0.074-0.031-0.121-0.047
			s-0.099-0.025-0.143-0.03c-0.035-0.005-0.071-0.007-0.143-0.005c-0.043,0.004-0.086,0.01-0.129,0.02l-0.2,0.082
			c-0.032,0.017-0.063,0.038-0.087,0.056l-0.046,0.04c-0.042,0.033-0.076,0.069-0.101,0.1L12.876,8.3
			c-0.025,0.033-0.051,0.072-0.076,0.113l-0.045,0.079c-0.032,0.062-0.065,0.129-0.088,0.21c-0.021,0.079-0.036,0.154-0.048,0.244
			l-0.013,0.218l0.063,0.395c0.01,0.033,0.021,0.063,0.023,0.063c0.016,0.044,0.036,0.088,0.056,0.124l0.028,0.051
			c0.006,0.011,0.012,0.021,0.019,0.032c-0.141,0.063-0.285,0.149-0.421,0.254c-0.187,0.143-0.391,0.353-0.5,0.563l-0.076-0.001
			l-0.005,0.265c0,0.002,0,0.002,0,0.003s0,0.002,0,0.002v0.271h0.081c0.045,0.085,0.106,0.177,0.2,0.285
			c0.044,0.049,0.093,0.099,0.169,0.167c0.053,0.046,0.109,0.094,0.173,0.141c0.061,0.044,0.123,0.084,0.219,0.142
			c0.043,0.024,0.087,0.048,0.146,0.073l-0.059,0.134c0,0.001-0.001,0.002-0.002,0.004l-0.032,0.065l0.002,0.011
			c-0.007,0.021-0.013,0.04-0.02,0.06l0.033,0.011l0.002,0.009l0.016-0.004l0.197,0.062c0,0.001-0.001,0.001-0.001,0.002
			l-0.27-0.015c-0.02,0.071-0.032,0.147-0.034,0.196l-0.009,0.054c-0.005,0.078-0.003,0.161,0.005,0.268
			c0.01,0.09,0.028,0.186,0.056,0.283c0.021,0.075,0.053,0.141,0.096,0.224l0.037,0.063c0.024,0.041,0.051,0.081,0.076,0.114
			l0.042,0.052c0.031,0.037,0.063,0.07,0.092,0.094l0.05,0.042c0.03,0.022,0.059,0.042,0.103,0.067l0.047,0.025
			c0.034,0.016,0.066,0.027,0.136,0.049c0.046,0.012,0.093,0.018,0.187,0.021c0.03,0,0.058-0.001,0.087-0.005l0.04-0.007
			c0.036-0.006,0.073-0.014,0.108-0.024c0.046-0.015,0.089-0.031,0.123-0.049c0.307-0.149,0.471-0.454,0.438-0.772
			c0.271,0.275,0.492,0.6,0.646,0.84c0.042,0.074,0.079,0.15,0.117,0.236c0.015,0.03,0.026,0.062,0.038,0.093
			c0.019,0.05,0.037,0.099,0.058,0.139c0.098,0.229,0.132,0.435,0.098,0.596c-0.013,0.06-0.036,0.112-0.075,0.165l-0.036,0.049
			c-0.02,0.018-0.04,0.028-0.058,0.041l-0.12,0.057l-0.053-0.002l-0.006,0.001c-0.025-0.007-0.052-0.022-0.079-0.043l-0.658-0.761
			l0.155,0.952c0.042,0.257,0.146,0.5,0.287,0.678c0.236,0.322,0.525,0.5,0.814,0.5c0.148,0,0.367-0.049,0.573-0.277
			c0.049-0.055,0.092-0.112,0.129-0.172c0.123,0.314,0.307,0.655,0.677,0.921c0.291,0.224,0.65,0.305,0.917,0.245
			c0.106-0.021,0.194-0.053,0.261-0.084c0.035,0.01,0.071,0.018,0.109,0.022c0.02,0.036,0.042,0.071,0.067,0.104
			c-0.005,0.238,0.063,0.692,0.591,1.022c0.398,0.23,0.768,0.274,1.057,0.279c-0.04,0.054-0.077,0.111-0.11,0.174
			c-0.05,0.102-0.082,0.203-0.094,0.299c-0.054,0.405,0.22,0.756,0.708,0.911c0.199,0.07,0.456,0.082,0.688,0.049l0.917-0.148
			l-0.849-0.368l-0.008-0.004c-0.009-0.006-0.041-0.026-0.063-0.063c-0.008-0.015-0.015-0.033-0.018-0.053v-0.079l0.04-0.13
			c0.013-0.032,0.032-0.063,0.086-0.119c0.016-0.017,0.033-0.033,0.088-0.067c0.021-0.012,0.041-0.022,0.063-0.031l0.057-0.019
			c0.023-0.007,0.047-0.014,0.095-0.022l0.041-0.007c0.032-0.003,0.066-0.006,0.152-0.009l0.324,0.039
			c0.094,0.015,0.19,0.029,0.278,0.056c0.286,0.092,0.615,0.261,0.885,0.454c-0.006,0.001-0.014,0.001-0.022,0.002
			c-0.116,0.016-0.221,0.056-0.313,0.119l-0.054,0.042c-0.025,0.021-0.05,0.045-0.053,0.051l-0.056,0.063
			c-0.022,0.029-0.043,0.06-0.062,0.091l-0.028,0.049c-0.028,0.057-0.048,0.112-0.062,0.169c-0.009,0.036-0.017,0.076-0.023,0.123
			c-0.006,0.048-0.007,0.097-0.005,0.123l0.015,0.149c0.008,0.042,0.02,0.085,0.051,0.163l0.078,0.135
			c0.021,0.029,0.043,0.056,0.103,0.113c0.037,0.038,0.077,0.066,0.108,0.086l0.056,0.035c0.034,0.018,0.072,0.036,0.112,0.051
			l0.053,0.021c0.058,0.021,0.124,0.039,0.197,0.053c0.072,0.013,0.141,0.02,0.223,0.021l0.377-0.056c0,1.473,0,4.248,0,5.595
			c0,0.953-0.362,1.768-0.72,2.518h3.921c-0.328-0.814-0.701-1.577-0.701-2.423c0-1.096,0-4.121,0-5.688
			c0.012,0.003,0.034,0.013,0.043,0.014l0.059,0.02c0.068,0.014,0.143,0.021,0.242,0.025c0.08,0,0.162-0.008,0.25-0.023
			c0.07-0.014,0.135-0.031,0.193-0.052l0.051-0.021c0.043-0.017,0.084-0.036,0.117-0.055l0.051-0.031
			c0.039-0.025,0.074-0.051,0.1-0.076l0.044-0.041c0.024-0.025,0.046-0.051,0.062-0.072l0.043-0.061
			c0.018-0.03,0.031-0.059,0.059-0.119c0.018-0.042,0.027-0.087,0.04-0.149c0.006-0.037,0.01-0.071,0.012-0.107v-0.034v-0.003
			c0-0.036-0.001-0.073-0.006-0.109c-0.005-0.045-0.013-0.088-0.022-0.123c-0.086-0.334-0.336-0.557-0.646-0.587
			c0.268-0.192,0.592-0.36,0.871-0.449c0.078-0.021,0.156-0.037,0.232-0.049l0.238-0.037c0.227-0.026,0.428,0.002,0.562,0.082
			c0.048,0.027,0.087,0.066,0.109,0.096l0.055,0.085c0.012,0.024,0.017,0.048,0.027,0.092l0.012,0.054v0.063v0.001
			c-0.002,0.021-0.01,0.04-0.018,0.054c-0.013,0.021-0.029,0.037-0.045,0.05l-0.842,0.407l0.884,0.127
			c0.231,0.032,0.495,0.02,0.679-0.047c0.33-0.104,0.567-0.296,0.67-0.541c0.061-0.146,0.102-0.383-0.049-0.676
			c-0.031-0.062-0.066-0.117-0.105-0.17c0.289-0.005,0.66-0.051,1.064-0.284c0.521-0.326,0.588-0.779,0.582-1.017
			c0.025-0.032,0.047-0.066,0.067-0.104c0.038-0.005,0.073-0.012,0.108-0.022c0.066,0.03,0.151,0.062,0.254,0.081
			c0.302,0.065,0.637-0.021,0.92-0.238c0.375-0.271,0.562-0.613,0.683-0.925c0.04,0.064,0.083,0.123,0.133,0.176
			c0.079,0.083,0.164,0.149,0.253,0.194c0.361,0.187,0.805,0.022,1.125-0.414c0.146-0.185,0.249-0.428,0.293-0.685l0.143-0.947
			l-0.631,0.742c-0.01,0.01-0.045,0.042-0.145,0.059l-0.188-0.101c-0.023-0.021-0.043-0.046-0.075-0.109
			c-0.011-0.021-0.023-0.045-0.039-0.118c-0.004-0.024-0.009-0.049-0.011-0.075v-0.061v-0.003c0-0.026,0.002-0.054,0.006-0.08
			l0.05-0.227l0.085-0.209c0.055-0.146,0.115-0.28,0.175-0.385c0.162-0.252,0.384-0.575,0.656-0.854c0,0.001,0,0.003,0,0.004
			c-0.011,0.121,0.003,0.237,0.042,0.344l0.031,0.069c0.016,0.029,0.031,0.059,0.037,0.065l0.047,0.068
			c0.025,0.03,0.053,0.06,0.082,0.087l0.041,0.037c0.052,0.042,0.104,0.075,0.158,0.101c0.035,0.017,0.072,0.032,0.121,0.048
			c0.045,0.015,0.098,0.025,0.143,0.03c0.035,0.004,0.07,0.004,0.14,0.004c0.044-0.003,0.088-0.009,0.132-0.02l0.198-0.08
			c0.032-0.018,0.063-0.038,0.089-0.059l0.047-0.038c0.033-0.027,0.066-0.062,0.1-0.1l0.045-0.054
			c0.025-0.034,0.051-0.074,0.072-0.111l0.047-0.083c0.033-0.061,0.065-0.128,0.089-0.209c0.021-0.079,0.036-0.155,0.048-0.244
			l0.012-0.218l-0.062-0.392c-0.01-0.033-0.021-0.063-0.024-0.068c-0.015-0.044-0.034-0.087-0.055-0.123l-0.028-0.051
			c-0.006-0.01-0.012-0.021-0.02-0.031c0.142-0.063,0.285-0.149,0.422-0.254c0.188-0.143,0.391-0.354,0.5-0.564l0.076,0.002
			l0.004-0.266c0-0.001,0-0.002,0-0.003s0-0.001,0-0.002L38.324,10.646z M13.408,10c0.001,0,0.002,0.001,0.003,0.001
			C13.411,10.001,13.409,10.001,13.408,10L13.408,10z M16.114,11.553c-0.39,0.52-0.513,1.229-0.322,1.847
			c0.008,0.027,0.017,0.056,0.025,0.083c-0.017-0.024-0.033-0.05-0.05-0.075c-0.394-0.564-0.831-1.082-1.302-1.54
			c-0.348-0.329-0.746-0.685-1.21-0.955c0.081-0.046,0.162-0.091,0.244-0.146c0.247-0.164,0.487-0.358,0.701-0.564
			c0.25-0.214,0.47-0.43,0.65-0.636c0.376-0.404,0.691-0.802,0.967-1.224c-0.16,0.484-0.145,1.032,0.048,1.501
			c0.116,0.259,0.265,0.482,0.452,0.677c0.173,0.162,0.372,0.291,0.583,0.396C16.578,11.076,16.304,11.289,16.114,11.553z
			 M18.123,16.231c-0.022,0.031-0.042,0.065-0.057,0.102c-0.013-0.004-0.026-0.008-0.04-0.012c-0.055-0.013-0.114-0.037-0.221-0.091
			c-0.075-0.039-0.149-0.083-0.211-0.126c-0.124-0.094-0.252-0.199-0.359-0.353l-0.312-0.431c-0.042-0.06-0.086-0.118-0.129-0.202
			l-0.34-0.56l0.451,0.427c0.07,0.07,0.151,0.127,0.23,0.182l0.371,0.267c0.063,0.053,0.128,0.1,0.191,0.146
			c0.07,0.05,0.137,0.096,0.194,0.156c0.053,0.052,0.1,0.11,0.159,0.191c0.049,0.075,0.099,0.147,0.141,0.202
			c0.003,0.004,0.006,0.009,0.01,0.014C18.172,16.169,18.146,16.198,18.123,16.231z M18.163,5.743l-0.134,0.195
			c-0.043,0.056-0.089,0.109-0.146,0.166c-0.05,0.053-0.114,0.097-0.182,0.146c-0.064,0.046-0.131,0.094-0.182,0.138l-0.203,0.149
			c-0.261,0.167-0.529,0.396-0.86,0.739c0.084-0.13,0.162-0.262,0.237-0.389c0.122-0.207,0.238-0.403,0.367-0.568l0.182-0.249
			c0.101-0.145,0.226-0.247,0.342-0.337c0.066-0.047,0.136-0.089,0.205-0.126l-0.128-0.238l0.179,0.214
			c0.052-0.025,0.097-0.049,0.147-0.063c0.026-0.008,0.053-0.016,0.079-0.023c0.015,0.036,0.034,0.07,0.057,0.103
			c0.023,0.033,0.05,0.063,0.08,0.089C18.19,5.707,18.177,5.725,18.163,5.743z M28.301,7.065l0.889,0.189l0.19,0.145l0.433,0.63
			l0.653,0.487l0.472,0.606L31.036,9.7l-0.267,0.715l-0.722,0.318l-0.057,0.037h-3.068l0.052-0.023l0.088-0.239l-0.033-0.193
			l-0.157-0.203l-0.22-0.164l-0.146-0.211l-0.063-0.05l-0.297-0.063l-0.277-0.168l-0.242-0.072L25.366,9.43l-0.162,0.152V7.704
			l0.204-0.685l0.566-0.531l0.777-0.137l0.723,0.212L28.301,7.065z M25.852,1.586L25.852,1.586c0,0.001,0,0.002,0,0.002
			S25.852,1.587,25.852,1.586z M22.504,3.669c0.672-0.266,1.224-0.61,1.678-1.048c0.368-0.327,0.661-0.705,0.877-1.107
			c0.032,0.059,0.059,0.117,0.094,0.175c0.565,0.903,1.483,1.625,2.554,2.007c-1.1-0.088-2.166,0.521-2.646,1.495
			c-0.002,0.005-0.004,0.01-0.006,0.014c-0.179-0.349-0.418-0.664-0.73-0.924c-0.486-0.375-1.095-0.589-1.67-0.589
			c-0.05,0-0.101,0.001-0.142,0.004c-0.031,0.001-0.062,0.002-0.092,0.004C22.446,3.69,22.475,3.68,22.504,3.669z M21.359,7.209
			l0.517-0.28l0.638-0.357l0.646-0.251l0.98,0.213l0.584,0.57l0.189,0.514v1.986L24.75,9.447l-0.329-0.071L24.205,9.46l-0.214,0.12
			l-0.173,0.094l-0.193,0.033l-0.209,0.311l-0.268,0.201l-0.107,0.328l0.127,0.225h-2.935l-0.787-0.25l-0.403-0.708l0.319-0.979
			l0.797-0.601l0.624-0.925L21.359,7.209z M18.989,4.878c0.048-0.058,0.103-0.111,0.187-0.191c0.063-0.058,0.13-0.111,0.203-0.162
			c0.097-0.067,0.247-0.116,0.45-0.183l0.39-0.113c0.068-0.02,0.141-0.032,0.215-0.045l0.767-0.166
			c-0.052,0.022-0.101,0.048-0.15,0.074l-0.507,0.279c-0.081,0.045-0.159,0.091-0.227,0.139L20,4.726
			c-0.13,0.088-0.258,0.151-0.415,0.229c-0.068,0.031-0.139,0.056-0.242,0.084c-0.073,0.019-0.146,0.035-0.207,0.046l-0.039,0.006
			c-0.013-0.04-0.032-0.078-0.054-0.114c-0.019-0.031-0.042-0.06-0.065-0.085C18.981,4.887,18.985,4.883,18.989,4.878z
			 M20.663,17.694c-0.197-0.04-0.384-0.077-0.555-0.123l-0.329-0.098c-0.161-0.053-0.3-0.099-0.403-0.169
			c-0.066-0.045-0.129-0.096-0.204-0.163c-0.054-0.048-0.105-0.1-0.151-0.15c-0.015-0.017-0.03-0.033-0.045-0.051
			c0.025-0.026,0.047-0.055,0.066-0.086c0.023-0.036,0.041-0.075,0.055-0.115c0.027,0.004,0.055,0.01,0.083,0.015
			c0.062,0.011,0.125,0.026,0.208,0.049c0.067,0.021,0.133,0.045,0.184,0.067l0.055,0.028c0.116,0.059,0.244,0.122,0.374,0.208
			l0.226,0.153c0.292,0.2,0.615,0.382,0.979,0.551C21.02,17.766,20.837,17.729,20.663,17.694z M21.929,14.857l-0.744-0.266
			l-0.312-0.1l-0.159-0.182l-0.471-0.653l-0.85-0.591l-0.296-0.775l0.129-0.684l0.433-0.372l0.42-0.173h3.123l-0.1,0.086
			l-0.043,0.229l0.1,0.26l0.285,0.198l0.158,0.219l0.053,0.062l0.104,0.033l0.25,0.089l0.196,0.135l0.283,0.066l0.331-0.089
			l0.094-0.11v2.143l-0.151,0.316l-0.418,0.493l-0.987,0.267l-0.843-0.198L21.929,14.857z M27.613,18.162
			c-0.672,0.267-1.225,0.612-1.678,1.048c-0.308,0.273-0.548,0.586-0.75,0.913h-0.237c-0.566-0.894-1.477-1.607-2.539-1.987
			c1.103,0.09,2.166-0.52,2.646-1.494c0.002-0.005,0.004-0.01,0.006-0.016c0.179,0.35,0.418,0.665,0.73,0.925
			c0.485,0.375,1.095,0.59,1.671,0.59c0.051,0,0.102-0.002,0.143-0.004c0.03-0.001,0.061-0.003,0.092-0.004
			C27.67,18.142,27.643,18.151,27.613,18.162z M28.666,14.706l-0.646,0.303l-0.363,0.229l-0.646,0.197c0,0-0.554,0.068-0.576,0.076
			c-0.023,0.007-0.639-0.236-0.639-0.236L25.4,14.767l-0.196-0.396v-2.123l0.102,0.131c0,0,0.206,0.081,0.214,0.079
			c0.008-0.003,0.194-0.026,0.194-0.026l0.216-0.065l0.123-0.077l0.217-0.102l0.207-0.071l0.119-0.141l0.242-0.211l0.109-0.097
			l0.13-0.336l-0.052-0.191l-0.092-0.078h3.185l0.342,0.135l0.463,0.388l0.152,0.57l-0.388,1.002l-0.326,0.289l-0.723,0.63
			l-0.357,0.417L28.666,14.706z M31.127,16.954c-0.047,0.057-0.104,0.111-0.188,0.191c-0.062,0.057-0.129,0.111-0.203,0.161
			c-0.096,0.067-0.238,0.114-0.402,0.168l-0.438,0.129c-0.067,0.019-0.141,0.031-0.213,0.045l-0.768,0.165
			c0.051-0.022,0.1-0.047,0.146-0.072l0.512-0.281c0.08-0.047,0.158-0.091,0.224-0.138l0.318-0.216
			c0.13-0.089,0.258-0.151,0.375-0.21l0.042-0.021c0.068-0.031,0.139-0.056,0.24-0.084c0.074-0.019,0.147-0.034,0.207-0.046
			l0.039-0.005c0.015,0.039,0.032,0.078,0.055,0.113c0.02,0.031,0.042,0.06,0.066,0.086C31.136,16.945,31.131,16.95,31.127,16.954z
			 M31.074,4.978c-0.022,0.036-0.041,0.074-0.055,0.114c-0.026-0.004-0.054-0.009-0.082-0.015c-0.063-0.011-0.125-0.026-0.209-0.048
			c-0.067-0.021-0.134-0.046-0.185-0.067L30.49,4.934c-0.116-0.058-0.244-0.121-0.375-0.209l-0.227-0.153
			c-0.293-0.199-0.615-0.382-0.979-0.551c0.188,0.046,0.369,0.082,0.543,0.117c0.197,0.039,0.384,0.076,0.553,0.122l0.326,0.097
			c0.163,0.053,0.303,0.1,0.406,0.169c0.066,0.047,0.13,0.097,0.205,0.165c0.053,0.048,0.104,0.1,0.15,0.15
			c0.016,0.016,0.03,0.033,0.045,0.051C31.116,4.917,31.094,4.946,31.074,4.978z M31.994,5.601c0.023-0.031,0.042-0.066,0.057-0.102
			c0.014,0.004,0.027,0.008,0.041,0.012c0.055,0.012,0.114,0.035,0.221,0.09c0.076,0.039,0.15,0.083,0.211,0.126
			c0.123,0.095,0.252,0.2,0.358,0.353l0.312,0.433c0.043,0.059,0.086,0.118,0.129,0.2l0.34,0.561l-0.451-0.427
			c-0.07-0.07-0.15-0.126-0.23-0.181l-0.371-0.267c-0.062-0.053-0.129-0.101-0.191-0.146c-0.068-0.051-0.137-0.096-0.193-0.156
			c-0.053-0.053-0.1-0.111-0.158-0.192c-0.049-0.074-0.1-0.146-0.142-0.201c-0.003-0.005-0.006-0.01-0.01-0.015
			C31.945,5.662,31.971,5.633,31.994,5.601z M33.424,14.944c-0.123,0.207-0.238,0.401-0.367,0.568l-0.182,0.248
			c-0.102,0.146-0.227,0.247-0.342,0.338c-0.066,0.046-0.135,0.088-0.205,0.126l0.128,0.237l-0.179-0.214
			c-0.053,0.026-0.098,0.049-0.148,0.063c-0.025,0.009-0.052,0.016-0.079,0.023c-0.015-0.036-0.034-0.07-0.057-0.103
			c-0.023-0.033-0.05-0.063-0.08-0.089c0.013-0.018,0.026-0.036,0.04-0.055l0.134-0.194c0.042-0.056,0.088-0.109,0.146-0.166
			c0.052-0.053,0.115-0.097,0.182-0.145c0.064-0.046,0.131-0.096,0.184-0.14l0.203-0.149c0.262-0.167,0.529-0.396,0.861-0.74
			C33.578,14.686,33.5,14.816,33.424,14.944z M36.709,11.832c-0.001,0-0.002-0.001-0.003-0.001
			C36.707,11.831,36.708,11.831,36.709,11.832L36.709,11.832z M36.619,11.064c-0.247,0.165-0.487,0.358-0.701,0.565
			c-0.25,0.213-0.471,0.429-0.65,0.636c-0.375,0.403-0.69,0.801-0.966,1.222c0.162-0.487,0.146-1.023-0.05-1.499
			c-0.116-0.259-0.266-0.483-0.452-0.677c-0.173-0.162-0.37-0.291-0.583-0.396c0.322-0.16,0.596-0.373,0.786-0.636
			c0.39-0.52,0.513-1.229,0.322-1.849c-0.009-0.027-0.017-0.055-0.025-0.082c0.017,0.025,0.033,0.051,0.05,0.076
			c0.395,0.563,0.832,1.081,1.303,1.539c0.348,0.329,0.746,0.686,1.209,0.955C36.781,10.966,36.701,11.01,36.619,11.064z"/>
		<path d="M28.201,30.341c0-0.534-0.434-0.967-0.967-0.968h-4.567c-0.533,0.001-0.966,0.434-0.966,0.968
			c0,0.439,0.3,0.798,0.702,0.914c0,0.004-0.002,0.009-0.002,0.013h5.101c0-0.004-0.001-0.009-0.001-0.013
			C27.902,31.136,28.201,30.78,28.201,30.341z"/>
		<path d="M22.282,33.288h5.338c0.341-0.149,0.581-0.488,0.581-0.886c0-0.445-0.309-0.807-0.717-0.918
			c0-0.018,0.002-0.034,0.004-0.051h-5.066c0.002,0.017,0.004,0.032,0.006,0.049c-0.415,0.109-0.727,0.472-0.727,0.92
			C21.701,32.8,21.941,33.139,22.282,33.288z"/>
		<path d="M26.314,35.204c0-0.634,0.277-1.17,0.564-1.75h-3.641c0.304,0.562,0.575,1.133,0.575,1.752c0,0.353,0,1.458,0,2.917
			h-0.008v4.895h-6.886v5.137h3.307V46.38h-1.658v-0.707h1.657v-1.657h0.708v1.657h1.657v0.707h-1.657v1.774h2.873v1.963h0.008
			h2.493h0.008c0,0,0-0.773,0-1.963h2.865V46.38h-1.658v-0.707h1.658v-1.657h0.706v1.657h1.656v0.707h-1.656v1.774h3.308v-5.137
			h-6.879C26.314,39.496,26.314,35.854,26.314,35.204z"/>
	</g>
</g>
</svg>