<?xml version="1.0" encoding="iso-8859-1"?>
<!-- Uploaded to: SVG Repo, www.svgrepo.com, Generator: SVG Repo Mixer Tools -->
<!DOCTYPE svg PUBLIC "-//W3C//DTD SVG 1.1//EN" "http://www.w3.org/Graphics/SVG/1.1/DTD/svg11.dtd">
<svg fill="#000000" version="1.1" id="Capa_1" xmlns="http://www.w3.org/2000/svg" xmlns:xlink="http://www.w3.org/1999/xlink" 
	 width="800px" height="800px" viewBox="0 0 43.125 43.126"
	 xml:space="preserve">
<g>
	<polygon points="31.858,7.007 31.858,0 21.768,0 21.768,1.963 29.895,1.963 29.895,5.044 27.8,5.044 27.8,2.501 21.78,2.501 
		21.78,9.548 29.895,9.548 29.895,12.669 27.8,12.669 27.8,10.128 21.78,10.128 21.78,10.133 21.346,10.133 21.346,10.128 
		15.326,10.128 15.326,12.669 13.231,12.669 13.231,9.548 21.346,9.548 21.346,2.501 15.326,2.501 15.326,5.044 13.231,5.044 
		13.231,1.963 21.358,1.963 21.358,0 11.268,0 11.268,7.007 17.289,7.007 17.289,4.464 19.383,4.464 19.383,7.585 11.268,7.585 
		11.268,14.632 17.289,14.632 17.289,12.091 19.383,12.091 19.383,17.175 20.159,17.175 20.159,17.705 19.283,17.705 19.283,18.643 
		20.159,18.643 20.159,19.143 19.283,19.143 19.283,20.08 20.159,20.08 20.159,43.126 23.159,43.126 23.159,38.188 25.875,38.188 
		25.875,43.093 31.25,43.093 31.25,38.188 27,38.188 27,34.21 31.25,34.21 31.25,29.305 25.875,29.305 25.875,34.188 23.159,34.188 
		23.159,20.08 23.784,20.08 23.784,19.143 23.159,19.143 23.159,18.643 23.784,18.643 23.784,17.705 23.159,17.705 23.159,17.175 
		23.743,17.175 23.743,12.091 25.836,12.091 25.836,14.632 31.858,14.632 31.858,7.585 23.743,7.585 23.743,4.464 25.836,4.464 
		25.836,7.007 	"/>
</g>
</svg>